<?xml version="1.0" standalone="no"?>
<!DOCTYPE svg PUBLIC "-//W3C//DTD SVG 20010904//EN" "http://www.w3.org/TR/2001/REC-SVG-20010904/DTD/svg10.dtd">
<svg xmlns="http://www.w3.org/2000/svg" xmlns:xlink="http://www.w3.org/1999/xlink" width="626" height="600" viewBox="0 0 626 600">
<title>Symmetric 12-crossing knot based on generalization of the Limacon and Rose curves.</title>
<defs>
<path id="Main" d="M305.47,305.47
L301.201,311.903
L296.8,318.279
L292.268,324.596
L287.605,330.851
L282.812,337.042
L277.891,343.166
L272.841,349.221
L267.665,355.203
L262.362,361.11
L256.934,366.939
L251.382,372.689
L245.707,378.355
L239.91,383.937
L233.993,389.43
L227.957,394.833
L221.802,400.142
L215.532,405.357
L209.146,410.473
L202.647,415.489
L196.036,420.401
L189.315,425.209
L182.485,429.908
L175.549,434.498
L168.507,438.975
L161.362,443.337
L154.115,447.583
L146.769,451.708
L139.325,455.713
L131.786,459.594
L124.154,463.348
L116.43,466.975
L108.617,470.471
L100.717,473.836
L92.7324,477.066
L84.6653,480.16
L76.5181,483.116
L68.2932,485.932
L59.9932,488.606
L51.6206,491.136
L43.1775,493.521
L34.667,495.759
L26.0911,497.848
L17.4529,499.787
L8.75513,501.573
L0,503.207
L-8.80933,504.684
L-17.6699,506.006
L-26.5796,507.169
L-35.5352,508.174
L-44.5334,509.018
L-53.5715,509.7
L-62.647,510.219
L-71.7566,510.574
L-80.8972,510.765
L-90.0659,510.789
L-99.2595,510.646
L-108.475,510.335
L-117.709,509.856
L-126.96,509.207
L-136.222,508.387
L-145.494,507.397
L-154.772,506.236
L-164.053,504.902
L-173.333,503.396
L-182.61,501.716
L-191.88,499.864
L-201.14,497.838
L-210.386,495.638
L-219.616,493.265
L-228.825,490.717
L-238.011,487.995
L-247.171,485.099
L-256.3,482.03
L-265.396,478.786
L-274.455,475.369
L-283.473,471.779
L-292.449,468.016
L-301.377,464.08
L-310.255,459.972
L-319.08,455.693
L-327.848,451.243
L-336.555,446.624
L-345.199,441.834
L-353.776,436.877
L-362.283,431.751
L-370.716,426.459
L-379.072,421.002
L-387.348,415.38
L-395.541,409.594
L-403.647,403.647
L-411.663,397.538
L-419.586,391.27
L-427.412,384.844
L-435.139,378.261
L-442.764,371.523
L-450.282,364.632
L-457.692,357.589
L-464.99,350.395
L-472.173,343.054
L-479.237,335.566
L-486.181,327.934
L-493.001,320.159
L-499.694,312.243
L-506.257,304.19
L-512.687,296
L-518.981,287.676
L-525.138,279.221
L-531.154,270.636
L-537.025,261.925
L-542.75,253.089
L-548.327,244.131
L-553.752,235.054
L-559.022,225.86
L-564.136,216.552
L-569.092,207.133
L-573.885,197.604
L-578.515,187.971
L-582.979,178.235
L-587.275,168.398
L-591.4,158.465
L-595.353,148.438
L-599.13,138.32
L-602.732,128.115
L-606.155,117.824
L-609.397,107.453
L-612.457,97.0037
L-615.333,86.4795
L-618.022,75.8838
L-620.525,65.2197
L-622.838,54.4915
L-624.961,43.7014
L-626.891,32.854
L-628.628,21.9521
L-630.17,10.9995
L-631.517,0
L-632.665,-11.0432
L-633.615,-22.1262
L-634.366,-33.2456
L-634.916,-44.3977
L-635.265,-55.5786
L-635.412,-66.7847
L-635.355,-78.0117
L-635.094,-89.2566
L-634.629,-100.516
L-633.959,-111.784
L-633.084,-123.059
L-632.002,-134.336
L-630.714,-145.612
L-629.22,-156.882
L-627.519,-168.143
L-625.61,-179.391
L-623.495,-190.622
L-621.173,-201.832
L-618.644,-213.016
L-615.908,-224.172
L-612.966,-235.296
L-609.817,-246.382
L-606.463,-257.428
L-602.904,-268.43
L-599.139,-279.384
L-595.171,-290.284
L-591,-301.129
L-586.625,-311.914
L-582.049,-322.635
L-577.272,-333.288
L-572.295,-343.87
L-567.12,-354.376
L-561.747,-364.803
L-556.177,-375.146
L-550.413,-385.403
L-544.454,-395.57
L-538.304,-405.641
L-531.963,-415.615
L-525.432,-425.487
L-518.715,-435.254
L-511.811,-444.911
L-504.724,-454.456
L-497.455,-463.884
L-490.005,-473.193
L-482.378,-482.378
L-474.575,-491.437
L-466.598,-500.365
L-458.45,-509.16
L-450.132,-517.818
L-441.648,-526.335
L-433,-534.709
L-424.189,-542.937
L-415.219,-551.014
L-406.092,-558.938
L-396.812,-566.706
L-387.38,-574.314
L-377.8,-581.76
L-368.074,-589.042
L-358.206,-596.155
L-348.198,-603.097
L-338.054,-609.865
L-327.776,-616.457
L-317.368,-622.87
L-306.833,-629.101
L-296.175,-635.148
L-285.395,-641.008
L-274.499,-646.679
L-263.489,-652.158
L-252.369,-657.444
L-241.142,-662.533
L-229.813,-667.424
L-218.383,-672.115
L-206.858,-676.603
L-195.241,-680.887
L-183.536,-684.965
L-171.746,-688.835
L-159.875,-692.494
L-147.927,-695.943
L-135.906,-699.178
L-123.816,-702.198
L-111.662,-705.002
L-99.4451,-707.589
L-87.1719,-709.957
L-74.8455,-712.105
L-62.4697,-714.031
L-50.0491,-715.736
L-37.5876,-717.216
L-25.0896,-718.473
L-12.5591,-719.504
L0,-720.31
L12.5833,-720.889
L25.1863,-721.24
L37.8052,-721.365
L50.4353,-721.26
L63.073,-720.928
L75.7136,-720.366
L88.3528,-719.576
L100.986,-718.556
L113.61,-717.307
L126.22,-715.829
L138.811,-714.122
L151.38,-712.187
L163.922,-710.022
L176.432,-707.63
L188.907,-705.009
L201.342,-702.162
L213.733,-699.088
L226.075,-695.788
L238.365,-692.263
L250.599,-688.514
L262.771,-684.542
L274.878,-680.347
L286.916,-675.931
L298.88,-671.296
L310.767,-666.441
L322.572,-661.369
L334.29,-656.082
L345.919,-650.58
L357.455,-644.865
L368.892,-638.939
L380.227,-632.803
L391.456,-626.46
L402.575,-619.911
L413.581,-613.159
L424.469,-606.205
L435.236,-599.051
L445.878,-591.7
L456.391,-584.154
L466.771,-576.415
L477.016,-568.485
L487.12,-560.367
L497.082,-552.065
L506.896,-543.579
L516.56,-534.914
L526.071,-526.071
L535.425,-517.054
L544.618,-507.865
L553.648,-498.507
L562.511,-488.984
L571.205,-479.298
L579.725,-469.452
L588.07,-459.451
L596.236,-449.296
L604.22,-438.992
L612.02,-428.541
L619.632,-417.948
L627.054,-407.214
L634.284,-396.345
L641.319,-385.343
L648.156,-374.213
L654.792,-362.957
L661.227,-351.581
L667.456,-340.086
L673.479,-328.478
L679.292,-316.759
L684.895,-304.935
L690.284,-293.008
L695.458,-280.983
L700.416,-268.865
L705.154,-256.655
L709.673,-244.36
L713.969,-231.983
L718.042,-219.527
L721.89,-206.999
L725.512,-194.4
L728.906,-181.737
L732.071,-169.012
L735.006,-156.23
L737.711,-143.396
L740.183,-130.514
L742.423,-117.588
L744.429,-104.623
L746.201,-91.6221
L747.738,-78.5903
L749.039,-65.5322
L750.104,-52.4526
L750.933,-39.3547
L751.526,-26.2439
L751.881,-13.124
L752,0
L751.881,13.124
L751.526,26.2439
L750.933,39.3547
L750.104,52.4526
L749.039,65.5322
L747.738,78.5903
L746.201,91.6221
L744.429,104.623
L742.423,117.588
L740.183,130.514
L737.711,143.396
L735.006,156.23
L732.071,169.012
L728.906,181.737
L725.512,194.4
L721.89,206.999
L718.042,219.527
L713.969,231.983
L709.673,244.36
L705.154,256.655
L700.416,268.865
L695.458,280.983
L690.284,293.008
L684.895,304.935
L679.292,316.759
L673.479,328.478
L667.456,340.086
L661.227,351.581
L654.792,362.957
L648.156,374.213
L641.319,385.343
L634.284,396.345
L627.054,407.214
L619.632,417.948
L612.02,428.541
L604.22,438.992
L596.236,449.296
L588.07,459.451
L579.725,469.452
L571.205,479.298
L562.511,488.984
L553.648,498.507
L544.618,507.865
L535.425,517.054
L526.071,526.071
L516.56,534.914
L506.896,543.579
L497.082,552.065
L487.12,560.367
L477.016,568.485
L466.771,576.415
L456.391,584.154
L445.878,591.7
L435.236,599.051
L424.469,606.205
L413.581,613.159
L402.575,619.911
L391.456,626.46
L380.227,632.803
L368.892,638.939
L357.455,644.865
L345.919,650.58
L334.29,656.082
L322.572,661.369
L310.767,666.441
L298.88,671.296
L286.916,675.931
L274.878,680.347
L262.771,684.542
L250.599,688.514
L238.365,692.263
L226.075,695.788
L213.733,699.088
L201.342,702.162
L188.907,705.009
L176.432,707.63
L163.922,710.022
L151.38,712.187
L138.811,714.122
L126.22,715.829
L113.61,717.307
L100.986,718.556
L88.3528,719.576
L75.7136,720.366
L63.073,720.928
L50.4353,721.26
L37.8052,721.365
L25.1863,721.24
L12.5833,720.889
L0,720.31
L-12.5591,719.504
L-25.0896,718.473
L-37.5876,717.216
L-50.0491,715.736
L-62.4697,714.031
L-74.8455,712.105
L-87.1719,709.957
L-99.4451,707.589
L-111.662,705.002
L-123.816,702.198
L-135.906,699.178
L-147.927,695.943
L-159.875,692.494
L-171.746,688.835
L-183.536,684.965
L-195.241,680.887
L-206.858,676.603
L-218.383,672.115
L-229.813,667.424
L-241.142,662.533
L-252.369,657.444
L-263.489,652.158
L-274.499,646.679
L-285.395,641.008
L-296.174,635.148
L-306.833,629.101
L-317.368,622.87
L-327.776,616.457
L-338.054,609.865
L-348.198,603.097
L-358.206,596.155
L-368.074,589.042
L-377.8,581.76
L-387.38,574.314
L-396.812,566.706
L-406.092,558.938
L-415.219,551.014
L-424.189,542.937
L-433,534.709
L-441.648,526.335
L-450.132,517.818
L-458.45,509.16
L-466.598,500.365
L-474.575,491.437
L-482.378,482.378
L-490.005,473.193
L-497.455,463.884
L-504.724,454.456
L-511.811,444.911
L-518.715,435.254
L-525.432,425.487
L-531.963,415.615
L-538.304,405.641
L-544.454,395.57
L-550.413,385.403
L-556.177,375.146
L-561.747,364.803
L-567.12,354.376
L-572.295,343.87
L-577.272,333.288
L-582.049,322.635
L-586.625,311.914
L-591,301.129
L-595.171,290.284
L-599.139,279.383
L-602.904,268.43
L-606.463,257.428
L-609.817,246.382
L-612.966,235.296
L-615.908,224.172
L-618.644,213.016
L-621.173,201.832
L-623.495,190.622
L-625.61,179.391
L-627.519,168.143
L-629.22,156.882
L-630.714,145.612
L-632.002,134.336
L-633.084,123.059
L-633.959,111.784
L-634.629,100.516
L-635.094,89.2566
L-635.355,78.0117
L-635.412,66.7847
L-635.265,55.5786
L-634.916,44.3977
L-634.366,33.2456
L-633.615,22.1262
L-632.665,11.0432
L-631.517,0
L-630.17,-10.9995
L-628.628,-21.9521
L-626.891,-32.854
L-624.961,-43.7014
L-622.838,-54.4912
L-620.525,-65.2197
L-618.022,-75.8835
L-615.333,-86.4795
L-612.457,-97.0037
L-609.397,-107.453
L-606.155,-117.824
L-602.732,-128.115
L-599.13,-138.32
L-595.353,-148.438
L-591.4,-158.465
L-587.275,-168.398
L-582.979,-178.235
L-578.515,-187.971
L-573.885,-197.604
L-569.092,-207.133
L-564.136,-216.552
L-559.022,-225.86
L-553.752,-235.054
L-548.327,-244.131
L-542.75,-253.089
L-537.025,-261.925
L-531.154,-270.636
L-525.138,-279.221
L-518.981,-287.676
L-512.687,-296
L-506.257,-304.19
L-499.694,-312.243
L-493.001,-320.159
L-486.181,-327.934
L-479.237,-335.566
L-472.173,-343.054
L-464.99,-350.395
L-457.692,-357.589
L-450.282,-364.632
L-442.764,-371.523
L-435.139,-378.261
L-427.412,-384.844
L-419.586,-391.27
L-411.663,-397.538
L-403.647,-403.647
L-395.541,-409.594
L-387.348,-415.38
L-379.072,-421.002
L-370.716,-426.459
L-362.283,-431.751
L-353.776,-436.877
L-345.199,-441.834
L-336.555,-446.624
L-327.848,-451.243
L-319.08,-455.693
L-310.255,-459.972
L-301.377,-464.08
L-292.449,-468.016
L-283.473,-471.779
L-274.455,-475.369
L-265.396,-478.786
L-256.3,-482.03
L-247.171,-485.099
L-238.011,-487.995
L-228.825,-490.717
L-219.616,-493.265
L-210.386,-495.638
L-201.14,-497.838
L-191.88,-499.864
L-182.61,-501.716
L-173.333,-503.396
L-164.053,-504.902
L-154.772,-506.236
L-145.494,-507.397
L-136.222,-508.387
L-126.96,-509.207
L-117.71,-509.856
L-108.475,-510.335
L-99.2595,-510.646
L-90.0659,-510.789
L-80.8972,-510.765
L-71.7566,-510.574
L-62.647,-510.219
L-53.5715,-509.7
L-44.5334,-509.018
L-35.5352,-508.174
L-26.5796,-507.169
L-17.6699,-506.006
L-8.80933,-504.684
L0,-503.207
L8.75513,-501.573
L17.4529,-499.787
L26.0911,-497.848
L34.667,-495.759
L43.1775,-493.521
L51.6206,-491.136
L59.9932,-488.606
L68.2932,-485.932
L76.5181,-483.116
L84.6653,-480.16
L92.7324,-477.066
L100.717,-473.836
L108.617,-470.471
L116.43,-466.975
L124.154,-463.348
L131.786,-459.594
L139.325,-455.713
L146.769,-451.708
L154.115,-447.583
L161.362,-443.337
L168.507,-438.975
L175.549,-434.498
L182.486,-429.908
L189.315,-425.209
L196.036,-420.401
L202.647,-415.489
L209.146,-410.473
L215.532,-405.357
L221.802,-400.142
L227.957,-394.833
L233.993,-389.43
L239.91,-383.937
L245.707,-378.355
L251.382,-372.689
L256.934,-366.939
L262.362,-361.11
L267.665,-355.203
L272.841,-349.221
L277.891,-343.166
L282.812,-337.042
L287.605,-330.851
L292.268,-324.596
L296.8,-318.279
L301.201,-311.903
L305.47,-305.47
L309.607,-298.984
L313.61,-292.447
L317.481,-285.861
L321.218,-279.23
L324.82,-272.556
L328.287,-265.842
L331.62,-259.09
L334.818,-252.303
L337.88,-245.485
L340.807,-238.636
L343.599,-231.761
L346.256,-224.861
L348.777,-217.94
L351.162,-211
L353.413,-204.043
L355.529,-197.073
L357.51,-190.091
L359.356,-183.102
L361.069,-176.105
L362.648,-169.106
L364.094,-162.105
L365.407,-155.106
L366.588,-148.111
L367.638,-141.123
L368.557,-134.144
L369.345,-127.176
L370.004,-120.222
L370.534,-113.284
L370.936,-106.364
L371.211,-99.4658
L371.36,-92.5906
L371.384,-85.7407
L371.283,-78.9187
L371.059,-72.1267
L370.713,-65.3667
L370.246,-58.6414
L369.659,-51.9524
L368.954,-45.3018
L368.13,-38.6921
L367.19,-32.125
L366.136,-25.6025
L364.967,-19.1272
L363.686,-12.7004
L362.294,-6.32373
L360.793,0
L359.184,6.26953
L357.467,12.4829
L355.646,18.6387
L353.721,24.7346
L351.694,30.7693
L349.567,36.741
L347.34,42.6482
L345.017,48.4888
L342.597,54.262
L340.084,59.9663
L337.479,65.5994
L334.784,71.1606
L331.999,76.6482
L329.128,82.061
L326.172,87.3977
L323.132,92.6567
L320.011,97.8374
L316.811,102.938
L313.532,107.958
L310.178,112.896
L306.749,117.75
L303.248,122.52
L299.677,127.206
L296.038,131.805
L292.333,136.317
L288.562,140.741
L284.73,145.077
L280.837,149.323
L276.885,153.48
L272.876,157.545
L268.813,161.52
L264.698,165.402
L260.531,169.191
L256.316,172.887
L252.053,176.49
L247.747,179.999
L243.397,183.413
L239.006,186.732
L234.577,189.957
L230.11,193.086
L225.609,196.119
L221.075,199.057
L216.509,201.898
L211.915,204.644
L207.293,207.293
L202.647,209.846
L197.976,212.303
L193.285,214.664
L188.574,216.929
L183.845,219.098
L179.101,221.171
L174.343,223.149
L169.573,225.031
L164.792,226.817
L160.004,228.51
L155.209,230.107
L150.409,231.61
L145.607,233.02
L140.803,234.335
L136,235.559
L131.199,236.689
L126.403,237.728
L121.611,238.676
L116.828,239.532
L112.053,240.299
L107.29,240.976
L102.538,241.564
L97.8003,242.064
L93.0781,242.477
L88.3728,242.802
L83.6863,243.042
L79.0195,243.197
L74.3745,243.268
L69.7524,243.255
L65.1545,243.159
L60.5823,242.983
L56.0374,242.725
L51.521,242.387
L47.0344,241.971
L42.5789,241.477
L38.1558,240.906
L33.7661,240.259
L29.4116,239.537
L25.0928,238.742
L20.8113,237.874
L16.5681,236.934
L12.3643,235.924
L8.20093,234.845
L4.07935,233.698
L0,232.483
L-4.03564,231.203
L-8.02686,229.858
L-11.9727,228.449
L-15.8721,226.979
L-19.7239,225.447
L-23.5281,223.855
L-27.2832,222.205
L-30.9888,220.497
L-34.644,218.733
L-38.248,216.914
L-41.7998,215.042
L-45.2993,213.117
L-48.7458,211.141
L-52.1382,209.115
L-55.4763,207.041
L-58.7598,204.919
L-61.9875,202.752
L-65.1592,200.54
L-68.2747,198.284
L-71.3333,195.986
L-74.3345,193.647
L-77.2778,191.269
L-80.1633,188.853
L-82.9905,186.399
L-85.7588,183.91
L-88.4683,181.387
L-91.1184,178.83
L-93.7095,176.241
L-96.2402,173.622
L-98.7117,170.973
L-101.123,168.297
L-103.474,165.594
L-105.766,162.864
L-107.996,160.111
L-110.167,157.334
L-112.277,154.536
L-114.327,151.717
L-116.317,148.878
L-118.246,146.021
L-120.115,143.147
L-121.924,140.257
L-123.673,137.353
L-125.362,134.435
L-126.992,131.504
L-128.562,128.562
L-130.073,125.61
L-131.524,122.648
L-132.917,119.679
L-134.251,116.702
L-135.527,113.72
L-136.744,110.733
L-137.904,107.743
L-139.007,104.75
L-140.052,101.754
L-141.041,98.7583
L-141.974,95.7627
L-142.85,92.7683
L-143.671,89.7759
L-144.437,86.7869
L-145.149,83.8018
L-145.806,80.8215
L-146.409,77.8472
L-146.959,74.8796
L-147.457,71.9194
L-147.902,68.9678
L-148.295,66.0254
L-148.637,63.0928
L-148.928,60.1709
L-149.169,57.2607
L-149.361,54.363
L-149.504,51.4783
L-149.597,48.6072
L-149.644,45.7507
L-149.642,42.9094
L-149.594,40.0837
L-149.5,37.2749
L-149.361,34.4829
L-149.176,31.7085
L-148.948,28.9526
L-148.675,26.2153
L-148.36,23.498
L-148.002,20.8003
L-147.602,18.1233
L-147.162,15.4673
L-146.68,12.8328
L-146.159,10.2205
L-145.599,7.63037
L-145,5.06348
L-144.364,2.52002
L-143.69,0
L-142.979,-2.49585
L-142.233,-4.96704
L-141.451,-7.41333
L-140.635,-9.83423
L-139.784,-12.2297
L-138.9,-14.5989
L-137.984,-16.9421
L-137.035,-19.259
L-136.055,-21.5491
L-135.044,-23.812
L-134.003,-26.0476
L-132.933,-28.2559
L-131.833,-30.4363
L-130.705,-32.5886
L-129.55,-34.7129
L-128.368,-36.8091
L-127.159,-38.8765
L-125.924,-40.9153
L-124.664,-42.9255
L-123.38,-44.9067
L-122.071,-46.8589
L-120.74,-48.782
L-119.384,-50.6758
L-118.007,-52.5403
L-116.608,-54.3755
L-115.188,-56.1812
L-113.747,-57.9573
L-112.286,-59.7039
L-110.806,-61.4209
L-109.307,-63.1084
L-107.789,-64.7661
L-106.253,-66.3943
L-104.699,-67.9927
L-103.129,-69.5615
L-101.542,-71.1006
L-99.9392,-72.6101
L-98.3206,-74.0901
L-96.6873,-75.5408
L-95.0391,-76.9614
L-93.3772,-78.3528
L-91.7009,-79.7146
L-90.0117,-81.0474
L-88.3098,-82.3503
L-86.5955,-83.6243
L-84.8689,-84.8689
L-83.1311,-86.0847
L-81.3818,-87.271
L-79.6216,-88.4287
L-77.8513,-89.5574
L-76.0706,-90.657
L-74.2803,-91.728
L-72.4807,-92.7708
L-70.6719,-93.7847
L-68.8545,-94.77
L-67.0291,-95.7273
L-65.1953,-96.6558
L-63.3542,-97.5564
L-61.5054,-98.4287
L-59.6497,-99.2732
L-57.7871,-100.09
L-55.9182,-100.879
L-54.043,-101.64
L-52.1616,-102.373
L-50.2749,-103.079
L-48.3828,-103.757
L-46.4856,-104.408
L-44.5833,-105.031
L-42.6765,-105.628
L-40.7654,-106.198
L-38.8501,-106.74
L-36.9307,-107.255
L-35.0081,-107.743
L-33.0818,-108.205
L-31.1519,-108.64
L-29.2192,-109.048
L-27.2837,-109.429
L-25.3457,-109.784
L-23.405,-110.113
L-21.4624,-110.415
L-19.5176,-110.69
L-17.571,-110.939
L-15.6228,-111.162
L-13.6733,-111.358
L-11.7222,-111.529
L-9.77026,-111.673
L-7.81714,-111.79
L-5.86353,-111.882
L-3.90942,-111.948
L-1.95483,-111.987
L0,-112
L1.95483,-111.987
L3.90942,-111.948
L5.86353,-111.882
L7.81714,-111.79
L9.77026,-111.673
L11.7222,-111.529
L13.6733,-111.358
L15.6228,-111.162
L17.571,-110.939
L19.5176,-110.69
L21.4624,-110.415
L23.405,-110.113
L25.3457,-109.784
L27.2837,-109.429
L29.2192,-109.048
L31.1519,-108.64
L33.0818,-108.205
L35.0081,-107.743
L36.9307,-107.255
L38.8501,-106.74
L40.7654,-106.198
L42.6765,-105.628
L44.5833,-105.031
L46.4856,-104.408
L48.3828,-103.757
L50.2749,-103.079
L52.1616,-102.373
L54.043,-101.64
L55.9182,-100.879
L57.7871,-100.09
L59.6497,-99.2732
L61.5054,-98.4287
L63.3542,-97.5564
L65.1953,-96.6558
L67.0291,-95.7273
L68.8545,-94.77
L70.6719,-93.7847
L72.4807,-92.7708
L74.2803,-91.728
L76.0706,-90.657
L77.8513,-89.5574
L79.6216,-88.4287
L81.3818,-87.271
L83.1311,-86.0847
L84.8689,-84.8689
L86.5955,-83.6243
L88.3098,-82.3503
L90.0117,-81.0474
L91.7009,-79.7146
L93.377,-78.3525
L95.0391,-76.9614
L96.6873,-75.5408
L98.3206,-74.0901
L99.9392,-72.6101
L101.542,-71.1006
L103.129,-69.5615
L104.699,-67.9927
L106.253,-66.3943
L107.789,-64.7661
L109.307,-63.1084
L110.806,-61.4209
L112.286,-59.7039
L113.747,-57.9573
L115.188,-56.1812
L116.608,-54.3755
L118.007,-52.5403
L119.384,-50.6758
L120.739,-48.7817
L122.071,-46.8589
L123.38,-44.9067
L124.664,-42.9255
L125.924,-40.9155
L127.159,-38.8765
L128.368,-36.8091
L129.55,-34.7129
L130.705,-32.5886
L131.833,-30.4363
L132.933,-28.2559
L134.003,-26.0476
L135.044,-23.812
L136.055,-21.5491
L137.035,-19.259
L137.984,-16.9421
L138.9,-14.5989
L139.784,-12.2297
L140.635,-9.83423
L141.451,-7.41333
L142.233,-4.96704
L142.979,-2.49561
L143.69,0
L144.364,2.52002
L145,5.06348
L145.599,7.63062
L146.159,10.2205
L146.68,12.8328
L147.162,15.4673
L147.602,18.1233
L148.002,20.8003
L148.36,23.498
L148.675,26.2153
L148.948,28.9526
L149.176,31.7085
L149.361,34.4829
L149.5,37.2749
L149.594,40.0837
L149.642,42.9094
L149.644,45.7507
L149.597,48.6072
L149.504,51.4783
L149.361,54.363
L149.169,57.2607
L148.928,60.1709
L148.637,63.0925
L148.295,66.0254
L147.902,68.9678
L147.457,71.9194
L146.959,74.8796
L146.409,77.8472
L145.806,80.8215
L145.149,83.802
L144.438,86.7871
L143.671,89.7759
L142.85,92.7683
L141.974,95.7627
L141.041,98.7585
L140.052,101.754
L139.007,104.75
L137.904,107.743
L136.744,110.733
L135.527,113.72
L134.251,116.702
L132.917,119.679
L131.524,122.648
L130.072,125.609
L128.562,128.562
L126.992,131.504
L125.362,134.435
L123.673,137.353
L121.924,140.258
L120.115,143.147
L118.246,146.021
L116.317,148.878
L114.327,151.717
L112.277,154.536
L110.167,157.334
L107.996,160.111
L105.766,162.864
L103.474,165.594
L101.123,168.297
L98.7117,170.973
L96.2402,173.622
L93.7092,176.241
L91.1184,178.83
L88.4683,181.387
L85.7588,183.91
L82.9905,186.399
L80.1633,188.853
L77.2778,191.269
L74.3342,193.647
L71.3333,195.986
L68.2747,198.284
L65.1592,200.54
L61.9875,202.752
L58.7598,204.919
L55.4763,207.041
L52.1384,209.115
L48.7458,211.141
L45.2993,213.117
L41.7998,215.042
L38.2478,216.914
L34.644,218.733
L30.9888,220.497
L27.2834,222.204
L23.5281,223.855
L19.7239,225.447
L15.8718,226.978
L11.9727,228.449
L8.02686,229.858
L4.03564,231.203
L0,232.483
L-4.07935,233.698
L-8.20093,234.845
L-12.3643,235.924
L-16.5681,236.934
L-20.8113,237.874
L-25.0928,238.742
L-29.4114,239.537
L-33.7661,240.259
L-38.1558,240.906
L-42.5789,241.477
L-47.0344,241.971
L-51.521,242.387
L-56.0374,242.725
L-60.5825,242.982
L-65.1543,243.16
L-69.7524,243.255
L-74.3745,243.268
L-79.0195,243.197
L-83.6863,243.042
L-88.3728,242.802
L-93.0781,242.477
L-97.8003,242.064
L-102.538,241.564
L-107.289,240.976
L-112.053,240.299
L-116.828,239.532
L-121.611,238.676
L-126.402,237.728
L-131.199,236.689
L-136,235.559
L-140.803,234.335
L-145.607,233.02
L-150.409,231.61
L-155.209,230.107
L-160.004,228.509
L-164.793,226.818
L-169.573,225.031
L-174.343,223.149
L-179.101,221.171
L-183.845,219.098
L-188.574,216.929
L-193.285,214.664
L-197.977,212.304
L-202.647,209.846
L-207.293,207.293
L-211.915,204.644
L-216.509,201.898
L-221.075,199.057
L-225.609,196.119
L-230.11,193.086
L-234.577,189.957
L-239.006,186.732
L-243.397,183.413
L-247.747,179.999
L-252.053,176.49
L-256.315,172.887
L-260.531,169.191
L-264.698,165.402
L-268.813,161.52
L-272.876,157.545
L-276.885,153.48
L-280.837,149.323
L-284.73,145.077
L-288.563,140.741
L-292.333,136.317
L-296.038,131.805
L-299.677,127.206
L-303.248,122.52
L-306.749,117.75
L-310.177,112.895
L-313.532,107.958
L-316.811,102.938
L-320.011,97.8374
L-323.132,92.6567
L-326.172,87.3977
L-329.128,82.061
L-331.999,76.6482
L-334.784,71.1606
L-337.479,65.5994
L-340.084,59.9661
L-342.598,54.2622
L-345.017,48.4888
L-347.34,42.6482
L-349.566,36.7407
L-351.694,30.7693
L-353.721,24.7346
L-355.646,18.6387
L-357.468,12.4832
L-359.184,6.26953
L-360.793,0
L-362.294,-6.32373
L-363.687,-12.7002
L-364.967,-19.1272
L-366.135,-25.6028
L-367.19,-32.125
L-368.13,-38.6921
L-368.954,-45.3018
L-369.659,-51.9521
L-370.246,-58.6414
L-370.713,-65.3667
L-371.059,-72.1267
L-371.283,-78.9187
L-371.384,-85.7407
L-371.36,-92.5906
L-371.211,-99.4658
L-370.936,-106.365
L-370.534,-113.284
L-370.004,-120.222
L-369.345,-127.176
L-368.557,-134.144
L-367.638,-141.123
L-366.588,-148.111
L-365.407,-155.106
L-364.094,-162.105
L-362.648,-169.106
L-361.069,-176.105
L-359.356,-183.102
L-357.51,-190.091
L-355.529,-197.073
L-353.413,-204.043
L-351.162,-211
L-348.776,-217.94
L-346.256,-224.861
L-343.599,-231.761
L-340.807,-238.636
L-337.88,-245.485
L-334.818,-252.303
L-331.62,-259.09
L-328.287,-265.842
L-324.82,-272.556
L-321.218,-279.23
L-317.481,-285.861
L-313.61,-292.447
L-309.607,-298.984
L-305.47,-305.47
L-301.201,-311.903
L-296.8,-318.279
L-292.268,-324.596
L-287.605,-330.851
L-282.812,-337.042
L-277.891,-343.166
L-272.841,-349.221
L-267.665,-355.203
L-262.362,-361.11
L-256.934,-366.939
L-251.382,-372.689
L-245.707,-378.355
L-239.91,-383.937
L-233.993,-389.43
L-227.957,-394.832
L-221.802,-400.142
L-215.532,-405.357
L-209.146,-410.473
L-202.647,-415.488
L-196.037,-420.401
L-189.315,-425.209
L-182.485,-429.908
L-175.549,-434.498
L-168.507,-438.975
L-161.362,-443.337
L-154.115,-447.583
L-146.769,-451.708
L-139.325,-455.713
L-131.786,-459.594
L-124.154,-463.348
L-116.43,-466.975
L-108.617,-470.471
L-100.717,-473.836
L-92.7324,-477.066
L-84.6653,-480.16
L-76.5181,-483.116
L-68.2932,-485.932
L-59.9932,-488.606
L-51.6206,-491.136
L-43.1775,-493.521
L-34.667,-495.759
L-26.0911,-497.848
L-17.4529,-499.787
L-8.75513,-501.573
L0,-503.207
L8.80933,-504.684
L17.6702,-506.006
L26.5796,-507.169
L35.5352,-508.174
L44.5334,-509.018
L53.5715,-509.7
L62.647,-510.219
L71.7566,-510.574
L80.8972,-510.765
L90.0659,-510.789
L99.2595,-510.646
L108.475,-510.335
L117.709,-509.856
L126.96,-509.207
L136.222,-508.387
L145.494,-507.397
L154.772,-506.236
L164.053,-504.902
L173.333,-503.396
L182.61,-501.717
L191.88,-499.864
L201.14,-497.838
L210.386,-495.638
L219.616,-493.265
L228.825,-490.717
L238.011,-487.995
L247.171,-485.099
L256.3,-482.03
L265.396,-478.786
L274.455,-475.369
L283.473,-471.779
L292.449,-468.016
L301.377,-464.08
L310.256,-459.972
L319.08,-455.693
L327.848,-451.243
L336.555,-446.624
L345.199,-441.834
L353.776,-436.877
L362.283,-431.751
L370.716,-426.459
L379.072,-421.002
L387.348,-415.38
L395.541,-409.594
L403.647,-403.647
L411.663,-397.538
L419.585,-391.27
L427.412,-384.844
L435.139,-378.261
L442.764,-371.523
L450.282,-364.632
L457.692,-357.589
L464.99,-350.395
L472.173,-343.054
L479.238,-335.566
L486.181,-327.934
L493.001,-320.159
L499.694,-312.243
L506.257,-304.19
L512.687,-296
L518.981,-287.676
L525.138,-279.221
L531.154,-270.636
L537.025,-261.925
L542.75,-253.089
L548.327,-244.131
L553.752,-235.054
L559.022,-225.86
L564.136,-216.552
L569.092,-207.133
L573.885,-197.604
L578.515,-187.971
L582.979,-178.235
L587.275,-168.398
L591.4,-158.465
L595.353,-148.438
L599.13,-138.32
L602.732,-128.115
L606.155,-117.824
L609.397,-107.453
L612.457,-97.0037
L615.332,-86.4792
L618.022,-75.8838
L620.525,-65.2197
L622.838,-54.4912
L624.961,-43.7014
L626.891,-32.854
L628.628,-21.9521
L630.17,-10.9995
L631.517,0
L632.665,11.0432
L633.615,22.1262
L634.366,33.2456
L634.917,44.3979
L635.265,55.5786
L635.411,66.7844
L635.355,78.0117
L635.094,89.2566
L634.629,100.516
L633.959,111.784
L633.084,123.059
L632.002,134.336
L630.714,145.612
L629.22,156.882
L627.519,168.143
L625.61,179.391
L623.495,190.622
L621.173,201.832
L618.644,213.016
L615.908,224.172
L612.966,235.296
L609.817,246.382
L606.463,257.428
L602.904,268.43
L599.139,279.384
L595.171,290.284
L591,301.129
L586.625,311.914
L582.049,322.635
L577.272,333.288
L572.295,343.87
L567.12,354.376
L561.747,364.803
L556.177,375.146
L550.413,385.403
L544.454,395.57
L538.304,405.641
L531.963,415.615
L525.432,425.487
L518.715,435.254
L511.811,444.911
L504.724,454.456
L497.455,463.884
L490.005,473.193
L482.378,482.378
L474.575,491.437
L466.598,500.365
L458.45,509.16
L450.133,517.818
L441.648,526.335
L433,534.709
L424.189,542.937
L415.219,551.014
L406.092,558.938
L396.812,566.706
L387.38,574.314
L377.8,581.76
L368.074,589.042
L358.206,596.155
L348.198,603.097
L338.054,609.865
L327.776,616.457
L317.368,622.87
L306.833,629.101
L296.175,635.148
L285.395,641.008
L274.499,646.679
L263.489,652.158
L252.369,657.444
L241.142,662.533
L229.813,667.424
L218.383,672.115
L206.858,676.603
L195.241,680.887
L183.536,684.965
L171.746,688.834
L159.875,692.494
L147.927,695.943
L135.906,699.178
L123.817,702.198
L111.662,705.002
L99.4451,707.589
L87.1719,709.957
L74.8452,712.105
L62.4697,714.031
L50.0491,715.736
L37.5876,717.216
L25.0896,718.473
L12.5591,719.504
L0,720.31
L-12.5833,720.889
L-25.1863,721.24
L-37.8049,721.365
L-50.4353,721.26
L-63.073,720.928
L-75.7136,720.366
L-88.3528,719.576
L-100.987,718.556
L-113.61,717.307
L-126.22,715.829
L-138.811,714.122
L-151.38,712.187
L-163.922,710.022
L-176.432,707.63
L-188.907,705.009
L-201.342,702.162
L-213.733,699.088
L-226.075,695.788
L-238.365,692.263
L-250.599,688.514
L-262.771,684.542
L-274.878,680.347
L-286.916,675.931
L-298.88,671.296
L-310.767,666.441
L-322.572,661.369
L-334.29,656.082
L-345.919,650.58
L-357.455,644.865
L-368.892,638.939
L-380.227,632.803
L-391.456,626.46
L-402.575,619.911
L-413.581,613.159
L-424.469,606.205
L-435.236,599.051
L-445.878,591.7
L-456.391,584.154
L-466.771,576.415
L-477.016,568.485
L-487.12,560.367
L-497.082,552.065
L-506.896,543.579
L-516.56,534.914
L-526.071,526.071
L-535.425,517.054
L-544.618,507.865
L-553.648,498.507
L-562.511,488.984
L-571.205,479.298
L-579.725,469.452
L-588.07,459.451
L-596.236,449.296
L-604.22,438.992
L-612.02,428.541
L-619.632,417.948
L-627.054,407.214
L-634.284,396.345
L-641.319,385.343
L-648.156,374.213
L-654.792,362.958
L-661.227,351.581
L-667.456,340.086
L-673.479,328.478
L-679.292,316.759
L-684.895,304.935
L-690.284,293.008
L-695.458,280.983
L-700.416,268.865
L-705.154,256.655
L-709.673,244.36
L-713.969,231.983
L-718.042,219.527
L-721.89,206.999
L-725.512,194.4
L-728.906,181.737
L-732.071,169.012
L-735.006,156.23
L-737.711,143.396
L-740.183,130.514
L-742.423,117.588
L-744.429,104.623
L-746.201,91.6221
L-747.738,78.5903
L-749.039,65.5322
L-750.104,52.4526
L-750.933,39.3547
L-751.526,26.2439
L-751.881,13.124
L-752,0
L-751.881,-13.124
L-751.526,-26.2439
L-750.933,-39.3547
L-750.104,-52.4526
L-749.039,-65.5322
L-747.738,-78.5903
L-746.201,-91.6221
L-744.429,-104.623
L-742.423,-117.588
L-740.183,-130.514
L-737.711,-143.396
L-735.006,-156.23
L-732.071,-169.012
L-728.906,-181.737
L-725.512,-194.4
L-721.89,-206.999
L-718.042,-219.527
L-713.969,-231.983
L-709.673,-244.36
L-705.154,-256.655
L-700.416,-268.865
L-695.458,-280.983
L-690.284,-293.008
L-684.895,-304.935
L-679.292,-316.759
L-673.479,-328.478
L-667.456,-340.086
L-661.227,-351.581
L-654.792,-362.958
L-648.156,-374.213
L-641.319,-385.343
L-634.284,-396.345
L-627.054,-407.214
L-619.632,-417.948
L-612.02,-428.541
L-604.22,-438.992
L-596.236,-449.296
L-588.07,-459.451
L-579.725,-469.452
L-571.205,-479.298
L-562.511,-488.984
L-553.648,-498.507
L-544.618,-507.865
L-535.425,-517.054
L-526.071,-526.071
L-516.56,-534.914
L-506.896,-543.579
L-497.082,-552.065
L-487.12,-560.367
L-477.016,-568.485
L-466.771,-576.415
L-456.391,-584.154
L-445.878,-591.7
L-435.236,-599.051
L-424.469,-606.205
L-413.581,-613.159
L-402.575,-619.911
L-391.456,-626.46
L-380.227,-632.803
L-368.892,-638.939
L-357.455,-644.865
L-345.919,-650.58
L-334.29,-656.082
L-322.572,-661.369
L-310.767,-666.441
L-298.88,-671.296
L-286.916,-675.931
L-274.878,-680.347
L-262.771,-684.542
L-250.599,-688.514
L-238.365,-692.263
L-226.075,-695.788
L-213.733,-699.088
L-201.342,-702.162
L-188.907,-705.009
L-176.432,-707.63
L-163.922,-710.022
L-151.38,-712.187
L-138.811,-714.122
L-126.22,-715.829
L-113.61,-717.307
L-100.987,-718.556
L-88.3528,-719.576
L-75.7136,-720.366
L-63.073,-720.928
L-50.4353,-721.26
L-37.8049,-721.365
L-25.1863,-721.24
L-12.5833,-720.889
L0,-720.31
L12.5591,-719.504
L25.0896,-718.473
L37.5876,-717.216
L50.0491,-715.736
L62.4697,-714.031
L74.8452,-712.105
L87.1719,-709.957
L99.4451,-707.589
L111.662,-705.002
L123.817,-702.198
L135.906,-699.178
L147.927,-695.943
L159.875,-692.494
L171.746,-688.834
L183.536,-684.965
L195.241,-680.887
L206.858,-676.603
L218.383,-672.115
L229.813,-667.424
L241.142,-662.533
L252.369,-657.444
L263.489,-652.158
L274.499,-646.679
L285.395,-641.008
L296.175,-635.148
L306.833,-629.101
L317.368,-622.87
L327.776,-616.457
L338.054,-609.865
L348.198,-603.097
L358.206,-596.155
L368.074,-589.042
L377.8,-581.76
L387.38,-574.314
L396.812,-566.706
L406.092,-558.938
L415.219,-551.014
L424.189,-542.937
L433,-534.709
L441.648,-526.335
L450.133,-517.818
L458.45,-509.16
L466.598,-500.365
L474.575,-491.437
L482.378,-482.378
L490.005,-473.193
L497.455,-463.884
L504.724,-454.456
L511.811,-444.911
L518.715,-435.254
L525.432,-425.487
L531.963,-415.615
L538.304,-405.641
L544.454,-395.57
L550.413,-385.403
L556.177,-375.146
L561.747,-364.803
L567.12,-354.376
L572.295,-343.87
L577.272,-333.288
L582.049,-322.635
L586.625,-311.914
L591,-301.129
L595.171,-290.284
L599.139,-279.384
L602.904,-268.43
L606.463,-257.428
L609.817,-246.382
L612.966,-235.296
L615.908,-224.172
L618.644,-213.016
L621.173,-201.832
L623.495,-190.622
L625.61,-179.391
L627.519,-168.143
L629.22,-156.882
L630.714,-145.612
L632.002,-134.336
L633.084,-123.059
L633.959,-111.784
L634.629,-100.516
L635.094,-89.2566
L635.355,-78.0117
L635.411,-66.7844
L635.265,-55.5786
L634.917,-44.3979
L634.366,-33.2456
L633.615,-22.1262
L632.665,-11.0432
L631.517,0
L630.17,10.9995
L628.628,21.9521
L626.891,32.854
L624.961,43.7014
L622.838,54.4912
L620.525,65.2197
L618.022,75.8838
L615.332,86.4792
L612.457,97.0037
L609.397,107.453
L606.155,117.824
L602.732,128.115
L599.13,138.32
L595.353,148.438
L591.4,158.465
L587.275,168.398
L582.979,178.235
L578.515,187.971
L573.885,197.604
L569.092,207.133
L564.136,216.552
L559.022,225.86
L553.752,235.054
L548.327,244.131
L542.75,253.089
L537.025,261.925
L531.154,270.636
L525.138,279.221
L518.981,287.676
L512.687,296
L506.257,304.19
L499.694,312.243
L493.001,320.159
L486.181,327.934
L479.238,335.566
L472.173,343.054
L464.99,350.395
L457.692,357.589
L450.283,364.632
L442.764,371.523
L435.139,378.261
L427.412,384.844
L419.585,391.27
L411.663,397.538
L403.647,403.647
L395.541,409.594
L387.348,415.38
L379.072,421.002
L370.716,426.459
L362.283,431.751
L353.776,436.877
L345.199,441.834
L336.555,446.624
L327.848,451.244
L319.08,455.693
L310.255,459.972
L301.377,464.08
L292.449,468.016
L283.473,471.779
L274.455,475.369
L265.396,478.786
L256.3,482.029
L247.17,485.099
L238.011,487.995
L228.825,490.717
L219.616,493.265
L210.386,495.638
L201.14,497.838
L191.88,499.864
L182.61,501.716
L173.333,503.396
L164.053,504.902
L154.772,506.236
L145.494,507.397
L136.222,508.388
L126.959,509.207
L117.71,509.856
L108.475,510.335
L99.2595,510.646
L90.0659,510.789
L80.8972,510.765
L71.7568,510.575
L62.647,510.219
L53.5715,509.7
L44.5334,509.018
L35.5352,508.174
L26.5796,507.169
L17.6702,506.006
L8.80908,504.685
L0,503.207
L-8.75488,501.573
L-17.4529,499.787
L-26.0911,497.848
L-34.667,495.759
L-43.1777,493.521
L-51.6204,491.136
L-59.9934,488.606
L-68.2935,485.932
L-76.5181,483.116
L-84.6653,480.16
L-92.7324,477.066
L-100.717,473.836
L-108.617,470.471
L-116.43,466.975
L-124.154,463.348
L-131.786,459.594
L-139.325,455.713
L-146.769,451.708
L-154.115,447.583
L-161.362,443.337
L-168.507,438.975
L-175.549,434.498
L-182.485,429.908
L-189.315,425.209
L-196.037,420.401
L-202.647,415.489
L-209.147,410.473
L-215.532,405.356
L-221.802,400.142
L-227.957,394.832
L-233.993,389.43
L-239.91,383.937
L-245.707,378.355
L-251.382,372.689
L-256.934,366.939
L-262.362,361.11
L-267.665,355.203
L-272.841,349.221
L-277.891,343.166
L-282.813,337.042
L-287.605,330.851
L-292.268,324.596
L-296.8,318.279
L-301.201,311.903
L-305.47,305.47
L-309.607,298.984
L-313.611,292.447
L-317.481,285.861
L-321.217,279.23
L-324.819,272.556
L-328.287,265.842
L-331.62,259.09
L-334.818,252.303
L-337.88,245.485
L-340.808,238.636
L-343.599,231.761
L-346.256,224.861
L-348.776,217.94
L-351.162,211
L-353.413,204.043
L-355.529,197.073
L-357.51,190.092
L-359.356,183.101
L-361.069,176.105
L-362.648,169.106
L-364.094,162.105
L-365.407,155.106
L-366.589,148.112
L-367.638,141.123
L-368.556,134.144
L-369.345,127.176
L-370.004,120.222
L-370.534,113.284
L-370.936,106.365
L-371.211,99.4658
L-371.361,92.5906
L-371.384,85.7407
L-371.283,78.9189
L-371.059,72.1267
L-370.713,65.3667
L-370.246,58.6414
L-369.659,51.9524
L-368.954,45.3018
L-368.13,38.6919
L-367.19,32.125
L-366.135,25.6028
L-364.967,19.1272
L-363.687,12.7002
L-362.295,6.32397
L-360.793,0
L-359.184,-6.26953
L-357.467,-12.4829
L-355.646,-18.6387
L-353.721,-24.7346
L-351.694,-30.7693
L-349.567,-36.741
L-347.34,-42.6479
L-345.016,-48.489
L-342.597,-54.262
L-340.084,-59.9661
L-337.479,-65.5994
L-334.784,-71.1606
L-332,-76.6482
L-329.128,-82.061
L-326.172,-87.3975
L-323.132,-92.6567
L-320.011,-97.8374
L-316.811,-102.938
L-313.532,-107.958
L-310.178,-112.896
L-306.749,-117.75
L-303.248,-122.52
L-299.677,-127.206
L-296.038,-131.805
L-292.333,-136.317
L-288.563,-140.741
L-284.73,-145.077
L-280.837,-149.324
L-276.885,-153.48
L-272.876,-157.545
L-268.813,-161.52
L-264.698,-165.402
L-260.531,-169.191
L-256.316,-172.887
L-252.053,-176.49
L-247.747,-179.999
L-243.397,-183.413
L-239.006,-186.732
L-234.577,-189.957
L-230.11,-193.086
L-225.609,-196.119
L-221.075,-199.057
L-216.509,-201.898
L-211.915,-204.644
L-207.293,-207.293
L-202.647,-209.846
L-197.977,-212.304
L-193.285,-214.665
L-188.574,-216.929
L-183.845,-219.098
L-179.101,-221.171
L-174.343,-223.149
L-169.573,-225.031
L-164.793,-226.818
L-160.004,-228.51
L-155.209,-230.107
L-150.409,-231.61
L-145.607,-233.019
L-140.803,-234.335
L-136,-235.559
L-131.199,-236.689
L-126.403,-237.728
L-121.611,-238.676
L-116.828,-239.532
L-112.053,-240.299
L-107.289,-240.976
L-102.538,-241.564
L-97.8003,-242.064
L-93.0781,-242.477
L-88.373,-242.803
L-83.6863,-243.042
L-79.0195,-243.197
L-74.3745,-243.268
L-69.7524,-243.255
L-65.1543,-243.16
L-60.5823,-242.983
L-56.0374,-242.725
L-51.521,-242.387
L-47.0344,-241.971
L-42.5789,-241.477
L-38.1558,-240.906
L-33.7661,-240.259
L-29.4116,-239.537
L-25.0928,-238.742
L-20.8113,-237.874
L-16.5679,-236.934
L-12.3643,-235.924
L-8.20093,-234.845
L-4.07935,-233.698
L0,-232.483
L4.03564,-231.203
L8.02686,-229.857
L11.9727,-228.449
L15.8718,-226.978
L19.7239,-225.447
L23.5281,-223.855
L27.2832,-222.205
L30.989,-220.497
L34.6438,-218.733
L38.2478,-216.914
L41.7998,-215.042
L45.2993,-213.117
L48.7458,-211.141
L52.1382,-209.115
L55.4766,-207.041
L58.7595,-204.919
L61.9875,-202.752
L65.1592,-200.54
L68.2747,-198.284
L71.3333,-195.986
L74.3345,-193.647
L77.2781,-191.269
L80.1633,-188.853
L82.9905,-186.399
L85.7588,-183.91
L88.4683,-181.387
L91.1184,-178.83
L93.7092,-176.241
L96.2402,-173.622
L98.7117,-170.973
L101.123,-168.297
L103.474,-165.594
L105.766,-162.864
L107.996,-160.111
L110.167,-157.334
L112.277,-154.536
L114.327,-151.717
L116.316,-148.878
L118.246,-146.021
L120.115,-143.147
L121.924,-140.258
L123.673,-137.353
L125.362,-134.435
L126.992,-131.504
L128.562,-128.562
L130.072,-125.609
L131.524,-122.648
L132.917,-119.679
L134.251,-116.703
L135.527,-113.72
L136.744,-110.733
L137.904,-107.743
L139.007,-104.75
L140.052,-101.754
L141.041,-98.7585
L141.974,-95.7627
L142.85,-92.7683
L143.671,-89.7759
L144.437,-86.7869
L145.149,-83.802
L145.806,-80.8215
L146.409,-77.8472
L146.959,-74.8796
L147.457,-71.9197
L147.901,-68.9678
L148.295,-66.0254
L148.637,-63.0925
L148.928,-60.1709
L149.169,-57.2607
L149.361,-54.363
L149.504,-51.4783
L149.597,-48.6072
L149.644,-45.7507
L149.642,-42.9094
L149.594,-40.0837
L149.5,-37.2749
L149.361,-34.4827
L149.177,-31.7085
L148.948,-28.9526
L148.675,-26.2153
L148.36,-23.498
L148.002,-20.8003
L147.602,-18.1233
L147.162,-15.4673
L146.681,-12.833
L146.159,-10.2205
L145.599,-7.63037
L145,-5.06348
L144.364,-2.52002
L143.69,0
L142.979,2.49585
L142.233,4.96704
L141.451,7.41309
L140.634,9.83398
L139.784,12.2297
L138.9,14.5989
L137.984,16.9421
L137.035,19.259
L136.055,21.5491
L135.044,23.812
L134.003,26.0476
L132.933,28.2559
L131.833,30.4363
L130.705,32.5886
L129.55,34.7129
L128.368,36.8088
L127.159,38.8765
L125.924,40.9153
L124.664,42.9255
L123.38,44.9067
L122.071,46.8589
L120.74,48.782
L119.384,50.6758
L118.007,52.5403
L116.608,54.3755
L115.188,56.1812
L113.747,57.9573
L112.286,59.7039
L110.806,61.4209
L109.307,63.1084
L107.789,64.7661
L106.253,66.3943
L104.699,67.9927
L103.129,69.5615
L101.542,71.1006
L99.9392,72.6101
L98.3208,74.0903
L96.687,75.5405
L95.0391,76.9614
L93.377,78.3525
L91.7009,79.7146
L90.0117,81.0474
L88.3098,82.3503
L86.5955,83.6243
L84.8689,84.8689
L83.1309,86.0845
L81.3818,87.271
L79.6216,88.4287
L77.8513,89.5574
L76.0706,90.657
L74.2805,91.7283
L72.4807,92.7708
L70.6719,93.7847
L68.8545,94.77
L67.0291,95.7273
L65.1953,96.6558
L63.354,97.5566
L61.5054,98.4287
L59.6497,99.2732
L57.7871,100.09
L55.9182,100.879
L54.043,101.64
L52.1616,102.373
L50.2749,103.079
L48.3828,103.757
L46.4856,104.408
L44.5833,105.031
L42.6765,105.628
L40.7654,106.198
L38.8501,106.74
L36.9309,107.255
L35.0081,107.743
L33.0818,108.205
L31.1519,108.64
L29.2192,109.048
L27.2837,109.429
L25.3457,109.784
L23.405,110.113
L21.4624,110.415
L19.5176,110.69
L17.571,110.939
L15.6228,111.162
L13.6733,111.358
L11.7222,111.529
L9.77026,111.673
L7.81714,111.79
L5.86353,111.882
L3.90942,111.948
L1.95483,111.987
L0,112
L-1.95483,111.987
L-3.90942,111.948
L-5.86353,111.882
L-7.81714,111.79
L-9.77026,111.673
L-11.7222,111.529
L-13.6733,111.358
L-15.6228,111.162
L-17.571,110.939
L-19.5176,110.69
L-21.4624,110.415
L-23.405,110.113
L-25.3457,109.784
L-27.2837,109.429
L-29.2192,109.048
L-31.1519,108.64
L-33.0818,108.205
L-35.0081,107.743
L-36.9309,107.255
L-38.8501,106.74
L-40.7654,106.198
L-42.6765,105.628
L-44.5833,105.031
L-46.4856,104.408
L-48.3828,103.757
L-50.2749,103.079
L-52.1616,102.373
L-54.043,101.64
L-55.9182,100.879
L-57.7871,100.09
L-59.6497,99.2732
L-61.5054,98.4287
L-63.354,97.5566
L-65.1953,96.6558
L-67.0291,95.7273
L-68.8545,94.77
L-70.6719,93.7847
L-72.4807,92.7708
L-74.2805,91.7283
L-76.0706,90.657
L-77.8513,89.5574
L-79.6216,88.4287
L-81.3818,87.271
L-83.1309,86.0845
L-84.8689,84.8689
L-86.5955,83.6243
L-88.3098,82.3503
L-90.0117,81.0474
L-91.7009,79.7146
L-93.377,78.3525
L-95.0391,76.9614
L-96.687,75.5405
L-98.3208,74.0903
L-99.9392,72.6101
L-101.542,71.1006
L-103.129,69.5615
L-104.699,67.9927
L-106.253,66.3943
L-107.789,64.7661
L-109.307,63.1084
L-110.806,61.4209
L-112.286,59.7039
L-113.747,57.9573
L-115.188,56.1812
L-116.608,54.3755
L-118.007,52.5403
L-119.384,50.6758
L-120.74,48.782
L-122.071,46.8589
L-123.38,44.9067
L-124.664,42.9255
L-125.924,40.9153
L-127.159,38.8765
L-128.368,36.8088
L-129.55,34.7129
L-130.705,32.5886
L-131.833,30.4363
L-132.933,28.2559
L-134.003,26.0476
L-135.044,23.812
L-136.055,21.5491
L-137.035,19.259
L-137.984,16.9421
L-138.9,14.5989
L-139.784,12.2297
L-140.634,9.83398
L-141.451,7.41309
L-142.233,4.96704
L-142.979,2.49585
L-143.69,0
L-144.364,-2.52002
L-145,-5.06348
L-145.599,-7.63037
L-146.159,-10.2205
L-146.681,-12.833
L-147.162,-15.4673
L-147.602,-18.1233
L-148.002,-20.8003
L-148.36,-23.498
L-148.675,-26.2153
L-148.948,-28.9526
L-149.177,-31.7085
L-149.361,-34.4827
L-149.5,-37.2749
L-149.594,-40.0837
L-149.642,-42.9094
L-149.644,-45.7507
L-149.597,-48.6072
L-149.504,-51.4783
L-149.361,-54.363
L-149.169,-57.2607
L-148.928,-60.1709
L-148.637,-63.0925
L-148.295,-66.0254
L-147.901,-68.9678
L-147.457,-71.9197
L-146.959,-74.8796
L-146.409,-77.8472
L-145.806,-80.8215
L-145.149,-83.802
L-144.437,-86.7869
L-143.671,-89.7759
L-142.85,-92.7683
L-141.974,-95.7627
L-141.041,-98.7585
L-140.052,-101.754
L-139.007,-104.75
L-137.904,-107.743
L-136.744,-110.733
L-135.527,-113.72
L-134.251,-116.703
L-132.917,-119.679
L-131.524,-122.648
L-130.072,-125.609
L-128.562,-128.562
L-126.992,-131.504
L-125.362,-134.435
L-123.673,-137.353
L-121.924,-140.258
L-120.115,-143.147
L-118.246,-146.021
L-116.316,-148.878
L-114.327,-151.717
L-112.277,-154.536
L-110.167,-157.334
L-107.996,-160.111
L-105.766,-162.864
L-103.474,-165.594
L-101.123,-168.297
L-98.7117,-170.973
L-96.2402,-173.622
L-93.7092,-176.241
L-91.1184,-178.83
L-88.4683,-181.387
L-85.7588,-183.91
L-82.9905,-186.399
L-80.1633,-188.853
L-77.2781,-191.269
L-74.3345,-193.647
L-71.3333,-195.986
L-68.2747,-198.284
L-65.1592,-200.54
L-61.9875,-202.752
L-58.7595,-204.919
L-55.4766,-207.041
L-52.1382,-209.115
L-48.7458,-211.141
L-45.2993,-213.117
L-41.7998,-215.042
L-38.2478,-216.914
L-34.6438,-218.733
L-30.989,-220.497
L-27.2832,-222.205
L-23.5281,-223.855
L-19.7239,-225.447
L-15.8718,-226.978
L-11.9727,-228.449
L-8.02686,-229.857
L-4.03564,-231.203
L0,-232.483
L4.07935,-233.698
L8.20093,-234.845
L12.3643,-235.924
L16.5679,-236.934
L20.8113,-237.874
L25.0928,-238.742
L29.4116,-239.537
L33.7661,-240.259
L38.1558,-240.906
L42.5789,-241.477
L47.0344,-241.971
L51.521,-242.387
L56.0374,-242.725
L60.5823,-242.983
L65.1543,-243.16
L69.7524,-243.255
L74.3745,-243.268
L79.0195,-243.197
L83.6863,-243.042
L88.373,-242.803
L93.0781,-242.477
L97.8003,-242.064
L102.538,-241.564
L107.289,-240.976
L112.053,-240.299
L116.828,-239.532
L121.611,-238.676
L126.403,-237.728
L131.199,-236.689
L136,-235.559
L140.803,-234.335
L145.607,-233.019
L150.409,-231.61
L155.209,-230.107
L160.004,-228.51
L164.793,-226.818
L169.573,-225.031
L174.343,-223.149
L179.101,-221.171
L183.845,-219.098
L188.574,-216.929
L193.285,-214.665
L197.977,-212.304
L202.647,-209.846
L207.293,-207.293
L211.915,-204.644
L216.509,-201.898
L221.075,-199.057
L225.609,-196.119
L230.11,-193.086
L234.577,-189.957
L239.006,-186.732
L243.397,-183.413
L247.747,-179.999
L252.053,-176.49
L256.316,-172.887
L260.531,-169.191
L264.698,-165.402
L268.813,-161.52
L272.876,-157.545
L276.885,-153.48
L280.837,-149.324
L284.73,-145.077
L288.563,-140.741
L292.333,-136.317
L296.038,-131.805
L299.677,-127.206
L303.248,-122.52
L306.749,-117.75
L310.178,-112.896
L313.532,-107.958
L316.811,-102.938
L320.011,-97.8374
L323.132,-92.6567
L326.172,-87.3975
L329.128,-82.061
L332,-76.6482
L334.784,-71.1606
L337.479,-65.5994
L340.084,-59.9661
L342.597,-54.262
L345.016,-48.489
L347.34,-42.6479
L349.567,-36.741
L351.694,-30.7693
L353.721,-24.7346
L355.646,-18.6387
L357.467,-12.4829
L359.184,-6.26953
L360.793,0
L362.295,6.32397
L363.687,12.7002
L364.967,19.1272
L366.135,25.6028
L367.19,32.125
L368.13,38.6919
L368.954,45.3018
L369.659,51.9524
L370.246,58.6414
L370.713,65.3667
L371.059,72.1267
L371.283,78.9189
L371.384,85.7407
L371.361,92.5906
L371.211,99.4658
L370.936,106.365
L370.534,113.284
L370.004,120.222
L369.345,127.176
L368.556,134.144
L367.638,141.123
L366.589,148.112
L365.407,155.106
L364.094,162.105
L362.648,169.106
L361.069,176.105
L359.356,183.101
L357.51,190.092
L355.529,197.073
L353.413,204.043
L351.162,211
L348.776,217.94
L346.256,224.861
L343.599,231.761
L340.808,238.636
L337.88,245.485
L334.818,252.303
L331.62,259.09
L328.287,265.842
L324.819,272.556
L321.217,279.23
L317.481,285.861
L313.611,292.447
L309.607,298.984
L305.47,305.47Z"/>
</defs>
<g transform="translate(313,300) scale(0.39,-0.39)" fill="none">
<use xlink:href="#Main" stroke-width="64" stroke="#000000"/>
<use xlink:href="#Main" stroke-width="24" stroke="#ebf5ff"/>
<g stroke-width="64" stroke="#000000">
<path d="M-553.752,235.054
L-559.022,225.86
L-564.136,216.552
L-569.092,207.133
L-573.885,197.604
L-578.515,187.971
L-582.979,178.235
L-587.275,168.398
L-591.4,158.465
L-595.353,148.438
L-599.13,138.32
L-602.732,128.115
L-606.155,117.824
L-609.397,107.453
L-612.457,97.0037
L-615.333,86.4795
L-618.022,75.8838
L-620.525,65.2197
L-622.838,54.4915
L-624.961,43.7014
L-626.891,32.854
L-628.628,21.9521
L-630.17,10.9995
L-631.517,0
L-632.665,-11.0432
L-633.615,-22.1262
L-634.366,-33.2456
L-634.916,-44.3977
L-635.265,-55.5786
L-635.412,-66.7847
L-635.355,-78.0117
L-635.094,-89.2566
L-634.629,-100.516
L-633.959,-111.784
L-633.084,-123.059
L-632.002,-134.336
L-630.714,-145.612
L-629.22,-156.882
L-627.519,-168.143
L-625.61,-179.391
L-623.495,-190.622
L-621.173,-201.832
L-618.644,-213.016
L-615.908,-224.172
L-612.966,-235.296
L-609.817,-246.382
L-606.463,-257.428
L-602.904,-268.43
L-599.139,-279.384"/>
<path d="M526.071,526.071
L516.56,534.914
L506.896,543.579
L497.082,552.065
L487.12,560.367
L477.016,568.485
L466.771,576.415
L456.391,584.154
L445.878,591.7
L435.236,599.051
L424.469,606.205
L413.581,613.159
L402.575,619.911
L391.456,626.46
L380.227,632.803
L368.892,638.939
L357.455,644.865
L345.919,650.58
L334.29,656.082
L322.572,661.369
L310.767,666.441
L298.88,671.296
L286.916,675.931
L274.878,680.347
L262.771,684.542
L250.599,688.514
L238.365,692.263
L226.075,695.788
L213.733,699.088
L201.342,702.162
L188.907,705.009
L176.432,707.63
L163.922,710.022
L151.38,712.187
L138.811,714.122
L126.22,715.829
L113.61,717.307
L100.986,718.556
L88.3528,719.576
L75.7136,720.366
L63.073,720.928
L50.4353,721.26
L37.8052,721.365
L25.1863,721.24
L12.5833,720.889
L0,720.31
L-12.5591,719.504
L-25.0896,718.473
L-37.5876,717.216
L-50.0491,715.736
L-62.4697,714.031
L-74.8455,712.105
L-87.1719,709.957
L-99.4451,707.589
L-111.662,705.002
L-123.816,702.198
L-135.906,699.178
L-147.927,695.943
L-159.875,692.494
L-171.746,688.835
L-183.536,684.965
L-195.241,680.887
L-206.858,676.603
L-218.383,672.115
L-229.813,667.424
L-241.142,662.533
L-252.369,657.444
L-263.489,652.158
L-274.499,646.679
L-285.395,641.008
L-296.174,635.148
L-306.833,629.101
L-317.368,622.87
L-327.776,616.457
L-338.054,609.865
L-348.198,603.097
L-358.206,596.155
L-368.074,589.042
L-377.8,581.76
L-387.38,574.314
L-396.812,566.706
L-406.092,558.938
L-415.219,551.014
L-424.189,542.937
L-433,534.709
L-441.648,526.335
L-450.132,517.818
L-458.45,509.16
L-466.598,500.365
L-474.575,491.437
L-482.378,482.378
L-490.005,473.193
L-497.455,463.884"/>
<path d="M-154.772,-506.236
L-145.494,-507.397
L-136.222,-508.387
L-126.96,-509.207
L-117.71,-509.856
L-108.475,-510.335
L-99.2595,-510.646
L-90.0659,-510.789
L-80.8972,-510.765
L-71.7566,-510.574
L-62.647,-510.219
L-53.5715,-509.7
L-44.5334,-509.018
L-35.5352,-508.174
L-26.5796,-507.169
L-17.6699,-506.006
L-8.80933,-504.684
L0,-503.207
L8.75513,-501.573
L17.4529,-499.787
L26.0911,-497.848
L34.667,-495.759
L43.1775,-493.521
L51.6206,-491.136
L59.9932,-488.606
L68.2932,-485.932
L76.5181,-483.116
L84.6653,-480.16
L92.7324,-477.066
L100.717,-473.836
L108.617,-470.471
L116.43,-466.975
L124.154,-463.348
L131.786,-459.594
L139.325,-455.713
L146.769,-451.708
L154.115,-447.583"/>
<path d="M93.0781,242.477
L88.3728,242.802
L83.6863,243.042
L79.0195,243.197
L74.3745,243.268
L69.7524,243.255
L65.1545,243.159
L60.5823,242.983
L56.0374,242.725
L51.521,242.387
L47.0344,241.971
L42.5789,241.477
L38.1558,240.906
L33.7661,240.259
L29.4116,239.537
L25.0928,238.742
L20.8113,237.874
L16.5681,236.934
L12.3643,235.924
L8.20093,234.845
L4.07935,233.698
L0,232.483
L-4.03564,231.203
L-8.02686,229.858
L-11.9727,228.449
L-15.8721,226.979
L-19.7239,225.447
L-23.5281,223.855
L-27.2832,222.205
L-30.9888,220.497
L-34.644,218.733
L-38.248,216.914
L-41.7998,215.042
L-45.2993,213.117
L-48.7458,211.141
L-52.1382,209.115
L-55.4763,207.041
L-58.7598,204.919
L-61.9875,202.752
L-65.1592,200.54
L-68.2747,198.284
L-71.3333,195.986
L-74.3345,193.647
L-77.2778,191.269
L-80.1633,188.853"/>
<path d="M88.3098,-82.3503
L90.0117,-81.0474
L91.7009,-79.7146
L93.377,-78.3525
L95.0391,-76.9614
L96.6873,-75.5408
L98.3206,-74.0901
L99.9392,-72.6101
L101.542,-71.1006
L103.129,-69.5615
L104.699,-67.9927
L106.253,-66.3943
L107.789,-64.7661
L109.307,-63.1084
L110.806,-61.4209
L112.286,-59.7039
L113.747,-57.9573
L115.188,-56.1812
L116.608,-54.3755
L118.007,-52.5403
L119.384,-50.6758
L120.739,-48.7817
L122.071,-46.8589
L123.38,-44.9067
L124.664,-42.9255
L125.924,-40.9155
L127.159,-38.8765
L128.368,-36.8091
L129.55,-34.7129
L130.705,-32.5886
L131.833,-30.4363
L132.933,-28.2559
L134.003,-26.0476
L135.044,-23.812
L136.055,-21.5491
L137.035,-19.259
L137.984,-16.9421
L138.9,-14.5989
L139.784,-12.2297
L140.635,-9.83423
L141.451,-7.41333
L142.233,-4.96704
L142.979,-2.49561
L143.69,0
L144.364,2.52002
L145,5.06348
L145.599,7.63062
L146.159,10.2205
L146.68,12.8328
L147.162,15.4673
L147.602,18.1233
L148.002,20.8003
L148.36,23.498
L148.675,26.2153
L148.948,28.9526
L149.176,31.7085
L149.361,34.4829
L149.5,37.2749
L149.594,40.0837
L149.642,42.9094
L149.644,45.7507
L149.597,48.6072
L149.504,51.4783
L149.361,54.363
L149.169,57.2607
L148.928,60.1709
L148.637,63.0925
L148.295,66.0254
L147.902,68.9678
L147.457,71.9194
L146.959,74.8796
L146.409,77.8472
L145.806,80.8215
L145.149,83.802
L144.438,86.7871
L143.671,89.7759
L142.85,92.7683
L141.974,95.7627
L141.041,98.7585
L140.052,101.754
L139.007,104.75
L137.904,107.743
L136.744,110.733
L135.527,113.72
L134.251,116.702"/>
<path d="M-313.532,107.958
L-316.811,102.938
L-320.011,97.8374
L-323.132,92.6567
L-326.172,87.3977
L-329.128,82.061
L-331.999,76.6482
L-334.784,71.1606
L-337.479,65.5994
L-340.084,59.9661
L-342.598,54.2622
L-345.017,48.4888
L-347.34,42.6482
L-349.566,36.7407
L-351.694,30.7693
L-353.721,24.7346
L-355.646,18.6387
L-357.468,12.4832
L-359.184,6.26953
L-360.793,0
L-362.294,-6.32373
L-363.687,-12.7002
L-364.967,-19.1272
L-366.135,-25.6028
L-367.19,-32.125
L-368.13,-38.6921
L-368.954,-45.3018
L-369.659,-51.9521
L-370.246,-58.6414
L-370.713,-65.3667
L-371.059,-72.1267
L-371.283,-78.9187
L-371.384,-85.7407
L-371.36,-92.5906
L-371.211,-99.4658
L-370.936,-106.365
L-370.534,-113.284"/>
<path d="M553.752,-235.054
L559.022,-225.86
L564.136,-216.552
L569.092,-207.133
L573.885,-197.604
L578.515,-187.971
L582.979,-178.235
L587.275,-168.398
L591.4,-158.465
L595.353,-148.438
L599.13,-138.32
L602.732,-128.115
L606.155,-117.824
L609.397,-107.453
L612.457,-97.0037
L615.332,-86.4792
L618.022,-75.8838
L620.525,-65.2197
L622.838,-54.4912
L624.961,-43.7014
L626.891,-32.854
L628.628,-21.9521
L630.17,-10.9995
L631.517,0
L632.665,11.0432
L633.615,22.1262
L634.366,33.2456
L634.917,44.3979
L635.265,55.5786
L635.411,66.7844
L635.355,78.0117
L635.094,89.2566
L634.629,100.516
L633.959,111.784
L633.084,123.059
L632.002,134.336
L630.714,145.612
L629.22,156.882
L627.519,168.143
L625.61,179.391
L623.495,190.622
L621.173,201.832
L618.644,213.016
L615.908,224.172
L612.966,235.296
L609.817,246.382
L606.463,257.428
L602.904,268.43
L599.139,279.384"/>
<path d="M-526.071,-526.071
L-516.56,-534.914
L-506.896,-543.579
L-497.082,-552.065
L-487.12,-560.367
L-477.016,-568.485
L-466.771,-576.415
L-456.391,-584.154
L-445.878,-591.7
L-435.236,-599.051
L-424.469,-606.205
L-413.581,-613.159
L-402.575,-619.911
L-391.456,-626.46
L-380.227,-632.803
L-368.892,-638.939
L-357.455,-644.865
L-345.919,-650.58
L-334.29,-656.082
L-322.572,-661.369
L-310.767,-666.441
L-298.88,-671.296
L-286.916,-675.931
L-274.878,-680.347
L-262.771,-684.542
L-250.599,-688.514
L-238.365,-692.263
L-226.075,-695.788
L-213.733,-699.088
L-201.342,-702.162
L-188.907,-705.009
L-176.432,-707.63
L-163.922,-710.022
L-151.38,-712.187
L-138.811,-714.122
L-126.22,-715.829
L-113.61,-717.307
L-100.987,-718.556
L-88.3528,-719.576
L-75.7136,-720.366
L-63.073,-720.928
L-50.4353,-721.26
L-37.8049,-721.365
L-25.1863,-721.24
L-12.5833,-720.889
L0,-720.31
L12.5591,-719.504
L25.0896,-718.473
L37.5876,-717.216
L50.0491,-715.736
L62.4697,-714.031
L74.8452,-712.105
L87.1719,-709.957
L99.4451,-707.589
L111.662,-705.002
L123.817,-702.198
L135.906,-699.178
L147.927,-695.943
L159.875,-692.494
L171.746,-688.834
L183.536,-684.965
L195.241,-680.887
L206.858,-676.603
L218.383,-672.115
L229.813,-667.424
L241.142,-662.533
L252.369,-657.444
L263.489,-652.158
L274.499,-646.679
L285.395,-641.008
L296.175,-635.148
L306.833,-629.101
L317.368,-622.87
L327.776,-616.457
L338.054,-609.865
L348.198,-603.097
L358.206,-596.155
L368.074,-589.042
L377.8,-581.76
L387.38,-574.314
L396.812,-566.706
L406.092,-558.938
L415.219,-551.014
L424.189,-542.937
L433,-534.709
L441.648,-526.335
L450.133,-517.818
L458.45,-509.16
L466.598,-500.365
L474.575,-491.437
L482.378,-482.378
L490.005,-473.193
L497.455,-463.884"/>
<path d="M154.772,506.236
L145.494,507.397
L136.222,508.388
L126.959,509.207
L117.71,509.856
L108.475,510.335
L99.2595,510.646
L90.0659,510.789
L80.8972,510.765
L71.7568,510.575
L62.647,510.219
L53.5715,509.7
L44.5334,509.018
L35.5352,508.174
L26.5796,507.169
L17.6702,506.006
L8.80908,504.685
L0,503.207
L-8.75488,501.573
L-17.4529,499.787
L-26.0911,497.848
L-34.667,495.759
L-43.1777,493.521
L-51.6204,491.136
L-59.9934,488.606
L-68.2935,485.932
L-76.5181,483.116
L-84.6653,480.16
L-92.7324,477.066
L-100.717,473.836
L-108.617,470.471
L-116.43,466.975
L-124.154,463.348
L-131.786,459.594
L-139.325,455.713
L-146.769,451.708
L-154.115,447.583"/>
<path d="M-93.0781,-242.477
L-88.373,-242.803
L-83.6863,-243.042
L-79.0195,-243.197
L-74.3745,-243.268
L-69.7524,-243.255
L-65.1543,-243.16
L-60.5823,-242.983
L-56.0374,-242.725
L-51.521,-242.387
L-47.0344,-241.971
L-42.5789,-241.477
L-38.1558,-240.906
L-33.7661,-240.259
L-29.4116,-239.537
L-25.0928,-238.742
L-20.8113,-237.874
L-16.5679,-236.934
L-12.3643,-235.924
L-8.20093,-234.845
L-4.07935,-233.698
L0,-232.483
L4.03564,-231.203
L8.02686,-229.857
L11.9727,-228.449
L15.8718,-226.978
L19.7239,-225.447
L23.5281,-223.855
L27.2832,-222.205
L30.989,-220.497
L34.6438,-218.733
L38.2478,-216.914
L41.7998,-215.042
L45.2993,-213.117
L48.7458,-211.141
L52.1382,-209.115
L55.4766,-207.041
L58.7595,-204.919
L61.9875,-202.752
L65.1592,-200.54
L68.2747,-198.284
L71.3333,-195.986
L74.3345,-193.647
L77.2781,-191.269
L80.1633,-188.853"/>
<path d="M-88.3098,82.3503
L-90.0117,81.0474
L-91.7009,79.7146
L-93.377,78.3525
L-95.0391,76.9614
L-96.687,75.5405
L-98.3208,74.0903
L-99.9392,72.6101
L-101.542,71.1006
L-103.129,69.5615
L-104.699,67.9927
L-106.253,66.3943
L-107.789,64.7661
L-109.307,63.1084
L-110.806,61.4209
L-112.286,59.7039
L-113.747,57.9573
L-115.188,56.1812
L-116.608,54.3755
L-118.007,52.5403
L-119.384,50.6758
L-120.74,48.782
L-122.071,46.8589
L-123.38,44.9067
L-124.664,42.9255
L-125.924,40.9153
L-127.159,38.8765
L-128.368,36.8088
L-129.55,34.7129
L-130.705,32.5886
L-131.833,30.4363
L-132.933,28.2559
L-134.003,26.0476
L-135.044,23.812
L-136.055,21.5491
L-137.035,19.259
L-137.984,16.9421
L-138.9,14.5989
L-139.784,12.2297
L-140.634,9.83398
L-141.451,7.41309
L-142.233,4.96704
L-142.979,2.49585
L-143.69,0
L-144.364,-2.52002
L-145,-5.06348
L-145.599,-7.63037
L-146.159,-10.2205
L-146.681,-12.833
L-147.162,-15.4673
L-147.602,-18.1233
L-148.002,-20.8003
L-148.36,-23.498
L-148.675,-26.2153
L-148.948,-28.9526
L-149.177,-31.7085
L-149.361,-34.4827
L-149.5,-37.2749
L-149.594,-40.0837
L-149.642,-42.9094
L-149.644,-45.7507
L-149.597,-48.6072
L-149.504,-51.4783
L-149.361,-54.363
L-149.169,-57.2607
L-148.928,-60.1709
L-148.637,-63.0925
L-148.295,-66.0254
L-147.901,-68.9678
L-147.457,-71.9197
L-146.959,-74.8796
L-146.409,-77.8472
L-145.806,-80.8215
L-145.149,-83.802
L-144.437,-86.7869
L-143.671,-89.7759
L-142.85,-92.7683
L-141.974,-95.7627
L-141.041,-98.7585
L-140.052,-101.754
L-139.007,-104.75
L-137.904,-107.743
L-136.744,-110.733
L-135.527,-113.72
L-134.251,-116.703"/>
<path d="M313.532,-107.958
L316.811,-102.938
L320.011,-97.8374
L323.132,-92.6567
L326.172,-87.3975
L329.128,-82.061
L332,-76.6482
L334.784,-71.1606
L337.479,-65.5994
L340.084,-59.9661
L342.597,-54.262
L345.016,-48.489
L347.34,-42.6479
L349.567,-36.741
L351.694,-30.7693
L353.721,-24.7346
L355.646,-18.6387
L357.467,-12.4829
L359.184,-6.26953
L360.793,0
L362.295,6.32397
L363.687,12.7002
L364.967,19.1272
L366.135,25.6028
L367.19,32.125
L368.13,38.6919
L368.954,45.3018
L369.659,51.9524
L370.246,58.6414
L370.713,65.3667
L371.059,72.1267
L371.283,78.9189
L371.384,85.7407
L371.361,92.5906
L371.211,99.4658
L370.936,106.365
L370.534,113.284"/>
</g>
<g stroke-width="24" stroke="#ebf5ff">
<path d="M-548.327,244.131
L-553.752,235.054
L-559.022,225.86
L-564.136,216.552
L-569.092,207.133
L-573.885,197.604
L-578.515,187.971
L-582.979,178.235
L-587.275,168.398
L-591.4,158.465
L-595.353,148.438
L-599.13,138.32
L-602.732,128.115
L-606.155,117.824
L-609.397,107.453
L-612.457,97.0037
L-615.333,86.4795
L-618.022,75.8838
L-620.525,65.2197
L-622.838,54.4915
L-624.961,43.7014
L-626.891,32.854
L-628.628,21.9521
L-630.17,10.9995
L-631.517,0
L-632.665,-11.0432
L-633.615,-22.1262
L-634.366,-33.2456
L-634.916,-44.3977
L-635.265,-55.5786
L-635.412,-66.7847
L-635.355,-78.0117
L-635.094,-89.2566
L-634.629,-100.516
L-633.959,-111.784
L-633.084,-123.059
L-632.002,-134.336
L-630.714,-145.612
L-629.22,-156.882
L-627.519,-168.143
L-625.61,-179.391
L-623.495,-190.622
L-621.173,-201.832
L-618.644,-213.016
L-615.908,-224.172
L-612.966,-235.296
L-609.817,-246.382
L-606.463,-257.428
L-602.904,-268.43
L-599.139,-279.384
L-595.171,-290.284"/>
<path d="M535.425,517.054
L526.071,526.071
L516.56,534.914
L506.896,543.579
L497.082,552.065
L487.12,560.367
L477.016,568.485
L466.771,576.415
L456.391,584.154
L445.878,591.7
L435.236,599.051
L424.469,606.205
L413.581,613.159
L402.575,619.911
L391.456,626.46
L380.227,632.803
L368.892,638.939
L357.455,644.865
L345.919,650.58
L334.29,656.082
L322.572,661.369
L310.767,666.441
L298.88,671.296
L286.916,675.931
L274.878,680.347
L262.771,684.542
L250.599,688.514
L238.365,692.263
L226.075,695.788
L213.733,699.088
L201.342,702.162
L188.907,705.009
L176.432,707.63
L163.922,710.022
L151.38,712.187
L138.811,714.122
L126.22,715.829
L113.61,717.307
L100.986,718.556
L88.3528,719.576
L75.7136,720.366
L63.073,720.928
L50.4353,721.26
L37.8052,721.365
L25.1863,721.24
L12.5833,720.889
L0,720.31
L-12.5591,719.504
L-25.0896,718.473
L-37.5876,717.216
L-50.0491,715.736
L-62.4697,714.031
L-74.8455,712.105
L-87.1719,709.957
L-99.4451,707.589
L-111.662,705.002
L-123.816,702.198
L-135.906,699.178
L-147.927,695.943
L-159.875,692.494
L-171.746,688.835
L-183.536,684.965
L-195.241,680.887
L-206.858,676.603
L-218.383,672.115
L-229.813,667.424
L-241.142,662.533
L-252.369,657.444
L-263.489,652.158
L-274.499,646.679
L-285.395,641.008
L-296.174,635.148
L-306.833,629.101
L-317.368,622.87
L-327.776,616.457
L-338.054,609.865
L-348.198,603.097
L-358.206,596.155
L-368.074,589.042
L-377.8,581.76
L-387.38,574.314
L-396.812,566.706
L-406.092,558.938
L-415.219,551.014
L-424.189,542.937
L-433,534.709
L-441.648,526.335
L-450.132,517.818
L-458.45,509.16
L-466.598,500.365
L-474.575,491.437
L-482.378,482.378
L-490.005,473.193
L-497.455,463.884
L-504.724,454.456"/>
<path d="M-164.053,-504.902
L-154.772,-506.236
L-145.494,-507.397
L-136.222,-508.387
L-126.96,-509.207
L-117.71,-509.856
L-108.475,-510.335
L-99.2595,-510.646
L-90.0659,-510.789
L-80.8972,-510.765
L-71.7566,-510.574
L-62.647,-510.219
L-53.5715,-509.7
L-44.5334,-509.018
L-35.5352,-508.174
L-26.5796,-507.169
L-17.6699,-506.006
L-8.80933,-504.684
L0,-503.207
L8.75513,-501.573
L17.4529,-499.787
L26.0911,-497.848
L34.667,-495.759
L43.1775,-493.521
L51.6206,-491.136
L59.9932,-488.606
L68.2932,-485.932
L76.5181,-483.116
L84.6653,-480.16
L92.7324,-477.066
L100.717,-473.836
L108.617,-470.471
L116.43,-466.975
L124.154,-463.348
L131.786,-459.594
L139.325,-455.713
L146.769,-451.708
L154.115,-447.583
L161.362,-443.337"/>
<path d="M97.8003,242.064
L93.0781,242.477
L88.3728,242.802
L83.6863,243.042
L79.0195,243.197
L74.3745,243.268
L69.7524,243.255
L65.1545,243.159
L60.5823,242.983
L56.0374,242.725
L51.521,242.387
L47.0344,241.971
L42.5789,241.477
L38.1558,240.906
L33.7661,240.259
L29.4116,239.537
L25.0928,238.742
L20.8113,237.874
L16.5681,236.934
L12.3643,235.924
L8.20093,234.845
L4.07935,233.698
L0,232.483
L-4.03564,231.203
L-8.02686,229.858
L-11.9727,228.449
L-15.8721,226.979
L-19.7239,225.447
L-23.5281,223.855
L-27.2832,222.205
L-30.9888,220.497
L-34.644,218.733
L-38.248,216.914
L-41.7998,215.042
L-45.2993,213.117
L-48.7458,211.141
L-52.1382,209.115
L-55.4763,207.041
L-58.7598,204.919
L-61.9875,202.752
L-65.1592,200.54
L-68.2747,198.284
L-71.3333,195.986
L-74.3345,193.647
L-77.2778,191.269
L-80.1633,188.853
L-82.9905,186.399"/>
<path d="M86.5955,-83.6243
L88.3098,-82.3503
L90.0117,-81.0474
L91.7009,-79.7146
L93.377,-78.3525
L95.0391,-76.9614
L96.6873,-75.5408
L98.3206,-74.0901
L99.9392,-72.6101
L101.542,-71.1006
L103.129,-69.5615
L104.699,-67.9927
L106.253,-66.3943
L107.789,-64.7661
L109.307,-63.1084
L110.806,-61.4209
L112.286,-59.7039
L113.747,-57.9573
L115.188,-56.1812
L116.608,-54.3755
L118.007,-52.5403
L119.384,-50.6758
L120.739,-48.7817
L122.071,-46.8589
L123.38,-44.9067
L124.664,-42.9255
L125.924,-40.9155
L127.159,-38.8765
L128.368,-36.8091
L129.55,-34.7129
L130.705,-32.5886
L131.833,-30.4363
L132.933,-28.2559
L134.003,-26.0476
L135.044,-23.812
L136.055,-21.5491
L137.035,-19.259
L137.984,-16.9421
L138.9,-14.5989
L139.784,-12.2297
L140.635,-9.83423
L141.451,-7.41333
L142.233,-4.96704
L142.979,-2.49561
L143.69,0
L144.364,2.52002
L145,5.06348
L145.599,7.63062
L146.159,10.2205
L146.68,12.8328
L147.162,15.4673
L147.602,18.1233
L148.002,20.8003
L148.36,23.498
L148.675,26.2153
L148.948,28.9526
L149.176,31.7085
L149.361,34.4829
L149.5,37.2749
L149.594,40.0837
L149.642,42.9094
L149.644,45.7507
L149.597,48.6072
L149.504,51.4783
L149.361,54.363
L149.169,57.2607
L148.928,60.1709
L148.637,63.0925
L148.295,66.0254
L147.902,68.9678
L147.457,71.9194
L146.959,74.8796
L146.409,77.8472
L145.806,80.8215
L145.149,83.802
L144.438,86.7871
L143.671,89.7759
L142.85,92.7683
L141.974,95.7627
L141.041,98.7585
L140.052,101.754
L139.007,104.75
L137.904,107.743
L136.744,110.733
L135.527,113.72
L134.251,116.702
L132.917,119.679"/>
<path d="M-310.177,112.895
L-313.532,107.958
L-316.811,102.938
L-320.011,97.8374
L-323.132,92.6567
L-326.172,87.3977
L-329.128,82.061
L-331.999,76.6482
L-334.784,71.1606
L-337.479,65.5994
L-340.084,59.9661
L-342.598,54.2622
L-345.017,48.4888
L-347.34,42.6482
L-349.566,36.7407
L-351.694,30.7693
L-353.721,24.7346
L-355.646,18.6387
L-357.468,12.4832
L-359.184,6.26953
L-360.793,0
L-362.294,-6.32373
L-363.687,-12.7002
L-364.967,-19.1272
L-366.135,-25.6028
L-367.19,-32.125
L-368.13,-38.6921
L-368.954,-45.3018
L-369.659,-51.9521
L-370.246,-58.6414
L-370.713,-65.3667
L-371.059,-72.1267
L-371.283,-78.9187
L-371.384,-85.7407
L-371.36,-92.5906
L-371.211,-99.4658
L-370.936,-106.365
L-370.534,-113.284
L-370.004,-120.222"/>
<path d="M548.327,-244.131
L553.752,-235.054
L559.022,-225.86
L564.136,-216.552
L569.092,-207.133
L573.885,-197.604
L578.515,-187.971
L582.979,-178.235
L587.275,-168.398
L591.4,-158.465
L595.353,-148.438
L599.13,-138.32
L602.732,-128.115
L606.155,-117.824
L609.397,-107.453
L612.457,-97.0037
L615.332,-86.4792
L618.022,-75.8838
L620.525,-65.2197
L622.838,-54.4912
L624.961,-43.7014
L626.891,-32.854
L628.628,-21.9521
L630.17,-10.9995
L631.517,0
L632.665,11.0432
L633.615,22.1262
L634.366,33.2456
L634.917,44.3979
L635.265,55.5786
L635.411,66.7844
L635.355,78.0117
L635.094,89.2566
L634.629,100.516
L633.959,111.784
L633.084,123.059
L632.002,134.336
L630.714,145.612
L629.22,156.882
L627.519,168.143
L625.61,179.391
L623.495,190.622
L621.173,201.832
L618.644,213.016
L615.908,224.172
L612.966,235.296
L609.817,246.382
L606.463,257.428
L602.904,268.43
L599.139,279.384
L595.171,290.284"/>
<path d="M-535.425,-517.054
L-526.071,-526.071
L-516.56,-534.914
L-506.896,-543.579
L-497.082,-552.065
L-487.12,-560.367
L-477.016,-568.485
L-466.771,-576.415
L-456.391,-584.154
L-445.878,-591.7
L-435.236,-599.051
L-424.469,-606.205
L-413.581,-613.159
L-402.575,-619.911
L-391.456,-626.46
L-380.227,-632.803
L-368.892,-638.939
L-357.455,-644.865
L-345.919,-650.58
L-334.29,-656.082
L-322.572,-661.369
L-310.767,-666.441
L-298.88,-671.296
L-286.916,-675.931
L-274.878,-680.347
L-262.771,-684.542
L-250.599,-688.514
L-238.365,-692.263
L-226.075,-695.788
L-213.733,-699.088
L-201.342,-702.162
L-188.907,-705.009
L-176.432,-707.63
L-163.922,-710.022
L-151.38,-712.187
L-138.811,-714.122
L-126.22,-715.829
L-113.61,-717.307
L-100.987,-718.556
L-88.3528,-719.576
L-75.7136,-720.366
L-63.073,-720.928
L-50.4353,-721.26
L-37.8049,-721.365
L-25.1863,-721.24
L-12.5833,-720.889
L0,-720.31
L12.5591,-719.504
L25.0896,-718.473
L37.5876,-717.216
L50.0491,-715.736
L62.4697,-714.031
L74.8452,-712.105
L87.1719,-709.957
L99.4451,-707.589
L111.662,-705.002
L123.817,-702.198
L135.906,-699.178
L147.927,-695.943
L159.875,-692.494
L171.746,-688.834
L183.536,-684.965
L195.241,-680.887
L206.858,-676.603
L218.383,-672.115
L229.813,-667.424
L241.142,-662.533
L252.369,-657.444
L263.489,-652.158
L274.499,-646.679
L285.395,-641.008
L296.175,-635.148
L306.833,-629.101
L317.368,-622.87
L327.776,-616.457
L338.054,-609.865
L348.198,-603.097
L358.206,-596.155
L368.074,-589.042
L377.8,-581.76
L387.38,-574.314
L396.812,-566.706
L406.092,-558.938
L415.219,-551.014
L424.189,-542.937
L433,-534.709
L441.648,-526.335
L450.133,-517.818
L458.45,-509.16
L466.598,-500.365
L474.575,-491.437
L482.378,-482.378
L490.005,-473.193
L497.455,-463.884
L504.724,-454.456"/>
<path d="M164.053,504.902
L154.772,506.236
L145.494,507.397
L136.222,508.388
L126.959,509.207
L117.71,509.856
L108.475,510.335
L99.2595,510.646
L90.0659,510.789
L80.8972,510.765
L71.7568,510.575
L62.647,510.219
L53.5715,509.7
L44.5334,509.018
L35.5352,508.174
L26.5796,507.169
L17.6702,506.006
L8.80908,504.685
L0,503.207
L-8.75488,501.573
L-17.4529,499.787
L-26.0911,497.848
L-34.667,495.759
L-43.1777,493.521
L-51.6204,491.136
L-59.9934,488.606
L-68.2935,485.932
L-76.5181,483.116
L-84.6653,480.16
L-92.7324,477.066
L-100.717,473.836
L-108.617,470.471
L-116.43,466.975
L-124.154,463.348
L-131.786,459.594
L-139.325,455.713
L-146.769,451.708
L-154.115,447.583
L-161.362,443.337"/>
<path d="M-97.8003,-242.064
L-93.0781,-242.477
L-88.373,-242.803
L-83.6863,-243.042
L-79.0195,-243.197
L-74.3745,-243.268
L-69.7524,-243.255
L-65.1543,-243.16
L-60.5823,-242.983
L-56.0374,-242.725
L-51.521,-242.387
L-47.0344,-241.971
L-42.5789,-241.477
L-38.1558,-240.906
L-33.7661,-240.259
L-29.4116,-239.537
L-25.0928,-238.742
L-20.8113,-237.874
L-16.5679,-236.934
L-12.3643,-235.924
L-8.20093,-234.845
L-4.07935,-233.698
L0,-232.483
L4.03564,-231.203
L8.02686,-229.857
L11.9727,-228.449
L15.8718,-226.978
L19.7239,-225.447
L23.5281,-223.855
L27.2832,-222.205
L30.989,-220.497
L34.6438,-218.733
L38.2478,-216.914
L41.7998,-215.042
L45.2993,-213.117
L48.7458,-211.141
L52.1382,-209.115
L55.4766,-207.041
L58.7595,-204.919
L61.9875,-202.752
L65.1592,-200.54
L68.2747,-198.284
L71.3333,-195.986
L74.3345,-193.647
L77.2781,-191.269
L80.1633,-188.853
L82.9905,-186.399"/>
<path d="M-86.5955,83.6243
L-88.3098,82.3503
L-90.0117,81.0474
L-91.7009,79.7146
L-93.377,78.3525
L-95.0391,76.9614
L-96.687,75.5405
L-98.3208,74.0903
L-99.9392,72.6101
L-101.542,71.1006
L-103.129,69.5615
L-104.699,67.9927
L-106.253,66.3943
L-107.789,64.7661
L-109.307,63.1084
L-110.806,61.4209
L-112.286,59.7039
L-113.747,57.9573
L-115.188,56.1812
L-116.608,54.3755
L-118.007,52.5403
L-119.384,50.6758
L-120.74,48.782
L-122.071,46.8589
L-123.38,44.9067
L-124.664,42.9255
L-125.924,40.9153
L-127.159,38.8765
L-128.368,36.8088
L-129.55,34.7129
L-130.705,32.5886
L-131.833,30.4363
L-132.933,28.2559
L-134.003,26.0476
L-135.044,23.812
L-136.055,21.5491
L-137.035,19.259
L-137.984,16.9421
L-138.9,14.5989
L-139.784,12.2297
L-140.634,9.83398
L-141.451,7.41309
L-142.233,4.96704
L-142.979,2.49585
L-143.69,0
L-144.364,-2.52002
L-145,-5.06348
L-145.599,-7.63037
L-146.159,-10.2205
L-146.681,-12.833
L-147.162,-15.4673
L-147.602,-18.1233
L-148.002,-20.8003
L-148.36,-23.498
L-148.675,-26.2153
L-148.948,-28.9526
L-149.177,-31.7085
L-149.361,-34.4827
L-149.5,-37.2749
L-149.594,-40.0837
L-149.642,-42.9094
L-149.644,-45.7507
L-149.597,-48.6072
L-149.504,-51.4783
L-149.361,-54.363
L-149.169,-57.2607
L-148.928,-60.1709
L-148.637,-63.0925
L-148.295,-66.0254
L-147.901,-68.9678
L-147.457,-71.9197
L-146.959,-74.8796
L-146.409,-77.8472
L-145.806,-80.8215
L-145.149,-83.802
L-144.437,-86.7869
L-143.671,-89.7759
L-142.85,-92.7683
L-141.974,-95.7627
L-141.041,-98.7585
L-140.052,-101.754
L-139.007,-104.75
L-137.904,-107.743
L-136.744,-110.733
L-135.527,-113.72
L-134.251,-116.703
L-132.917,-119.679"/>
<path d="M310.178,-112.896
L313.532,-107.958
L316.811,-102.938
L320.011,-97.8374
L323.132,-92.6567
L326.172,-87.3975
L329.128,-82.061
L332,-76.6482
L334.784,-71.1606
L337.479,-65.5994
L340.084,-59.9661
L342.597,-54.262
L345.016,-48.489
L347.34,-42.6479
L349.567,-36.741
L351.694,-30.7693
L353.721,-24.7346
L355.646,-18.6387
L357.467,-12.4829
L359.184,-6.26953
L360.793,0
L362.295,6.32397
L363.687,12.7002
L364.967,19.1272
L366.135,25.6028
L367.19,32.125
L368.13,38.6919
L368.954,45.3018
L369.659,51.9524
L370.246,58.6414
L370.713,65.3667
L371.059,72.1267
L371.283,78.9189
L371.384,85.7407
L371.361,92.5906
L371.211,99.4658
L370.936,106.365
L370.534,113.284
L370.004,120.222"/>
</g></g></svg>
