<?xml version="1.0" standalone="no"?>
<!DOCTYPE svg PUBLIC "-//W3C//DTD SVG 1.0//EN" "http://www.w3.org/TR/2001/REC-SVG-20010904/DTD/svg10.dtd">
<svg width="600" height="600" viewBox="0 0 600 600" xmlns="http://www.w3.org/2000/svg" xmlns:xlink="http://www.w3.org/1999/xlink">
<title>Celtic or pseudo-Celtic decorative knot to fill square box.  By AnonMoos (public domain)</title>
<defs>
<path id="KnotArc1" d="M-904.191,-904.191 V-585.993 L-459.099,-140.901
C-416.903,-98.7053,-359.674,-75,-300,-75 C-175.736,-75,-75,-175.736,-75,-300
C-75,-424.264,-175.736,-525,-300,-525
C-359.674,-525,-416.903,-501.294,-459.099,-459.099 L-720.915,-197.283
C-731.042,-187.156,-736.731,-173.421,-736.731,-159.099
C-736.731,-144.777,-731.042,-131.042,-720.915,-120.915 L89.0952,689.095
C112.725,712.725,126,744.774,126,778.191
C126,847.779,69.5876,904.191,0,904.191
C-499.371,904.191,-904.191,499.371,-904.191,0
C-904.191,-499.371,-499.371,-904.191,0,-904.191
C69.5876,-904.191,126,-847.779,126,-778.191
C126,-744.774,112.725,-712.725,89.0952,-689.095 L-720.915,120.915
C-731.042,131.042,-736.731,144.777,-736.731,159.099
C-736.731,173.421,-731.042,187.156,-720.915,197.283 L-459.099,459.099
C-416.903,501.294,-359.674,525,-300,525 C-175.736,525,-75,424.264,-75,300
C-75,175.736,-175.736,75,-300,75
C-359.674,75,-416.903,98.7053,-459.099,140.901 L-904.191,585.993 V904.191"/>
<path id="KnotArc3" d="M-904.191,904.191 H-525 V618.198
C-525,558.524,-501.294,501.294,-459.099,459.099 L459.099,-459.099
C501.294,-501.294,525,-558.524,525,-618.198 L525,-904.191 H904.191"/>
</defs>
<rect width="600" height="600" fill="rgb(216,21,42)"/>
<rect x="12" y="12" width="576" height="576"/>
<g transform="translate(300,300) scale(0.2948,-0.2948)" stroke-width="144" stroke="rgb(0,0,0)" fill="none">
<g stroke-linejoin="round">
<use xlink:href="#KnotArc1"/>
<use xlink:href="#KnotArc1" stroke-width="84" stroke="rgb(223,21,42)"/>
<use xlink:href="#KnotArc1" transform="scale(-1,1)"/>
<use xlink:href="#KnotArc1" transform="scale(-1,1)" stroke-width="84" stroke="rgb(223,21,42)"/>
<use xlink:href="#KnotArc3"/>
<use xlink:href="#KnotArc3" stroke-width="84" stroke="rgb(223,21,42)"/>
<use xlink:href="#KnotArc3" transform="scale(1,-1)"/>
<use xlink:href="#KnotArc3" transform="scale(1,-1)" stroke-width="84" stroke="rgb(223,21,42)"/>
</g>
<path d="M-92.8862,-212.085
C-115.671,-158.407,-158.407,-115.671,-212.085,-92.8862
M92.8862,212.085 C115.671,158.407,158.407,115.671,212.085,92.8862
M-92.8862,387.914 C-115.671,441.593,-158.407,484.329,-212.085,507.114
M92.8862,-387.914 C115.671,-441.593,158.407,-484.329,212.085,-507.114
M-387.914,92.8862 C-414.505,104.173,-438.673,120.475,-459.099,140.901
L-510.099,191.901
M387.914,-92.8862 C414.505,-104.173,438.673,-120.475,459.099,-140.901
L510.099,-191.901
M-387.914,-507.114 C-414.505,-495.827,-438.673,-479.525,-459.099,-459.099
L-510.099,-408.099
M387.914,507.114 C414.505,495.827,438.673,479.525,459.099,459.099
L510.099,408.099
M819.475,382.127 C795.002,434.61,765.543,484.621,731.506,531.47
M-819.475,-382.127 C-795.002,-434.61,-765.543,-484.621,-731.506,-531.47
M-438.36,790.823 C-507.471,752.514,-571.263,705.311,-628.104,650.42
M438.36,-790.823 C507.471,-752.514,571.263,-705.311,628.104,-650.42
M124.086,-800.071 C113.468,-860.289,61.1467,-904.191,0,-904.191
C-63.1819,-904.191,-126.19,-897.568,-187.992,-884.432
M-351,249 L-249,351
M351,-249 L249,-351
M51,651 L-51,549
M651,51 L549,-51
M-549,51 L-651,-51
M669.198,351 L567.198,249
M-567.198,351 L-669.198,249
M669.198,-249 L567.198,-351
M-567.198,-249 L-669.198,-351
M89.9009,510.099 L191.901,408.099
M408.099,191.901 L510.099,89.9009
M-510.099,-89.9009 L-408.099,-191.901
M-191.901,-408.099 L-89.9009,-510.099
M-711.198,393 L-837.198,519
M711.198,-393 L837.198,-519
M904.191,679.191 V904.191 H679.191
M-904.191,-679.191 V-904.191 H-679.191
M904.191,-679.191 V-904.191 H679.191
M-904.191,679.191 V904.191 H-679.191"/>
<path stroke-width="84" stroke="rgb(223,21,42)" d="M-91.3835,-215.713
C-114.248,-159.122,-159.122,-114.248,-215.713,-91.3835
M91.3835,215.713 C114.248,159.122,159.122,114.248,215.713,91.3835
M-91.3835,384.286 C-114.248,440.878,-159.122,485.752,-215.713,508.616
M91.3835,-384.286 C114.248,-440.878,159.122,-485.752,215.713,-508.616
M-384.286,91.3835 C-412.295,102.7,-437.738,119.54,-459.099,140.901
L-513.099,194.901
M384.286,-91.3835 C412.295,-102.7,437.738,-119.54,459.099,-140.901
L513.099,-194.901
M-384.286,-508.616 C-412.295,-497.3,-437.738,-480.459,-459.099,-459.099
L-513.099,-405.099
M384.286,508.616 C412.295,497.3,437.738,480.459,459.099,459.099
L513.099,405.099
M826.019,367.768 C798.175,430.307,763.318,489.482,722.119,544.156
M-826.019,-367.768 C-798.175,-430.307,-763.318,-489.482,-722.119,-544.156
M-424.492,798.353 C-503.595,756.293,-576.009,702.709,-639.359,639.359
M424.492,-798.353 C503.595,-756.293,576.009,-702.709,639.359,-639.359
M124.449,-797.902 C114.753,-859.117,61.9783,-904.191,0,-904.191
C-68.458,-904.191,-136.695,-896.416,-203.399,-881.016
M-354,246 L-246,354
M354,-246 L246,-354
M54,654 L-54,546
M654,54 L546,-54
M-546,54 L-654,-54
M672.198,354 L564.198,246
M-564.198,354 L-672.198,246
M672.198,-246 L564.198,-354
M-564.198,-246 L-672.198,-354
M86.9009,513.099 L194.901,405.099
M405.099,194.901 L513.099,86.9009
M-513.099,-86.9009 L-405.099,-194.901
M-194.901,-405.099 L-86.9009,-513.099
M-708.198,390 L-840.198,522
M708.198,-390 L840.198,-522
M904.191,676.191 V904.191 H676.191
M-904.191,-676.191 V-904.191 H-676.191
M904.191,-676.191 V-904.191 H676.191
M-904.191,676.191 V904.191 H-676.191"/>
</g></svg>
