<?xml version="1.0" standalone="no"?>
<svg xmlns="http://www.w3.org/2000/svg" width="633" height="600" viewBox="0 0 633 600">
<title>Penrose pentagram</title>
<g transform="translate(320,327)scale(0.318,-0.318)">
<path d="M-974.944,268.177L-911.067,356.099H-258.72L-46.2234,1010.1
L57.133,976.517L258.72,356.099H946.378V247.424L418.618,-136.017
L631.117,-790.018L527.76,-823.601L0,-440.161L-556.326,-844.357
L-620.204,-756.437L-418.618,-136.017Z
M314.417,184.681L362.922,35.3991L568.391,184.681Z
M-78.4813,356.099H78.481L0,597.639Z
M-568.389,184.681L-362.922,35.4L-314.417,184.681Z
M-351.284,-483.501L-145.816,-334.22L-272.802,-241.959Z
M145.816,-334.22L351.284,-483.5L272.802,-241.959Z
M-217.105,-70.5415L0,-228.278L217.105,-70.5424L134.178,184.681H-134.178Z"/>
<path fill="#ff0000" d="M17.0132,-240.639L64.4019,-275.069L905.601,336.099
H265.218L283.319,280.39H734.148Z
M-941.351,280.39H103.08L84.9794,336.099H-900.877Z
M-391.087,-606.001L-81.4142,-381.01L-128.803,-346.58L-361.798,-515.861Z"/>
<path fill="#00cf00" d="M-24.2276,981.924L298.521,-11.3909L345.909,23.0385
L41.261,960.645Z
M-697.193,184.681L-387.521,-40.309L-369.42,15.4001L-602.415,184.681Z
M-241.705,-146.251L599.495,-757.418L401.605,-148.378L354.217,-182.807
L493.531,-611.57L-223.604,-90.5415Z"/>
<path fill="#fff700" d="M289.818,260.389L307.918,204.681H595.917
L672.594,260.389Z
M-930.2,260.389L-412.12,-116.018L-394.019,-60.309L-758.747,204.681H127.68
L109.579,260.389Z
M-266.304,-221.959L531.272,-801.431L596.76,-780.152L-248.203,-166.251Z"/>
<path fill="#00add0" d="M289.815,-229.598L378.811,-503.501L455.489,-559.21
L337.204,-195.168Z
M-237.691,356.099H-179.116L-39.803,784.861L234.118,-58.1817L281.508,-23.7516
L-39.803,965.138Z
M-598.034,-752.925L-557.56,-808.633L-234.813,184.681H-293.388Z"/>
<path fill="#4400ff" d="M-158.087,356.099H-99.5106L-10.5146,630L-39.803,720.139Z
M-535.093,-804.209L-17.0127,-427.801L-64.4012,-393.371L-429.129,-658.362
L-155.208,184.681H-213.784Z
M81.4149,-287.429L128.803,-321.859L926.378,257.614V326.473Z"/></g></svg>
