<?xml version="1.0" standalone="no"?>
<!DOCTYPE svg PUBLIC "-//W3C//DTD SVG 1.0//EN" "http://www.w3.org/TR/2001/REC-SVG-20010904/DTD/svg10.dtd">
<svg width="660" height="660" viewBox="0 0 660 660" xmlns="http://www.w3.org/2000/svg" xmlns:svg="http://www.w3.org/2000/svg">
<title>Five-fold radial labyrinth</title>
<circle cx="330" cy="330" r="318.75" fill="#ffffff"/>
<path transform="translate(330,330) scale(1,-1)" d="M-318.75,0
C-318.75,138.088,-229.828,260.473,-98.499,303.149
L-92.652,305.049
L-12.0505,70.2216
C-8.07352,70.9041,-4.04221,71.25,0,71.25
C4.04569,71.25,8.08054,70.9053,12.0609,70.2216
L84.9375,281.269
L90.7737,279.373
C211.803,240.048,293.75,127.257,293.75,0
C293.75,-162.228,162.228,-293.75,0,-293.75
C-162.228,-293.75,-293.75,-162.228,-293.75,0
C-293.75,94.03,-248.734,182.38,-172.662,237.648
L-167.605,241.322
L-20.4007,38.7123
C-14.3095,41.9289,-7.36743,43.75,0,43.75
C7.3674,43.75,14.3095,41.9289,20.4006,38.7123
L152.91,221.097
L157.967,217.423
C227.565,166.858,268.75,86.0273,268.75,0
C268.75,-148.421,148.421,-268.75,0,-268.75
C-148.421,-268.75,-268.75,-148.421,-268.75,0
C-268.75,56.7541,-250.78,112.05,-217.423,157.967
L-213.673,163.129
L-51.1235,39.7967
C-48.4132,37.7403,-47.7811,34.3524,-49.604,31.4798
C-54.9063,23.1243,-58.0126,13.5496,-58.6339,3.67366
C-58.8464,0.295586,-61.3154,-2.07277,-64.6989,-2.16631
L-206.162,-6.07717
C-202.948,-117.18,-111.881,-206.25,0,-206.25
C113.914,-206.25,206.25,-113.914,206.25,0
C206.25,19.5579,203.468,39.0061,197.996,57.7613
L85.1487,21.0947
C81.8675,20.0286,78.3393,21.8263,77.2732,25.1074
C76.2071,28.3886,78.0048,31.9168,81.2859,32.9829
L206.112,73.5414
L208.043,67.5974
C215.135,45.7659,218.75,22.9545,218.75,0
C218.75,-120.806,120.806,-218.75,0,-218.75
C-120.806,-218.75,-218.75,-120.806,-218.75,0
L-218.75,6.0796
L-70.5193,10.1776
C-69.3593,18.2151,-66.8334,25.9958,-63.0516,33.182
L-210.998,145.409
C-240.44,102.688,-256.25,51.9848,-256.25,0
C-256.25,-141.529,-141.529,-256.25,0,-256.25
C141.529,-256.25,256.25,-141.529,256.25,0
C256.25,79.9406,218.954,155.172,155.631,203.575
L30.5082,31.3578
C38.6764,23.4096,43.75,12.2973,43.75,0
C43.75,-2.53581,43.5343,-5.02123,43.1201,-7.43891
L162.422,-46.2024
L160.491,-52.1465
C137.9,-121.673,73.1041,-168.75,0,-168.75
C-54.0168,-168.75,-104.767,-142.887,-136.521,-99.1885
L-140.352,-93.9164
L-53.5426,-36.227
C-50.753,-34.3732,-47.4026,-34.8679,-45.2676,-37.4487
C-38.9598,-45.0734,-30.8281,-50.9814,-21.6273,-54.6242
C-18.6139,-55.8173,-17.106,-58.6955,-17.8407,-61.8521
L-27.3414,-102.672
C-18.4295,-105.045,-9.23837,-106.25,0,-106.25
C20.3484,-106.25,40.2235,-100.408,57.2877,-89.4829
L46.3748,-74.4624
C44.347,-71.6713,44.9665,-67.7603,47.7576,-65.7324
C50.5487,-63.7046,54.4597,-64.3241,56.4876,-67.1152
L74.8556,-92.3971
L69.7994,-96.0707
C49.5114,-110.811,25.0771,-118.75,0,-118.75
C-12.4607,-118.75,-24.8443,-116.789,-36.6957,-112.938
L-42.1523,-111.165
L-31.1889,-64.0609
C-38.621,-60.4425,-45.3668,-55.5581,-51.1235,-49.6279
L-122.465,-97.0381
C-92.9066,-134.348,-47.8366,-156.25,0,-156.25
C65.6027,-156.25,123.97,-115.316,146.553,-54.1895
L39.26,-19.328
C33.0026,-32.0141,20.7774,-41.2289,6.25,-43.3069
L6.25,-81.0092
C10.9289,-80.6482,15.5686,-79.8824,20.1167,-78.7201
L17.7352,-61.2809
C17.3275,-58.2953,18.8253,-55.7334,21.627,-54.6242
C30.8279,-50.9814,38.9598,-45.0732,45.2676,-37.4487
C47.3799,-34.8955,50.6816,-34.3838,53.4675,-36.1781
L120.182,-79.1454
L116.296,-84.4939
C89.2488,-121.72,46.0142,-143.75,0,-143.75
C-30.3567,-143.75,-59.9333,-134.137,-84.4939,-116.296
L-89.5503,-112.623
L-56.4876,-67.1152
C-54.4597,-64.3241,-50.5487,-63.7046,-47.7576,-65.7324
C-44.9665,-67.7603,-44.347,-71.6713,-46.3748,-74.4624
L-72.0028,-109.737
C-50.6502,-123.747,-25.6291,-131.25,0,-131.25
C39.7998,-131.25,77.3199,-113.202,102.157,-82.4047
L51.1781,-49.5718
C45.2988,-55.6415,38.3845,-60.6187,30.7591,-64.2682
L33.9381,-87.5472
L28.9702,-89.1614
C19.6141,-92.2014,9.83754,-93.75,0,-93.75
L-6.25,-93.75
V-43.3069
C-20.7774,-41.2289,-33.0026,-32.0141,-39.26,-19.328
L-170.346,-61.9204
C-144.403,-133.346,-76.4346,-181.25,0,-181.25
C98.0851,-181.25,177.964,-103.352,181.151,-6.04217
L64.6637,-2.16631
C61.2949,-2.0542,58.8455,0.309617,58.6339,3.67366
C58.0127,13.5496,54.9065,23.1245,49.6042,31.4798
C47.7853,34.346,48.3907,37.737,51.0891,39.7967
L193.436,148.45
L197.197,143.273
C227.452,101.627,243.75,51.4746,243.75,0
C243.75,-134.613,134.613,-243.75,0,-243.75
C-134.613,-243.75,-243.75,-134.613,-243.75,0
C-243.75,25.578,-239.724,50.9968,-231.82,75.3227
L-229.889,81.25
L-81.2859,32.9829
C-78.0048,31.9168,-76.2071,28.3886,-77.2732,25.1074
C-78.3393,21.8263,-81.8675,20.0286,-85.1487,21.0947
L-221.783,65.4898
C-228.058,44.2371,-231.25,22.1815,-231.25,0
C-231.25,-127.721,-127.721,-231.25,0,-231.25
C127.721,-231.25,231.25,-127.721,231.25,0
C231.25,46.6986,217.113,92.2512,190.776,130.694
L63.0439,33.182
C66.8348,25.9825,69.365,18.2004,70.5237,10.1464
L193.75,6.04546
V0
C193.75,-106.999,106.999,-193.75,0,-193.75
C-83.9349,-193.75,-158.33,-139.699,-184.267,-59.872
L-186.198,-53.9279
L-43.1201,-7.43897
C-43.5343,-5.02127,-43.75,-2.53583,-43.75,0
C-43.75,12.2966,-38.677,23.4083,-30.5096,31.3564
L-170.346,223.806
C-240.141,170.695,-281.25,87.9437,-281.25,0
C-281.25,-155.336,-155.336,-281.25,0,-281.25
C155.336,-281.25,281.25,-155.336,281.25,0
C281.25,119.798,205.411,226.196,92.7254,265.526
L22.0725,60.9178
C20.9602,57.6965,17.9115,56.0567,14.6106,56.9041
C9.83689,58.1296,4.92791,58.75,0,58.75
C-4.92791,58.75,-9.83668,58.1297,-14.6104,56.9041
C-17.9158,56.0555,-20.9682,57.6901,-22.0761,60.9178
L-100.463,289.303
C-223.444,246.619,-306.25,130.625,-306.25,0
C-306.25,-169.143,-169.143,-306.25,0,-306.25
C169.143,-306.25,306.25,-169.143,306.25,0
C306.25,167.055,172.508,302.86,6.25,306.188
L6.25,87.5
C6.25,84.05,3.45,81.25,0,81.25
C-3.45,81.25,-6.25,84.05,-6.25,87.5
L-6.25,318.75
H0
C176.035,318.75,318.75,176.035,318.75,0
C318.75,-176.035,176.035,-318.75,0,-318.75
C-176.035,-318.75,-318.75,-176.035,-318.75,0Z"/>
</svg>
