<?xml version="1.0" standalone="no"?>
<svg xmlns="http://www.w3.org/2000/svg" width="600" height="600" viewBox="-2880 -2880 5760 5760">
  <g transform="scale(1 -1)">
    <circle r="2829.93" stroke="#000" stroke-width="4"/>
    <path fill="red" d="M-1807.1 1443.14c0-465.608 351.66-955.157 901.742-955.157 392.334 0 692.872 295.162 692.872 626.067 0 298.22-220.222 441.83-367.036 441.83-129.329 0-212.93-81.11-212.93-155.87 0-36.76 12.822-55.26 34.321-65.88l.604.56c26.875 24.76 65.033 40.39 99.612 40.39 106.07 0 201.168-105.04 201.168-238.39 0-171.599-155.376-386.313-453.947-386.313-322.366 0-627.666 294.643-627.666 699.103 0 513.13 451.16 901.16 958.623 901.16 700.288 0 1178.178-607.16 1178.178-1224.67 0-186.639-38.876-383.593-106.153-547.449C450.593 476.973 415.7 327.449 415.7 159.796c0-465.611 351.662-955.147 901.75-955.147 392.33 0 692.86 295.186 692.86 626.091 0 298.202-220.22 441.805-367.03 441.805-129.21 0-212.93-81.017-212.93-155.877 0-52.6115 28.07-62.5747 34.43-65.7644 26.65 24.9293 65.35 40.8373 100.1 40.8373 111.75 0 201.17-112.3528 201.17-238.3989 0-171.417-155.22-386.298-453.94-386.298-322.376 0-627.668 294.638-627.668 699.122 0 512.751 450.798 901.134 958.628 901.134 461.33 0 760.11-257.328 919.29-459.212 40.69-51.606 90.45-105.863 137.76-149.963C2482.14 1752.37 1356.25 2738.27 0 2738.27c-402.519 0-773.799-87.4-1092.3-226.76-380.85-167.39-558.13-459.33-630.54-630.9-50.9-120.61-84.26-278.82-84.26-437.47ZM66.6214 2467.34C902.182 2444.88 1685.83 1998.47 2124.48 1256.48c-177.15 63.43-328.89 83.07-469.92 83.07-336.18 0-604.21-124.44-783.155-261.96.246 12.05.37 24.1.37 36.11 0 582.18-315.974 1097.53-805.1536 1353.64Z"/>
    <path fill="#3380E0" d="M-1446.69-1117.19c0-354.36 264.36-607.43 535.996-607.43 234.287 0 362.28 160.31 362.28 294.65 0 72.87-47.785 146.71-109.501 146.71-2.95 0-14.714-.4-30.387-10.72 2.601-11.35 3.753-22.74 3.753-34.04 0-97.96-90.778-164.39-188.041-164.39-158.61 0-315.76 143.75-315.76 377.1 0 250.116 231.762 540.358 615.287 540.358 444.265 0 809.143-392.631 809.143-871.128 0-620.58-509.018-1016.29-990.699-1077.04-65.197-9.47-137.256-25.49-199.192-44.46C-656.8-2677.96-335.446-2738.27 0-2738.27c1277.83 0 2351.17 875.19 2653.33 2058.869 16.27 63.74 76.24 313.228 76.24 522.047 0 296.138-124.16 556.685-239.53 709.109-61.36 81.07-338.79 423.882-846.97 423.882-436.34 0-866.962-328.679-866.962-809.471 0-354.377 264.362-607.456 536.002-607.456 234.28 0 362.27 160.306 362.27 294.632 0 73.4577-48.23 146.7321997-109.5 146.7321997-12.17 0-25.24-7.1199497-30.42-10.5827997 2.64-11.4944 3.79-22.8801 3.79-34.1821 0-97.6593-90.45-164.3853-188.03-164.3853-159.05 0-315.77 144.247-315.77 377.095 0 251.562 233.24 540.362 615.3 540.362 446.31 0 809.13-394.843 809.13-871.144 0-664.913-585.02-1085.777-1135.52-1085.777-538.69 0-892.3 305.41-1068.489 532.945-133.176 171.987-417.149 407.903-834.608 407.903-436.333 0-866.953-328.702-866.953-809.498ZM25.9045-2468.1C493.28-2071.6 507.748-1579.45 507.748-1457.04c0 57.5-3.471 112.55-10.242 163.66 215.079-130.1 488.24-228.2 813.734-228.2 247.59 0 524.52 60.52 792.22 230.21C1652.64-2026.02 861.774-2459.33 25.9045-2468.1Z"/>
    <path fill="#0B0" d="M-2738.27 0c0-767.169 315.46-1460.63 823.74-1957.76 324.96-317.83 609.05-482.44 1015.085-482.44 45.469 0 89.952 2.6 132.34 7.9 430.564 53.87 911.519 407.93 911.519 986.22 0 403.1-301.663 779.461-717.477 779.461-325.752 0-523.617-242.207-523.617-448.691 0-172.92 108.59-285.43 224.09-285.43 49.527 0 96.374 30.02 96.374 72.72 0 1.24-.033 2.73-.14 4.4-52.3 16.43-107.762 62.78-107.762 156.96 0 121.25 119.033 247.538 304.596 247.538 198.232 0 458.703-185.358 458.703-533.498 0-381.67-342.228-717.73-784.539-717.73-576.522 0-993.412 503.9-993.412 1046.82 0 679.206 531.99 1181.4549 1151.598 1260.606 425.19 62.674 891.586 413.034 891.586 983.514 0 403.1-301.671 779.46-717.477 779.46-325.569 0-523.617-242.01-523.617-448.7 0-173.18 108.813-285.43 224.09-285.43 49.674 0 96.374 30.13 96.374 72.73 0 1.23-.032 2.73-.139 4.39-51.241 15.47-107.763 62.79-107.763 156.97 0 120.42 118.163 247.54 304.596 247.54 198.232 0 458.703-185.36 458.703-533.5 0-381.667-342.229-717.734-784.539-717.734-576.522 0-993.412 503.896-993.412 1046.824 0 192.61 40.95 346.52 90.97 471.91 24.28 60.86 46.33 130.84 60.86 193.71C-2352.56 1606.49-2738.27 848.307-2738.27 0Zm270.04 0c0 484.644 139.43 894.921 317.84 1211.61 86.43-474.931 391.31-834.504 781.54-995.773-365.53-201.1825-802.61-653.088-802.61-1327.537 0-21.53.45-43 1.33-64.19-224.11 413.519-298.1 830.475-298.1 1175.89Z"/>
    <path fill="#ffe500" d="M-1807.1-1123.53c0-465.61 351.65-955.15 901.742-955.15 392.336 0 692.872 295.16 692.872 626.06 0 298.22-220.222 441.83-367.036 441.83-129.212 0-212.93-81.02-212.93-155.87 0-36.76 12.826-55.27 34.319-65.87 22.424 20.72 60.131 40.94 100.218 40.94 111.934 0 201.168-112.58 201.168-238.38 0-171.78-155.528-386.32-453.947-386.32-322.376 0-627.666 294.64-627.666 699.1 0 513.13 451.16 901.165 958.623 901.165 459.143 0 766.873-262.572 907.028-443.38C520.736-908.96 856.484-1156.87 1323.36-1156.87c586 0 1043.85 460.984 1043.85 994.107 0 404.512-302.88 779.477-717.46 779.477-325.59 0-523.63-242.013-523.63-448.695 0-172.92004 108.59-285.428 224.1-285.428 49.47 0 96.36 29.9763 96.36 72.7183 0 1.2371-.03 2.7332-.14 4.4029-52.04 16.1209-107.76 62.7823-107.76 156.9558 0 121.256 119.03 247.543 304.6 247.543 198.23 0 458.7-185.354 458.7-533.471 0-380.136-340.55-717.757-784.53-717.757-574.064 0-993.416 501.179-993.416 1046.813 0 181.177 38.399 343.558 83.382 453.349 61.68 150.545 99.358 338.733 99.358 512.825 0 613.31-481.3522 1133.01-1086.511 1133.01-436.323 0-866.953-328.7-866.953-809.5 0-354.36 264.37-607.437 535.996-607.437 234.402 0 362.28 160.597 362.28 294.647 0 73.45-48.249 146.72-109.501 146.72-12.169 0-25.239-7.12-30.422-10.59 2.637-11.49 3.788-22.87 3.788-34.17 0-97.66-90.393-164.39-188.041-164.39-158.6 0-315.76 143.75-315.76 377.09 0 250.36 231.974 540.36 615.287 540.36 444.262 0 809.143-392.63 809.143-871.12 0-613.261-495.507-1004.515-970.788-1074.3297C-1250.36-19.4053-1807.1-439.167-1807.1-1123.53Z"/>
  </g>
</svg>