<?xml version="1.0" standalone="no"?>
<!DOCTYPE svg PUBLIC "-//W3C//DTD SVG 1.0//EN" "http://www.w3.org/TR/2001/REC-SVG-20010904/DTD/svg10.dtd">
<svg width="630" height="600" viewBox="0 0 630 600" xmlns="http://www.w3.org/2000/svg" xmlns:svg="http://www.w3.org/2000/svg" xmlns:xlink="http://www.w3.org/1999/xlink">
<title>Five interlaced crescents pattern</title>
<g transform="translate(315,308) scale(0.52,-0.52)">
<path stroke-width="15" stroke="#ffffff" stroke-linejoin="round" fill="none" d="M-449.473,-382.621
C-447.651,-383.995,-445.816,-385.353,-443.97,-386.694
C-410.668,-410.889,-373.765,-429.692,-334.616,-442.413
C-295.467,-455.133,-254.56,-461.612,-213.396,-461.612
C-172.233,-461.612,-131.325,-455.133,-92.1763,-442.413
C-53.0276,-429.693,-16.1245,-410.889,17.1775,-386.694
C50.4792,-362.499,79.7659,-333.212,103.961,-299.91
C128.156,-266.608,146.96,-229.705,159.68,-190.556
C172.4,-151.407,178.879,-110.5,178.879,-69.3367
C178.879,-28.1731,172.4,12.7344,159.68,51.8831
C146.96,91.0317,128.157,127.935,103.961,161.237
C79.7661,194.539,50.4797,223.825,17.1777,248.021
C-16.1243,272.216,-53.0276,291.019,-92.1765,303.74
C-131.325,316.46,-172.233,322.939,-213.396,322.939
C-254.56,322.939,-295.467,316.46,-334.616,303.74
C-373.765,291.02,-410.668,272.216,-443.97,248.021
C-477.272,223.826,-506.558,194.539,-530.754,161.237
C-554.949,127.935,-573.752,91.0322,-586.472,51.8833
C-587.177,49.7129,-587.864,47.5361,-588.531,45.3538
C-576.667,78.8557,-560.033,110.472,-539.143,139.225
C-516.346,170.602,-488.752,198.196,-457.375,220.993
C-425.998,243.79,-391.228,261.506,-354.341,273.491
C-317.455,285.476,-278.912,291.581,-240.128,291.58
C-201.344,291.58,-162.801,285.476,-125.915,273.491
C-89.0286,261.506,-54.2583,243.79,-22.8811,220.993
C8.49634,198.196,36.0901,170.602,58.887,139.225
C81.6838,107.847,99.4001,73.0771,111.385,36.1912
C123.37,-0.694824,129.474,-39.238,129.474,-78.0225
C129.474,-116.807,123.37,-155.35,111.385,-192.236
C99.3999,-229.122,81.6836,-263.892,58.8867,-295.27
C36.0898,-326.646,8.49585,-354.24,-22.8811,-377.037
C-54.2583,-399.834,-89.0286,-417.55,-125.915,-429.535
C-162.801,-441.52,-201.344,-447.625,-240.128,-447.625
C-278.912,-447.625,-317.456,-441.52,-354.342,-429.535
C-388.143,-418.553,-420.184,-402.752,-449.473,-382.621Z
M-502.79,309.238
C-503.532,307.08,-504.257,304.916,-504.962,302.745
C-517.682,263.597,-524.161,222.689,-524.161,181.525
C-524.161,140.362,-517.682,99.4546,-504.962,60.3059
C-492.242,21.157,-473.439,-15.7463,-449.243,-49.0483
C-425.048,-82.3503,-395.761,-111.637,-362.46,-135.832
C-329.158,-160.027,-292.255,-178.83,-253.106,-191.551
C-213.957,-204.271,-173.05,-210.75,-131.886,-210.75
C-90.7224,-210.75,-49.8149,-204.27,-10.6663,-191.55
C28.4827,-178.83,65.3857,-160.027,98.6877,-135.832
C131.99,-111.636,161.276,-82.3501,185.471,-49.0483
C209.667,-15.7463,228.47,21.157,241.19,60.3059
C253.91,99.4546,260.389,140.362,260.389,181.526
C260.389,222.689,253.91,263.597,241.19,302.745
C228.47,341.894,209.667,378.797,185.471,412.099
C161.276,445.401,131.99,474.688,98.688,498.883
C65.386,523.078,28.4827,541.881,-10.6663,554.602
C-49.8149,567.322,-90.7224,573.801,-131.886,573.801
C-134.168,573.801,-136.45,573.781,-138.732,573.741
C-103.204,572.811,-67.9949,566.761,-34.1936,555.778
C2.69238,543.793,37.4626,526.077,68.8401,503.28
C100.217,480.483,127.811,452.889,150.608,421.512
C173.405,390.135,191.121,355.365,203.106,318.479
C215.091,281.593,221.196,243.05,221.196,204.265
C221.196,165.481,215.091,126.938,203.106,90.0515
C191.121,53.1655,173.405,18.3953,150.608,-12.9819
C127.811,-44.3591,100.217,-71.9529,68.8398,-94.7498
C37.4629,-117.547,2.69263,-135.263,-34.1936,-147.248
C-71.0796,-159.233,-109.623,-165.338,-148.407,-165.338
C-187.192,-165.338,-225.735,-159.233,-262.621,-147.248
C-299.507,-135.263,-334.277,-117.547,-365.654,-94.7498
C-397.031,-71.9529,-424.625,-44.3591,-447.422,-12.9822
C-470.219,18.395,-487.935,53.1653,-499.92,90.0515
C-511.905,126.938,-518.01,165.481,-518.01,204.265
C-518.01,239.806,-512.884,275.161,-502.79,309.238Z
M138.732,573.741
C136.45,573.781,134.168,573.801,131.886,573.801
C90.7224,573.801,49.8149,567.322,10.6663,554.602
C-28.4827,541.881,-65.386,523.078,-98.688,498.883
C-131.99,474.688,-161.276,445.401,-185.471,412.099
C-209.667,378.797,-228.47,341.894,-241.19,302.745
C-253.91,263.597,-260.389,222.689,-260.389,181.526
C-260.389,140.362,-253.91,99.4546,-241.19,60.3059
C-228.47,21.157,-209.667,-15.7463,-185.471,-49.0483
C-161.276,-82.3501,-131.99,-111.636,-98.6877,-135.832
C-65.3857,-160.027,-28.4827,-178.83,10.6663,-191.55
C49.8149,-204.27,90.7224,-210.75,131.886,-210.75
C173.05,-210.75,213.957,-204.271,253.106,-191.551
C292.255,-178.83,329.158,-160.027,362.46,-135.832
C395.761,-111.637,425.048,-82.3503,449.243,-49.0483
C473.439,-15.7463,492.242,21.157,504.962,60.3059
C517.682,99.4546,524.161,140.362,524.161,181.525
C524.161,222.689,517.682,263.597,504.962,302.745
C504.257,304.916,503.532,307.08,502.79,309.238
C512.884,275.161,518.01,239.806,518.01,204.265
C518.01,165.481,511.905,126.938,499.92,90.0515
C487.935,53.1653,470.219,18.395,447.422,-12.9822
C424.625,-44.3591,397.031,-71.9529,365.654,-94.7498
C334.277,-117.547,299.507,-135.263,262.621,-147.248
C225.735,-159.233,187.192,-165.338,148.407,-165.338
C109.623,-165.338,71.0796,-159.233,34.1936,-147.248
C-2.69263,-135.263,-37.4629,-117.547,-68.8398,-94.7498
C-100.217,-71.9529,-127.811,-44.3591,-150.608,-12.9822
C-173.405,18.3953,-191.121,53.1655,-203.106,90.0515
C-215.091,126.938,-221.196,165.481,-221.196,204.265
C-221.196,243.05,-215.091,281.593,-203.106,318.479
C-191.121,355.365,-173.405,390.135,-150.608,421.512
C-127.811,452.889,-100.217,480.483,-68.8401,503.28
C-37.4626,526.077,-2.69238,543.793,34.1936,555.778
C67.9949,566.761,103.204,572.811,138.732,573.741Z
M588.531,45.3538
C587.864,47.5361,587.177,49.7129,586.472,51.8833
C573.752,91.0322,554.949,127.935,530.754,161.237
C506.558,194.539,477.272,223.826,443.97,248.021
C410.668,272.216,373.765,291.02,334.616,303.74
C295.467,316.46,254.56,322.939,213.396,322.939
C172.233,322.939,131.325,316.46,92.1765,303.74
C53.0276,291.019,16.1243,272.216,-17.1777,248.021
C-50.4797,223.825,-79.7661,194.539,-103.961,161.237
C-128.157,127.935,-146.96,91.0317,-159.68,51.8831
C-172.4,12.7344,-178.879,-28.1731,-178.879,-69.3367
C-178.879,-110.5,-172.4,-151.407,-159.68,-190.556
C-146.96,-229.705,-128.156,-266.608,-103.961,-299.91
C-79.7659,-333.212,-50.4792,-362.499,-17.1775,-386.694
C16.1245,-410.889,53.0276,-429.693,92.1763,-442.413
C131.325,-455.133,172.233,-461.612,213.396,-461.612
C254.56,-461.612,295.467,-455.133,334.616,-442.413
C373.765,-429.692,410.668,-410.889,443.97,-386.694
C445.816,-385.353,447.651,-383.995,449.473,-382.621
C420.184,-402.752,388.143,-418.553,354.342,-429.535
C317.456,-441.52,278.912,-447.625,240.128,-447.625
C201.344,-447.625,162.801,-441.52,125.915,-429.535
C89.0286,-417.55,54.2583,-399.834,22.8811,-377.037
C-8.49585,-354.24,-36.0898,-326.646,-58.8867,-295.27
C-81.6836,-263.892,-99.3999,-229.122,-111.385,-192.236
C-123.37,-155.35,-129.474,-116.807,-129.474,-78.0225
C-129.474,-39.238,-123.37,-0.694824,-111.385,36.1912
C-99.4001,73.0771,-81.6838,107.847,-58.887,139.225
C-36.0901,170.602,-8.49634,198.196,22.8809,220.993
C54.2583,243.79,89.0286,261.506,125.915,273.491
C162.801,285.476,201.344,291.58,240.128,291.58
C278.912,291.581,317.455,285.476,354.341,273.491
C391.228,261.506,425.998,243.79,457.375,220.993
C488.752,198.196,516.346,170.602,539.143,139.225
C560.033,110.472,576.667,78.8557,588.531,45.3538Z
M225,-545.711
C226.869,-544.402,228.728,-543.077,230.574,-541.735
C263.876,-517.54,293.162,-488.253,317.357,-454.951
C341.553,-421.649,360.356,-384.746,373.076,-345.598
C385.796,-306.449,392.275,-265.541,392.275,-224.378
C392.275,-183.214,385.796,-142.307,373.076,-103.158
C360.356,-64.0095,341.553,-27.1062,317.357,6.1958
C293.162,39.4978,263.876,68.7842,230.574,92.9795
C197.272,117.175,160.368,135.978,121.22,148.698
C82.0708,161.418,41.1633,167.897,0,167.897
C-41.1633,167.897,-82.0708,161.418,-121.22,148.698
C-160.368,135.978,-197.272,117.175,-230.574,92.9795
C-263.876,68.7842,-293.162,39.4978,-317.357,6.1958
C-341.553,-27.1062,-360.356,-64.0095,-373.076,-103.158
C-385.796,-142.307,-392.275,-183.214,-392.275,-224.378
C-392.275,-265.541,-385.796,-306.449,-373.076,-345.598
C-360.356,-384.746,-341.553,-421.649,-317.357,-454.951
C-293.162,-488.253,-263.876,-517.54,-230.574,-541.735
C-228.728,-543.077,-226.869,-544.402,-225,-545.711
C-253.196,-524.075,-278.125,-498.485,-299.015,-469.732
C-321.812,-438.355,-339.528,-403.585,-351.513,-366.699
C-363.498,-329.813,-369.603,-291.27,-369.603,-252.485
C-369.603,-213.701,-363.498,-175.158,-351.513,-138.272
C-339.528,-101.386,-321.812,-66.6157,-299.015,-35.2385
C-276.218,-3.86133,-248.624,23.7327,-217.247,46.5295
C-185.87,69.3264,-151.1,87.0427,-114.213,99.0276
C-77.3274,111.012,-38.7844,117.117,0,117.117
C38.7844,117.117,77.3274,111.012,114.213,99.0276
C151.1,87.0427,185.87,69.3264,217.247,46.5295
C248.624,23.7327,276.218,-3.86133,299.015,-35.2385
C321.812,-66.6157,339.528,-101.386,351.513,-138.272
C363.498,-175.158,369.603,-213.701,369.603,-252.485
C369.603,-291.27,363.498,-329.813,351.513,-366.699
C339.528,-403.585,321.812,-438.355,299.015,-469.732
C278.125,-498.485,253.196,-524.075,225,-545.711Z"/>
<path fill="#ff3333" d="M-192.01,-452.782
C-158.961,-450.939,-126.258,-444.829,-94.7209,-434.582
C-64.0037,-424.601,-34.6984,-410.795,-7.48847,-393.512
L0,-388.633
L12.3378,-380.033
L12.7165,-379.758
L19.5995,-374.625
C49.209,-352.027,75.3872,-325.23,97.2997,-295.07
C116.284,-268.94,131.878,-240.547,143.732,-210.571
C139.787,-210.69,135.838,-210.75,131.886,-210.75
C125.845,-210.75,119.81,-210.61,113.785,-210.332
C101.843,-242.275,85.6228,-272.479,65.548,-300.11
C48.3628,-323.763,28.5104,-345.313,6.40702,-364.345
L0,-369.739
L-12.7166,-379.757
L-18.0414,-383.698
L-19.6656,-384.871
C-51.316,-407.612,-86.2978,-425.32,-123.371,-437.366
C-145.755,-444.639,-168.735,-449.794,-192.01,-452.782Z
M89.8499,106.029
C101.783,84.6356,111.624,62.1008,119.216,38.7356
C126.808,15.3699,132.092,-8.64621,135.012,-32.9684
C135.463,-36.7232,135.858,-40.4854,136.196,-44.2536
C137.202,-55.4676,137.708,-66.7351,137.708,-78.0225
C137.708,-82.7682,137.619,-87.5104,137.44,-92.2466
C137.289,-96.2661,137.073,-100.281,136.794,-104.291
C135.374,-124.662,132.306,-144.883,127.619,-164.753
C134.536,-165.143,141.467,-165.338,148.407,-165.338
C151.769,-165.338,155.13,-165.292,158.488,-165.2
C166.552,-133.915,170.645,-101.707,170.645,-69.3367
L170.643,-68.1858
C170.63,-63.9082,170.546,-59.6336,170.391,-55.3638
C169.79,-38.857,168.125,-22.4211,165.413,-6.15772
C164.757,-2.2281,164.041,1.69145,163.263,5.59948
C160.325,20.3694,156.516,34.975,151.849,49.3387
C147.182,63.7022,141.679,77.7569,135.374,91.4331
C128.406,94.1759,121.349,96.709,114.213,99.0276
C106.166,101.642,98.04,103.977,89.8499,106.029Z
M-421.474,253.451
C-400.889,264.712,-379.268,274.049,-356.885,281.322
C-319.813,293.368,-281.103,299.602,-242.131,299.809
L-241.19,302.745
C-239.969,306.503,-238.692,310.241,-237.359,313.957
C-269.531,311.945,-301.354,305.889,-332.072,295.909
C-363.607,285.663,-393.655,271.384,-421.474,253.451Z
M-208.974,298.527
C-179.905,296.122,-151.177,290.357,-123.371,281.322
C-90.8892,270.768,-60.0127,255.867,-31.5757,237.043
L-24.4362,232.199
L-18.0414,227.654
C-11.8826,223.179,-5.86637,218.524,0,213.695
L6.40706,208.301
C21.8783,194.98,36.2465,180.425,49.3692,164.778
C65.7425,162.701,81.9769,159.591,97.9746,155.465
L97.2997,156.397
C78.2728,182.585,56.0305,206.237,31.1175,226.807
L24.436,232.199
L12.3378,241.36
L0,249.96
L-7.48839,254.839
C-34.6982,272.122,-64.0035,285.928,-94.7209,295.909
C-130.177,307.43,-167.106,313.72,-204.343,314.598
C-206.009,309.273,-207.553,303.915,-208.974,298.527Z"/>
<path fill="#4040ff" d="M-489.955,42.6922
C-477.989,11.8312,-462.072,-17.382,-442.582,-44.2086
C-423.597,-70.3379,-401.411,-93.9429,-376.567,-114.48
L-369.612,-120.094
L-357.62,-129.171
L-357.242,-129.446
L-350.233,-134.406
C-319.591,-155.583,-286.017,-172.2,-250.562,-183.72
C-219.844,-193.701,-188.021,-199.757,-155.849,-201.768
C-157.182,-198.052,-158.459,-194.314,-159.68,-190.556
C-161.547,-184.811,-163.279,-179.029,-164.876,-173.213
C-198.946,-171.726,-232.684,-165.633,-265.165,-155.079
C-292.972,-146.044,-319.602,-133.823,-344.533,-118.683
L-351.643,-114.256
L-365.1,-105.258
L-370.494,-101.411
L-372.112,-100.229
C-403.519,-77.1547,-431.171,-49.3573,-454.083,-17.822
C-467.917,1.21843,-479.92,21.4807,-489.955,42.6922Z
M-117.252,-172.285
C-115.486,-178.983,-113.529,-185.636,-111.385,-192.236
L-108.139,-201.781
C-75.8936,-199.783,-43.9967,-193.723,-13.2107,-183.72
L-12.1169,-183.363
C-8.05248,-182.029,-4.01299,-180.628,0,-179.16
C15.5134,-173.488,30.6307,-166.825,45.26,-159.22
L55.7779,-153.542
C68.9165,-146.183,81.6298,-138.048,93.848,-129.171
C106.066,-120.294,117.732,-110.717,128.79,-100.495
C129.246,-93.0202,129.474,-85.5259,129.474,-78.0225
C129.474,-69.5613,129.183,-61.1115,128.605,-52.688
C111.946,-70.6474,93.5553,-86.9704,73.6796,-101.411
C53.8037,-115.852,32.5961,-128.298,10.3673,-138.592
L0,-143.206
C-10.3543,-147.628,-20.9141,-151.591,-31.6492,-155.079
C-36.1627,-156.546,-40.7005,-157.926,-45.26,-159.22
C-49.1297,-160.318,-53.015,-161.354,-56.9145,-162.327
C-76.7275,-167.272,-96.9064,-170.602,-117.252,-172.285Z
M171.969,3.96641
C175.053,-12.2477,177.113,-28.6487,178.132,-45.1388
L178.81,-44.2086
C197.837,-18.0203,213.458,10.4427,225.322,40.4927
L228.386,48.5139
C230.137,53.2562,231.795,58.0359,233.359,62.8503
C234.909,67.6217,236.365,72.4199,237.725,77.2419
L240.052,85.872
C248.081,117.091,252.155,149.228,252.155,181.526
C252.155,218.806,246.727,255.871,236.055,291.558
C230.476,291.496,224.903,291.308,219.341,290.995
C226.036,262.606,229.43,233.503,229.43,204.265
C229.43,170.113,224.799,136.143,215.685,103.281
L213.284,94.9933
L210.937,87.5071
C208.585,80.2671,206.016,73.1068,203.236,66.0354
L200.086,58.2747
C192.198,39.4445,182.795,21.2819,171.969,3.96641Z
M110.799,479.168
C127.873,463.07,143.435,445.393,157.269,426.352
C180.181,394.816,198.073,359.928,210.313,322.927
C211.34,322.935,212.368,322.939,213.396,322.939
C217.348,322.939,221.297,322.879,225.242,322.76
C213.388,352.736,197.794,381.129,178.81,407.259
C159.318,434.086,136.453,458.251,110.799,479.168Z"/>
<path fill="#ffff00" d="M12.1169,-183.363
L13.2107,-183.72
C43.9967,-193.723,75.8936,-199.783,108.139,-201.781
C110.995,-201.958,113.853,-202.103,116.714,-202.216
C121.766,-202.416,126.824,-202.516,131.886,-202.516
C136.903,-202.516,141.916,-202.418,146.922,-202.222
C149.901,-202.105,152.876,-201.954,155.849,-201.768
C188.021,-199.757,219.844,-193.701,250.562,-183.72
C286.017,-172.2,319.591,-155.583,350.233,-134.406
C348.451,-129.119,346.55,-123.876,344.533,-118.683
C319.602,-133.823,292.972,-146.044,265.165,-155.079
C232.684,-165.633,198.946,-171.726,164.876,-173.213
C162.003,-173.338,159.129,-173.431,156.252,-173.491
C153.638,-173.545,151.023,-173.572,148.407,-173.572
C140.794,-173.572,133.191,-173.342,125.607,-172.883
C122.819,-172.715,120.034,-172.515,117.252,-172.285
C96.9064,-170.602,76.7274,-167.272,56.9144,-162.327
C42.4469,-170.271,27.485,-177.298,12.1169,-183.363Z
M372.112,-100.229
L373.076,-103.158
C374.297,-106.916,375.461,-110.691,376.567,-114.48
C401.411,-93.943,423.597,-70.3379,442.582,-44.2086
C462.073,-17.3817,477.989,11.8308,489.955,42.6922
C479.921,21.4803,467.917,1.21857,454.083,-17.822
C431.171,-49.3576,403.519,-77.1547,372.112,-100.229Z
M-225.322,40.4927
C-213.458,10.4427,-197.837,-18.0203,-178.81,-44.2086
L-178.132,-45.1388
L-170.391,-55.3638
C-160.202,-68.3651,-149.194,-80.6837,-137.44,-92.247
L-128.79,-100.496
C-117.732,-110.717,-106.066,-120.294,-93.848,-129.171
C-81.6298,-138.048,-68.9165,-146.183,-55.7779,-153.542
C-48.5279,-151.665,-41.3298,-149.567,-34.1936,-147.248
C-26.1464,-144.633,-18.1999,-141.746,-10.3673,-138.592
C-32.5961,-128.298,-53.8037,-115.852,-73.6796,-101.411
C-93.5551,-86.9705,-111.946,-70.6474,-128.605,-52.6881
L-136.196,-44.2537
C-143.602,-35.7726,-150.634,-26.954,-157.269,-17.822
L-165.413,-6.15757
L-171.969,3.96663
C-182.795,21.2821,-192.198,39.4447,-200.086,58.2747
C-205.91,54.5248,-211.633,50.6085,-217.247,46.5295
L-225.322,40.4927Z
M-252.155,181.526
C-252.155,149.228,-248.081,117.091,-240.052,85.872
L-230.574,92.9795
C-225.687,96.5301,-220.722,99.9646,-215.685,103.281
C-224.799,136.143,-229.43,170.113,-229.43,204.265
C-229.43,233.503,-226.036,262.606,-219.341,290.995
L-217.328,299.125
C-215.974,304.346,-214.507,309.54,-212.929,314.705
L-210.937,321.023
L-210.313,322.927
C-198.073,359.928,-180.181,394.816,-157.269,426.352
C-143.436,445.392,-127.874,463.07,-110.801,479.168
C-136.454,458.251,-159.319,434.086,-178.81,407.259
C-197.794,381.129,-213.388,352.736,-225.242,322.76
L-228.432,314.411
C-230.166,309.71,-231.809,304.972,-233.359,300.201
L-233.503,299.756
L-236.055,291.558
C-246.727,255.871,-252.155,218.806,-252.155,181.526Z"/>
<path fill="#00f000" d="M7.48831,-393.512
C34.6982,-410.795,64.0035,-424.601,94.7207,-434.582
C126.258,-444.829,158.961,-450.939,192.011,-452.782
C168.736,-449.794,145.755,-444.639,123.371,-437.366
C86.2978,-425.32,51.3158,-407.612,19.6654,-384.871
L17.1775,-386.694
L7.48831,-393.512Z
M-170.645,-69.3367
C-170.645,-101.707,-166.552,-133.915,-158.488,-165.2
L-156.252,-173.491
C-154.881,-178.356,-153.413,-183.198,-151.849,-188.012
C-150.299,-192.783,-148.656,-197.521,-146.922,-202.222
L-143.732,-210.571
C-131.878,-240.547,-116.284,-268.94,-97.2997,-295.07
C-75.3872,-325.23,-49.2092,-352.027,-19.5997,-374.625
L-6.40723,-364.345
C-28.5106,-345.313,-48.3631,-323.763,-65.5483,-300.11
C-85.6231,-272.479,-101.843,-242.275,-113.785,-210.332
L-116.714,-202.216
L-119.216,-194.78
C-121.568,-187.54,-123.699,-180.238,-125.607,-172.883
L-127.62,-164.753
C-132.306,-144.883,-135.374,-124.662,-136.794,-104.291
C-148.82,-92.986,-160.126,-80.9277,-170.643,-68.1858
L-170.645,-69.3367Z
M7.48824,254.839
L17.1775,248.021
L31.5756,237.043
C60.0127,255.867,90.8893,270.768,123.371,281.322
C151.177,290.357,179.905,296.122,208.974,298.527
C211.755,298.757,214.54,298.957,217.328,299.125
C222.711,299.451,228.104,299.661,233.503,299.756
C235.711,299.795,237.919,299.814,240.128,299.814
C240.796,299.814,241.464,299.809,242.131,299.809
C281.103,299.602,319.813,293.368,356.885,281.322
C379.268,274.049,400.889,264.712,421.474,253.451
C393.655,271.384,363.607,285.663,332.072,295.909
C301.354,305.889,269.531,311.945,237.359,313.957
C234.386,314.143,231.411,314.294,228.432,314.411
C223.426,314.607,218.413,314.705,213.396,314.705
L212.929,314.705
C210.066,314.701,207.204,314.666,204.343,314.598
C167.106,313.72,130.176,307.43,94.7207,295.909
C64.0033,285.928,34.698,272.122,7.48824,254.839Z
M-163.263,5.59957
C-159.238,-0.715158,-155.018,-6.91216,-150.608,-12.9822
C-145.634,-19.8278,-140.432,-26.4934,-135.012,-32.9683
C-132.091,-8.64616,-126.808,15.3699,-119.216,38.7356
C-111.624,62.1008,-101.783,84.6355,-89.8501,106.029
L-84.1748,115.855
C-78.3972,125.519,-72.1832,134.933,-65.5483,144.065
L-56.9721,155.414
L-49.3695,164.778
C-36.2467,180.425,-21.8784,194.98,-6.40723,208.301
C-11.7735,212.681,-17.2667,216.914,-22.8811,220.993
L-31.1176,226.807
C-56.0305,206.237,-78.2729,182.585,-97.2997,156.397
L-97.9746,155.465
L-105.307,144.943
C-114.523,131.235,-122.838,116.96,-130.203,102.208
L-135.374,91.4331
C-141.679,77.7569,-147.182,63.7022,-151.849,49.3387
C-156.516,34.975,-160.325,20.3695,-163.263,5.59957Z"/>
<path fill="#00ffff" d="M-362.346,-97.1254
L-348.493,-106.495
C-337.223,-79.5925,-322.862,-54.0525,-305.676,-30.3988
C-285.601,-2.76862,-261.889,21.9919,-235.199,43.2203
L-228.386,48.5139
L-222.087,53.1908
C-215.928,57.6654,-209.642,61.9485,-203.236,66.0354
L-196.126,70.4622
C-178.676,81.0591,-160.394,90.2258,-141.458,97.871
C-134.423,112.802,-126.448,127.281,-117.58,141.221
L-118.676,140.867
C-149.461,130.864,-178.829,117.019,-206.09,99.6817
L-213.284,94.9933
L-225.734,86.3182
L-237.725,77.2419
L-244.68,71.6276
C-269.526,51.0902,-291.711,27.4856,-310.696,1.35605
C-332.608,-28.8045,-350.004,-61.982,-362.346,-97.1254Z
M-384.041,-224.378
C-384.041,-257.536,-379.747,-290.526,-371.288,-322.526
C-375.638,-299.468,-377.837,-276.02,-377.837,-252.485
C-377.837,-213.505,-371.804,-174.762,-359.958,-137.635
L-362.46,-135.832
L-371.938,-128.724
C-379.967,-159.943,-384.041,-192.08,-384.041,-224.378Z

M235.199,43.2203
C261.889,21.9919,285.601,-2.76861,305.676,-30.3988
C322.862,-54.0525,337.223,-79.5925,348.493,-106.495
L351.643,-114.256
C353.616,-119.275,355.483,-124.34,357.242,-129.446
L359.344,-135.728
L359.958,-137.635
C371.804,-174.762,377.837,-213.505,377.837,-252.485
C377.837,-276.02,375.638,-299.468,371.288,-322.526
C379.747,-290.526,384.041,-257.536,384.041,-224.378
C384.041,-192.08,379.967,-159.943,371.938,-128.724
L369.612,-120.094
C368.251,-115.272,366.795,-110.474,365.245,-105.702
L365.1,-105.258
L362.346,-97.1254
C350.004,-61.982,332.608,-28.8045,310.696,1.35605
C291.711,27.4856,269.526,51.0902,244.68,71.6276
C243.575,67.8384,242.411,64.0641,241.19,60.3059
C239.323,54.5609,237.326,48.8643,235.199,43.2203Z
M-73.0756,118.216
C-49.0415,122.954,-24.5682,125.351,0,125.351
C24.5681,125.351,49.0413,122.954,73.0753,118.217
C76.7859,117.485,80.4861,116.698,84.1745,115.855
C95.1504,113.347,106.022,110.346,116.757,106.858
C121.271,105.391,125.753,103.841,130.203,102.208
L141.458,97.871
C160.394,90.2259,178.676,81.0591,196.126,70.4622
C198.634,76.9193,200.962,83.4516,203.106,90.0515
C204.145,93.2494,205.14,96.4598,206.09,99.6817
C178.829,117.019,149.461,130.864,118.676,140.867
L117.58,141.221
C113.508,142.531,109.416,143.772,105.307,144.943
C89.4225,149.472,73.2769,152.968,56.9717,155.414
C53.0317,156.005,49.0825,156.534,45.1253,157.003
C30.1703,158.772,15.1027,159.663,0,159.663
C-15.1028,159.663,-30.1705,158.772,-45.1256,157.003
C-49.8873,151.223,-54.4769,145.295,-58.887,139.225
C-63.8606,132.379,-68.5924,125.372,-73.0756,118.216Z"/>
<path d="M-588.531,45.3538
C-587.864,47.5361,-587.177,49.7127,-586.472,51.8831
C-573.752,91.032,-554.949,127.935,-530.754,161.237
L-523.999,170.259
C-524.107,174.012,-524.161,177.768,-524.161,181.526
C-524.161,222.69,-517.679,263.596,-504.962,302.745
C-504.257,304.916,-503.532,307.08,-502.79,309.238
C-512.884,275.161,-518.01,239.806,-518.01,204.265
C-518.01,195.793,-517.719,187.333,-517.138,178.898
C-495.838,204.962,-471.251,228.2,-443.97,248.021
C-410.668,272.216,-373.765,291.02,-334.616,303.74
C-302.08,314.311,-268.329,320.572,-234.226,322.386
C-221.963,354.259,-205.579,384.422,-185.471,412.099
C-161.276,445.401,-131.99,474.688,-98.688,498.883
C-71.4065,518.704,-41.708,534.906,-10.338,547.11
C-18.18,550.269,-26.1363,553.16,-34.1936,555.778
C-67.9949,566.761,-103.204,572.811,-138.732,573.741
C-136.45,573.781,-134.168,573.801,-131.886,573.801
C-90.7224,573.801,-49.8149,567.322,-10.6663,554.602
L0,550.966
L10.6663,554.602
C49.8149,567.322,90.7224,573.801,131.886,573.801
C134.168,573.801,136.45,573.781,138.732,573.741
C103.204,572.811,67.9949,566.761,34.1936,555.778
C26.1363,553.16,18.18,550.269,10.338,547.11
C41.7079,534.906,71.4062,518.704,98.6877,498.883
C131.99,474.688,161.276,445.401,185.471,412.099
C205.579,384.422,221.963,354.259,234.226,322.386
C268.329,320.572,302.08,314.311,334.616,303.74
C373.765,291.02,410.668,272.216,443.97,248.021
C471.251,228.2,495.838,204.962,517.138,178.898
C517.719,187.333,518.01,195.793,518.01,204.265
C518.01,239.806,512.884,275.161,502.79,309.238
C503.532,307.08,504.257,304.916,504.962,302.745
C517.679,263.596,524.161,222.69,524.161,181.526
C524.161,177.768,524.107,174.012,523.999,170.259
L530.754,161.237
C554.949,127.935,573.752,91.032,586.472,51.8831
C587.177,49.7127,587.864,47.5361,588.531,45.3538
C576.667,78.8557,560.033,110.472,539.143,139.225
C534.163,146.079,528.954,152.753,523.527,159.235
C521.614,125.63,515.382,92.3773,504.962,60.3059
C492.242,21.157,473.439,-15.7461,449.243,-49.0483
C429.135,-76.7248,405.51,-101.628,378.987,-123.14
C387.8,-156.134,392.275,-190.167,392.275,-224.378
C392.275,-265.541,385.796,-306.449,373.076,-345.598
C362.656,-377.669,348.152,-408.233,329.947,-436.545
C338.147,-434.49,346.284,-432.153,354.341,-429.535
C388.142,-418.553,420.184,-402.752,449.473,-382.621
C447.651,-383.995,445.816,-385.353,443.97,-386.694
C410.667,-410.888,373.765,-429.692,334.616,-442.413
C331.041,-443.575,327.451,-444.684,323.848,-445.741
L317.357,-454.951
C293.162,-488.253,263.872,-517.535,230.574,-541.735
C228.728,-543.077,226.869,-544.402,225,-545.711
C253.196,-524.075,278.125,-498.485,299.015,-469.732
C303.995,-462.878,308.732,-455.863,313.22,-448.698
C280.668,-457.264,247.118,-461.612,213.396,-461.612
C172.233,-461.612,131.325,-455.133,92.1763,-442.413
C59.6405,-431.842,28.6556,-417.068,0,-398.49
C-28.6558,-417.068,-59.6407,-431.842,-92.1765,-442.413
C-131.325,-455.133,-172.233,-461.612,-213.396,-461.612
C-247.118,-461.612,-280.668,-457.264,-313.22,-448.698
C-308.732,-455.863,-303.995,-462.878,-299.015,-469.732
C-278.125,-498.485,-253.196,-524.075,-225,-545.711
C-226.869,-544.402,-228.728,-543.077,-230.574,-541.735
C-263.872,-517.535,-293.162,-488.253,-317.357,-454.951
L-323.848,-445.741
C-327.451,-444.684,-331.041,-443.575,-334.616,-442.413
C-373.765,-429.692,-410.667,-410.888,-443.97,-386.694
C-445.816,-385.353,-447.651,-383.995,-449.473,-382.621
C-420.184,-402.752,-388.143,-418.553,-354.342,-429.535
C-346.284,-432.153,-338.148,-434.491,-329.946,-436.545
C-348.152,-408.233,-362.655,-377.669,-373.076,-345.598
C-385.796,-306.449,-392.275,-265.541,-392.275,-224.378
C-392.275,-190.167,-387.8,-156.134,-378.987,-123.14
C-405.51,-101.628,-429.135,-76.7248,-449.243,-49.0483
C-473.439,-15.7461,-492.242,21.157,-504.962,60.3059
C-515.382,92.3773,-521.615,125.63,-523.527,159.235
C-528.954,152.753,-534.163,146.079,-539.143,139.225
C-560.033,110.472,-576.667,78.8557,-588.531,45.3538Z
M-192.01,-452.782
C-158.961,-450.939,-126.258,-444.829,-94.7209,-434.582
C-64.0037,-424.601,-34.6984,-410.795,-7.48847,-393.512
L0,-388.633
L12.3378,-380.033
L12.7165,-379.758
L19.5995,-374.625
C49.209,-352.027,75.3872,-325.23,97.2997,-295.07
C116.284,-268.94,131.878,-240.547,143.732,-210.571
C139.787,-210.69,135.838,-210.75,131.886,-210.75
C125.845,-210.75,119.81,-210.61,113.785,-210.332
C101.843,-242.275,85.6228,-272.479,65.548,-300.11
C48.3628,-323.763,28.5104,-345.313,6.40702,-364.345
L0,-369.739
L-12.7166,-379.757
L-18.0414,-383.698
L-19.6656,-384.871
C-51.316,-407.612,-86.2978,-425.32,-123.371,-437.366
C-145.755,-444.639,-168.735,-449.794,-192.01,-452.782Z
M89.8499,106.029
C101.783,84.6356,111.624,62.1008,119.216,38.7356
C126.808,15.3699,132.092,-8.64621,135.012,-32.9684
C135.463,-36.7232,135.858,-40.4854,136.196,-44.2536
C137.202,-55.4676,137.708,-66.7351,137.708,-78.0225
C137.708,-82.7682,137.619,-87.5104,137.44,-92.2466
C137.289,-96.2661,137.073,-100.281,136.794,-104.291
C135.374,-124.662,132.306,-144.883,127.619,-164.753
C134.536,-165.143,141.467,-165.338,148.407,-165.338
C151.769,-165.338,155.13,-165.292,158.488,-165.2
C166.552,-133.915,170.645,-101.707,170.645,-69.3367
L170.643,-68.1858
C170.63,-63.9082,170.546,-59.6336,170.391,-55.3638
C169.79,-38.857,168.125,-22.4211,165.413,-6.15772
C164.757,-2.2281,164.041,1.69145,163.263,5.59948
C160.325,20.3694,156.516,34.975,151.849,49.3387
C147.182,63.7022,141.679,77.7569,135.374,91.4331
C128.406,94.1759,121.349,96.709,114.213,99.0276
C106.166,101.642,98.04,103.977,89.8499,106.029Z
M-421.474,253.451
C-400.889,264.712,-379.268,274.049,-356.885,281.322
C-319.813,293.368,-281.103,299.602,-242.131,299.809
L-241.19,302.745
C-239.969,306.503,-238.692,310.241,-237.359,313.957
C-269.531,311.945,-301.354,305.889,-332.072,295.909
C-363.607,285.663,-393.655,271.384,-421.474,253.451Z
M-208.974,298.527
C-179.905,296.122,-151.177,290.357,-123.371,281.322
C-90.8892,270.768,-60.0127,255.867,-31.5757,237.043
L-24.4362,232.199
L-18.0414,227.654
C-11.8826,223.179,-5.86637,218.524,0,213.695
L6.40706,208.301
C21.8783,194.98,36.2465,180.425,49.3692,164.778
C65.7425,162.701,81.9769,159.591,97.9746,155.465
L97.2997,156.397
C78.2728,182.585,56.0305,206.237,31.1175,226.807
L24.436,232.199
L12.3378,241.36
L0,249.96
L-7.48839,254.839
C-34.6982,272.122,-64.0035,285.928,-94.7209,295.909
C-130.177,307.43,-167.106,313.72,-204.343,314.598
C-206.009,309.273,-207.553,303.915,-208.974,298.527Z
M-489.955,42.6922
C-477.989,11.8312,-462.072,-17.382,-442.582,-44.2086
C-423.597,-70.3379,-401.411,-93.9429,-376.567,-114.48
L-369.612,-120.094
L-357.62,-129.171
L-357.242,-129.446
L-350.233,-134.406
C-319.591,-155.583,-286.017,-172.2,-250.562,-183.72
C-219.844,-193.701,-188.021,-199.757,-155.849,-201.768
C-157.182,-198.052,-158.459,-194.314,-159.68,-190.556
C-161.547,-184.811,-163.279,-179.029,-164.876,-173.213
C-198.946,-171.726,-232.684,-165.633,-265.165,-155.079
C-292.972,-146.044,-319.602,-133.823,-344.533,-118.683
L-351.643,-114.256
L-365.1,-105.258
L-370.494,-101.411
L-372.112,-100.229
C-403.519,-77.1547,-431.171,-49.3573,-454.083,-17.822
C-467.917,1.21843,-479.92,21.4807,-489.955,42.6922Z
M-117.252,-172.285
C-115.486,-178.983,-113.529,-185.636,-111.385,-192.236
L-108.139,-201.781
C-75.8936,-199.783,-43.9967,-193.723,-13.2107,-183.72
L-12.1169,-183.363
C-8.05248,-182.029,-4.01299,-180.628,0,-179.16
C15.5134,-173.488,30.6307,-166.825,45.26,-159.22
L55.7779,-153.542
C68.9165,-146.183,81.6298,-138.048,93.848,-129.171
C106.066,-120.294,117.732,-110.717,128.79,-100.495
C129.246,-93.0202,129.474,-85.5259,129.474,-78.0225
C129.474,-69.5613,129.183,-61.1115,128.605,-52.688
C111.946,-70.6474,93.5553,-86.9704,73.6796,-101.411
C53.8037,-115.852,32.5961,-128.298,10.3673,-138.592
L0,-143.206
C-10.3543,-147.628,-20.9141,-151.591,-31.6492,-155.079
C-36.1627,-156.546,-40.7005,-157.926,-45.26,-159.22
C-49.1297,-160.318,-53.015,-161.354,-56.9145,-162.327
C-76.7275,-167.272,-96.9064,-170.602,-117.252,-172.285Z
M171.969,3.96641
C175.053,-12.2477,177.113,-28.6487,178.132,-45.1388
L178.81,-44.2086
C197.837,-18.0203,213.458,10.4427,225.322,40.4927
L228.386,48.5139
C230.137,53.2562,231.795,58.0359,233.359,62.8503
C234.909,67.6217,236.365,72.4199,237.725,77.2419
L240.052,85.872
C248.081,117.091,252.155,149.228,252.155,181.526
C252.155,218.806,246.727,255.871,236.055,291.558
C230.476,291.496,224.903,291.308,219.341,290.995
C226.036,262.606,229.43,233.503,229.43,204.265
C229.43,170.113,224.799,136.143,215.685,103.281
L213.284,94.9933
L210.937,87.5071
C208.585,80.2671,206.016,73.1068,203.236,66.0354
L200.086,58.2747
C192.198,39.4445,182.795,21.2819,171.969,3.96641Z
M110.799,479.168
C127.873,463.07,143.435,445.393,157.269,426.352
C180.181,394.816,198.073,359.928,210.313,322.927
C211.34,322.935,212.368,322.939,213.396,322.939
C217.348,322.939,221.297,322.879,225.242,322.76
C213.388,352.736,197.794,381.129,178.81,407.259
C159.318,434.086,136.453,458.251,110.799,479.168Z
M12.1169,-183.363
L13.2107,-183.72
C43.9967,-193.723,75.8936,-199.783,108.139,-201.781
C110.995,-201.958,113.853,-202.103,116.714,-202.216
C121.766,-202.416,126.824,-202.516,131.886,-202.516
C136.903,-202.516,141.916,-202.418,146.922,-202.222
C149.901,-202.105,152.876,-201.954,155.849,-201.768
C188.021,-199.757,219.844,-193.701,250.562,-183.72
C286.017,-172.2,319.591,-155.583,350.233,-134.406
C348.451,-129.119,346.55,-123.876,344.533,-118.683
C319.602,-133.823,292.972,-146.044,265.165,-155.079
C232.684,-165.633,198.946,-171.726,164.876,-173.213
C162.003,-173.338,159.129,-173.431,156.252,-173.491
C153.638,-173.545,151.023,-173.572,148.407,-173.572
C140.794,-173.572,133.191,-173.342,125.607,-172.883
C122.819,-172.715,120.034,-172.515,117.252,-172.285
C96.9064,-170.602,76.7274,-167.272,56.9144,-162.327
C42.4469,-170.271,27.485,-177.298,12.1169,-183.363Z
M372.112,-100.229
L373.076,-103.158
C374.297,-106.916,375.461,-110.691,376.567,-114.48
C401.411,-93.943,423.597,-70.3379,442.582,-44.2086
C462.073,-17.3817,477.989,11.8308,489.955,42.6922
C479.921,21.4803,467.917,1.21857,454.083,-17.822
C431.171,-49.3576,403.519,-77.1547,372.112,-100.229Z
M-225.322,40.4927
C-213.458,10.4427,-197.837,-18.0203,-178.81,-44.2086
L-178.132,-45.1388
L-170.391,-55.3638
C-160.202,-68.3651,-149.194,-80.6837,-137.44,-92.247
L-128.79,-100.496
C-117.732,-110.717,-106.066,-120.294,-93.848,-129.171
C-81.6298,-138.048,-68.9165,-146.183,-55.7779,-153.542
C-48.5279,-151.665,-41.3298,-149.567,-34.1936,-147.248
C-26.1464,-144.633,-18.1999,-141.746,-10.3673,-138.592
C-32.5961,-128.298,-53.8037,-115.852,-73.6796,-101.411
C-93.5551,-86.9705,-111.946,-70.6474,-128.605,-52.6881
L-136.196,-44.2537
C-143.602,-35.7726,-150.634,-26.954,-157.269,-17.822
L-165.413,-6.15757
L-171.969,3.96663
C-182.795,21.2821,-192.198,39.4447,-200.086,58.2747
C-205.91,54.5248,-211.633,50.6085,-217.247,46.5295
L-225.322,40.4927Z
M-252.155,181.526
C-252.155,149.228,-248.081,117.091,-240.052,85.872
L-230.574,92.9795
C-225.687,96.5301,-220.722,99.9646,-215.685,103.281
C-224.799,136.143,-229.43,170.113,-229.43,204.265
C-229.43,233.503,-226.036,262.606,-219.341,290.995
L-217.328,299.125
C-215.974,304.346,-214.507,309.54,-212.929,314.705
L-210.937,321.023
L-210.313,322.927
C-198.073,359.928,-180.181,394.816,-157.269,426.352
C-143.436,445.392,-127.874,463.07,-110.801,479.168
C-136.454,458.251,-159.319,434.086,-178.81,407.259
C-197.794,381.129,-213.388,352.736,-225.242,322.76
L-228.432,314.411
C-230.166,309.71,-231.809,304.972,-233.359,300.201
L-233.503,299.756
L-236.055,291.558
C-246.727,255.871,-252.155,218.806,-252.155,181.526Z
M7.48831,-393.512
C34.6982,-410.795,64.0035,-424.601,94.7207,-434.582
C126.258,-444.829,158.961,-450.939,192.011,-452.782
C168.736,-449.794,145.755,-444.639,123.371,-437.366
C86.2978,-425.32,51.3158,-407.612,19.6654,-384.871
L17.1775,-386.694
L7.48831,-393.512Z
M-170.645,-69.3367
C-170.645,-101.707,-166.552,-133.915,-158.488,-165.2
L-156.252,-173.491
C-154.881,-178.356,-153.413,-183.198,-151.849,-188.012
C-150.299,-192.783,-148.656,-197.521,-146.922,-202.222
L-143.732,-210.571
C-131.878,-240.547,-116.284,-268.94,-97.2997,-295.07
C-75.3872,-325.23,-49.2092,-352.027,-19.5997,-374.625
L-6.40723,-364.345
C-28.5106,-345.313,-48.3631,-323.763,-65.5483,-300.11
C-85.6231,-272.479,-101.843,-242.275,-113.785,-210.332
L-116.714,-202.216
L-119.216,-194.78
C-121.568,-187.54,-123.699,-180.238,-125.607,-172.883
L-127.62,-164.753
C-132.306,-144.883,-135.374,-124.662,-136.794,-104.291
C-148.82,-92.986,-160.126,-80.9277,-170.643,-68.1858
L-170.645,-69.3367Z
M7.48824,254.839
L17.1775,248.021
L31.5756,237.043
C60.0127,255.867,90.8893,270.768,123.371,281.322
C151.177,290.357,179.905,296.122,208.974,298.527
C211.755,298.757,214.54,298.957,217.328,299.125
C222.711,299.451,228.104,299.661,233.503,299.756
C235.711,299.795,237.919,299.814,240.128,299.814
C240.796,299.814,241.464,299.809,242.131,299.809
C281.103,299.602,319.813,293.368,356.885,281.322
C379.268,274.049,400.889,264.712,421.474,253.451
C393.655,271.384,363.607,285.663,332.072,295.909
C301.354,305.889,269.531,311.945,237.359,313.957
C234.386,314.143,231.411,314.294,228.432,314.411
C223.426,314.607,218.413,314.705,213.396,314.705
L212.929,314.705
C210.066,314.701,207.204,314.666,204.343,314.598
C167.106,313.72,130.176,307.43,94.7207,295.909
C64.0033,285.928,34.698,272.122,7.48824,254.839Z
M-163.263,5.59957
C-159.238,-0.715158,-155.018,-6.91216,-150.608,-12.9822
C-145.634,-19.8278,-140.432,-26.4934,-135.012,-32.9683
C-132.091,-8.64616,-126.808,15.3699,-119.216,38.7356
C-111.624,62.1008,-101.783,84.6355,-89.8501,106.029
L-84.1748,115.855
C-78.3972,125.519,-72.1832,134.933,-65.5483,144.065
L-56.9721,155.414
L-49.3695,164.778
C-36.2467,180.425,-21.8784,194.98,-6.40723,208.301
C-11.7735,212.681,-17.2667,216.914,-22.8811,220.993
L-31.1176,226.807
C-56.0305,206.237,-78.2729,182.585,-97.2997,156.397
L-97.9746,155.465
L-105.307,144.943
C-114.523,131.235,-122.838,116.96,-130.203,102.208
L-135.374,91.4331
C-141.679,77.7569,-147.182,63.7022,-151.849,49.3387
C-156.516,34.975,-160.325,20.3695,-163.263,5.59957Z
M-362.346,-97.1254
L-348.493,-106.495
C-337.223,-79.5925,-322.862,-54.0525,-305.676,-30.3988
C-285.601,-2.76862,-261.889,21.9919,-235.199,43.2203
L-228.386,48.5139
L-222.087,53.1908
C-215.928,57.6654,-209.642,61.9485,-203.236,66.0354
L-196.126,70.4622
C-178.676,81.0591,-160.394,90.2258,-141.458,97.871
C-134.423,112.802,-126.448,127.281,-117.58,141.221
L-118.676,140.867
C-149.461,130.864,-178.829,117.019,-206.09,99.6817
L-213.284,94.9933
L-225.734,86.3182
L-237.725,77.2419
L-244.68,71.6276
C-269.526,51.0902,-291.711,27.4856,-310.696,1.35605
C-332.608,-28.8045,-350.004,-61.982,-362.346,-97.1254Z
M-384.041,-224.378
C-384.041,-257.536,-379.747,-290.526,-371.288,-322.526
C-375.638,-299.468,-377.837,-276.02,-377.837,-252.485
C-377.837,-213.505,-371.804,-174.762,-359.958,-137.635
L-362.46,-135.832
L-371.938,-128.724
C-379.967,-159.943,-384.041,-192.08,-384.041,-224.378Z
M-193.016,62.7146
C-186.308,46.5353,-178.46,30.8551,-169.531,15.7925
C-166.826,27.9567,-163.541,40.0009,-159.68,51.8831
C-155.819,63.7652,-151.398,75.4403,-146.436,86.8708
C-162.513,79.9333,-178.079,71.8611,-193.016,62.7146Z
M-369.603,-252.485
C-369.603,-291.27,-363.498,-329.813,-351.513,-366.699
C-343.304,-391.964,-332.406,-416.236,-319.029,-439.105
C-293.145,-444.761,-266.693,-447.625,-240.128,-447.625
C-201.344,-447.625,-162.801,-441.52,-125.915,-429.535
C-90.4603,-418.015,-56.9606,-401.201,-26.55,-379.669
C-55.9925,-356.904,-82.0622,-330.051,-103.961,-299.91
C-124.069,-272.233,-140.453,-242.07,-152.716,-210.197
C-186.819,-208.383,-220.57,-202.122,-253.106,-191.551
C-288.539,-180.037,-322.133,-163.541,-352.882,-142.575
C-363.963,-178.15,-369.603,-215.206,-369.603,-252.485Z
M67.4081,-156.353
C84.4924,-160.19,101.83,-162.809,119.29,-164.189
C123.373,-147.157,126.24,-129.859,127.87,-112.425
C118.532,-120.676,108.795,-128.488,98.6877,-135.832
C88.5803,-143.175,78.1411,-150.022,67.4081,-156.353Z
M167.069,-164.867
C199.529,-163.225,231.659,-157.308,262.621,-147.248
C290.255,-138.269,316.701,-126.074,341.423,-110.935
C330.321,-84.1565,316.094,-58.7453,299.015,-35.2385
C279.879,-8.90068,257.364,14.7716,232.068,35.1786
C220.065,5.32801,204.422,-22.9647,185.471,-49.0483
L178.717,-58.0688
C178.825,-61.8218,178.879,-65.5782,178.879,-69.3367
C178.879,-101.578,174.904,-133.662,167.069,-164.867Z
M235.199,43.2203
C261.889,21.9919,285.601,-2.76861,305.676,-30.3988
C322.862,-54.0525,337.223,-79.5925,348.493,-106.495
L351.643,-114.256
C353.616,-119.275,355.483,-124.34,357.242,-129.446
L359.344,-135.728
L359.958,-137.635
C371.804,-174.762,377.837,-213.505,377.837,-252.485
C377.837,-276.02,375.638,-299.468,371.288,-322.526
C379.747,-290.526,384.041,-257.536,384.041,-224.378
C384.041,-192.08,379.967,-159.943,371.938,-128.724
L369.612,-120.094
C368.251,-115.272,366.795,-110.474,365.245,-105.702
L365.1,-105.258
L362.346,-97.1254
C350.004,-61.982,332.608,-28.8045,310.696,1.35605
C291.711,27.4856,269.526,51.0902,244.68,71.6276
C243.575,67.8384,242.411,64.0641,241.19,60.3059
C239.323,54.5609,237.326,48.8643,235.199,43.2203Z
M26.5498,-379.669
C56.9604,-401.201,90.4603,-418.015,125.915,-429.535
C162.801,-441.52,201.344,-447.625,240.128,-447.625
C266.693,-447.625,293.145,-444.761,319.029,-439.105
C332.406,-416.236,343.304,-391.964,351.513,-366.699
C363.498,-329.813,369.603,-291.27,369.603,-252.485
C369.603,-215.206,363.963,-178.15,352.882,-142.575
C322.133,-163.541,288.539,-180.037,253.106,-191.551
C220.57,-202.122,186.819,-208.383,152.716,-210.197
C140.453,-242.07,124.069,-272.233,103.961,-299.91
C82.0622,-330.051,55.9924,-356.904,26.5498,-379.669Z
M-73.0756,118.216
C-49.0415,122.954,-24.5682,125.351,0,125.351
C24.5681,125.351,49.0413,122.954,73.0753,118.217
C76.7859,117.485,80.4861,116.698,84.1745,115.855
C95.1504,113.347,106.022,110.346,116.757,106.858
C121.271,105.391,125.753,103.841,130.203,102.208
L141.458,97.871
C160.394,90.2259,178.676,81.0591,196.126,70.4622
C198.634,76.9193,200.962,83.4516,203.106,90.0515
C204.145,93.2494,205.14,96.4598,206.09,99.6817
C178.829,117.019,149.461,130.864,118.676,140.867
L117.58,141.221
C113.508,142.531,109.416,143.772,105.307,144.943
C89.4225,149.472,73.2769,152.968,56.9717,155.414
C53.0317,156.005,49.0825,156.534,45.1253,157.003
C30.1703,158.772,15.1027,159.663,0,159.663
C-15.1028,159.663,-30.1705,158.772,-45.1256,157.003
C-49.8873,151.223,-54.4769,145.295,-58.887,139.225
C-63.8606,132.379,-68.5924,125.372,-73.0756,118.216Z
M-37.3684,166.113
C-24.9638,167.3,-12.4937,167.897,0,167.897
C12.4936,167.897,24.9636,167.3,37.3681,166.113
C25.8019,179.26,13.3146,191.57,0,202.949
C-13.3148,191.57,-25.8022,179.26,-37.3684,166.113Z
M-516.199,167.724
C-513.58,141.359,-508.129,115.317,-499.92,90.0515
C-487.935,53.1653,-470.219,18.395,-447.422,-12.9822
C-425.51,-43.1412,-399.166,-69.805,-369.291,-92.0735
C-356.738,-57.0373,-339.256,-23.9459,-317.357,6.1958
C-297.249,33.8724,-273.624,58.7757,-247.101,80.2881
C-255.914,113.282,-260.389,147.315,-260.389,181.526
C-260.389,218.782,-255.081,255.83,-244.643,291.552
C-281.901,291.097,-318.888,285.011,-354.342,273.491
C-391.229,261.506,-425.998,243.79,-457.375,220.993
C-478.866,205.378,-498.583,187.513,-516.199,167.724Z
M-201.685,322.764
C-164.484,321.653,-127.61,315.253,-92.1765,303.74
C-59.6405,293.168,-28.6557,278.395,0,259.817
C28.6555,278.395,59.6403,293.168,92.1763,303.74
C127.609,315.253,164.484,321.653,201.685,322.764
C189.738,358.059,172.52,391.353,150.608,421.512
C127.811,452.889,100.217,480.483,68.8398,503.28
C47.348,518.895,24.2647,532.125,0,542.764
C-24.2648,532.125,-47.3483,518.895,-68.8401,503.28
C-100.217,480.483,-127.811,452.889,-150.608,421.512
C-172.52,391.353,-189.738,358.059,-201.685,322.764Z
M-221.196,204.265
C-221.196,171.71,-216.895,139.325,-208.425,107.946
C-181.168,125.041,-151.882,138.735,-121.22,148.698
C-117.645,149.859,-114.056,150.969,-110.453,152.026
L-103.961,161.237
C-85.0102,187.32,-62.9363,210.94,-38.2558,231.581
C-65.4811,249.332,-94.9525,263.431,-125.915,273.491
C-153.549,282.47,-182.113,288.148,-211.011,290.431
C-217.77,262.242,-221.196,233.321,-221.196,204.265Z
M244.643,291.552
C255.081,255.83,260.389,218.782,260.389,181.526
C260.389,147.315,255.914,113.282,247.101,80.2881
C273.624,58.7757,297.249,33.8724,317.357,6.1958
C339.256,-23.9459,356.738,-57.0373,369.291,-92.0735
C399.166,-69.805,425.51,-43.1412,447.422,-12.9822
C470.219,18.395,487.935,53.1653,499.92,90.0515
C508.129,115.317,513.58,141.359,516.199,167.724
C498.583,187.513,478.866,205.378,457.375,220.993
C425.998,243.79,391.228,261.506,354.341,273.491
C318.887,285.011,281.901,291.097,244.643,291.552Z
M38.2557,231.581
C62.9362,210.94,85.0102,187.32,103.961,161.237
L110.453,152.026
C114.056,150.969,117.645,149.859,121.22,148.698
C151.882,138.735,181.168,125.041,208.425,107.946
C216.895,139.325,221.196,171.71,221.196,204.265
C221.196,233.321,217.77,262.242,211.011,290.431
C182.113,288.148,153.549,282.47,125.915,273.491
C94.9525,263.431,65.481,249.333,38.2557,231.581Z
M146.436,86.8708
C151.398,75.4404,155.819,63.7652,159.68,51.8831
C163.541,40.0009,166.826,27.9566,169.531,15.7924
C178.46,30.855,186.308,46.5353,193.016,62.7146
C178.079,71.8611,162.513,79.9333,146.436,86.8708Z
M-127.663,-41.4814
C-110.048,-61.2707,-90.3313,-79.1354,-68.8401,-94.7498
C-47.3486,-110.365,-24.265,-123.596,0,-134.234
C24.2649,-123.596,47.3483,-110.364,68.8398,-94.7498
C90.331,-79.1353,110.047,-61.2708,127.663,-41.4815
C125.044,-15.1164,119.594,10.9261,111.385,36.1912
C103.176,61.4559,92.2781,85.7278,78.9005,108.597
C53.0169,114.253,26.5651,117.117,0,117.117
C-26.5652,117.117,-53.0171,114.253,-78.9008,108.597
C-92.2783,85.7278,-103.176,61.4558,-111.385,36.1912
C-119.594,10.9261,-125.044,-15.1164,-127.663,-41.4814Z
M-105.17,-209.839
C-93.5783,-240.203,-78.0226,-268.931,-58.887,-295.27
C-41.8083,-318.776,-22.0372,-340.159,0,-358.993
C22.0369,-340.159,41.808,-318.776,58.8867,-295.27
C78.0223,-268.931,93.5782,-240.203,105.17,-209.839
C73.0709,-207.648,41.3291,-201.514,10.6663,-191.551
L0,-187.915
L-10.6663,-191.551
C-41.3291,-201.514,-73.0709,-207.648,-105.17,-209.839Z
M-127.87,-112.425
C-126.24,-129.859,-123.373,-147.158,-119.29,-164.189
C-101.83,-162.809,-84.4925,-160.19,-67.4083,-156.353
C-78.1413,-150.022,-88.5805,-143.175,-98.688,-135.832
C-108.795,-128.489,-118.532,-120.676,-127.87,-112.425Z
M-341.423,-110.935
C-316.701,-126.074,-290.255,-138.269,-262.621,-147.248
C-231.659,-157.308,-199.529,-163.225,-167.069,-164.867
C-174.904,-133.662,-178.879,-101.578,-178.879,-69.3367
C-178.879,-65.5782,-178.825,-61.8218,-178.717,-58.0688
L-185.471,-49.0483
C-204.422,-22.9647,-220.065,5.328,-232.068,35.1786
C-257.364,14.7716,-279.879,-8.90069,-299.015,-35.2385
C-316.094,-58.7453,-330.321,-84.1566,-341.423,-110.935Z"/>
</g>
</svg>
