<?xml version="1.0" standalone="no"?>
<svg xmlns="http://www.w3.org/2000/svg" width="600" height="600" viewBox="-3850 -3850 7700 7700">
  <g transform="scale(1 -1)">
    <circle r="3820.09"/>
    <path fill="#369" d="M-3288.96-1123.56c0-465.6 351.66-955.12 901.74-955.12 392.33 0 692.87 295.15 692.87 626.06 0 298.22-220.22 441.83-367.04 441.83-129.63 0-212.93-81.34-212.93-155.86 0-39.76 15.24-56.46 34.32-65.88 22.55 20.67 60.13 40.94 100.22 40.94 106.34 0 201.17-105.35 201.17-238.37 0-171.78-155.53-386.33-453.95-386.33-322.38 0-627.66 294.64-627.66 699.12 0 512.75 450.8 901.145 958.62 901.145 461.17 0 760.14-257.457 918.76-458.524 192.23-243.677 526.301-482.321 984.328-482.321 545.125 0 1043.859 422.182 1043.859 994.124 0 403.097-301.662 779.46-717.468 779.46-325.583 0-523.629-242.004-523.629-448.698 0-173.18084 108.816-285.425 224.098-285.425 49.6692 0 96.3688 30.129 96.3688 72.7217 0 1.2365-.0323 2.731-.1392 4.3988C-87.4879-24.168-143.185 22.4969-143.185 116.675c0 121.254 119.0321 247.536 304.596 247.536 198.439 0 458.702-185.538 458.702-533.494 0-381.664-342.227-717.734-784.529-717.734-576.517 0-993.414 503.895-993.414 1046.814 0 192.225 40.7 345.585 90.69 471.234 58.49 147.023 92.048 327.542 92.048 494.939 0 296.6-124.618 557.71-240.308 710.13-135.03 177.89-420.85 422.88-846.2 422.88-436.32 0-866.95-328.69-866.95-809.48 0-354.38 264.36-607.457 535.99-607.457 233.37 0 362.28 159.467 362.28 294.657 0 72.84-47.79 146.71-109.5 146.71-12.17 0-25.24-7.12-30.42-10.59 2.63-11.48 3.79-22.87 3.79-34.18 0-97.67-90.46-164.38-188.05-164.38-159.63 0-315.76 144.86-315.76 377.09 0 250.36 231.97 540.36 615.29 540.36 444.26 0 809.14-392.63 809.14-871.11 0-613.06-495.59-1004.533-970.78-1074.3397-515-65.5785-1072.39-484.9953-1072.39-1169.8203Zm4445.6 0c0-465.6 351.67-955.12 901.74-955.12 392.33 0 692.86 295.15 692.86 626.06 0 298.22-220.22 441.83-367.03 441.83-129.21 0-212.93-81.03-212.93-155.86 0-36.77 12.83-55.29 34.32-65.88 27.16 24.94 65.43 40.94 100.21 40.94 106.35 0 201.18-105.36 201.18-238.37 0-171.78-155.53-386.33-453.96-386.33-322.38 0-627.66 294.66-627.66 699.12 0 512.376 450.45 901.145 958.62 901.145 550.28 0 1022.43-385.404 1151.44-971.195C3660.6-814.313 3728.42-415.079 3728.42 0c0 911.518-345.82 1643.82-509.55 1850.73-136.37 172.3-416.49 408.25-834.88 408.25-438.53 0-866.95-330.73-866.95-809.48 0-354.37 264.36-607.457 535.99-607.457 234.29 0 362.29 160.317 362.29 294.657 0 72.84-47.79 146.71-109.51 146.71-12.16 0-25.23-7.12-30.41-10.59 2.63-11.48 3.78-22.88 3.78-34.18 0-97.74-90.52-164.38-188.04-164.38-159.63 0-315.76 144.86-315.76 377.09 0 250.36 231.97 540.36 615.29 540.36 444.26 0 809.14-392.63 809.14-871.11 0-625.732-515.23-1016.916-990.28-1077.0026-435.4-63.4833-806.02-343.5574-968.91-730.3084-50.74-120.474-83.98-278.429-83.98-436.849ZM2822.98-12.4029C3104 211.406 3260.87 315.469 3393.51 670.768c43.4-219.659 65.65-443.579 65.65-670.768 0-138.447-9.05-281.472-24.38-409.973-191.42 208.063-409.37 332.0572-611.8 397.5701Z"/>
    <path fill="#EF4444" d="M-1066.16 159.797c0-508.331 390.943-955.148 901.744-955.148 392.324 0 692.862 295.162 692.862 626.068 0 298.216-220.221 441.828-367.035 441.828-129.3265 0-212.9298-81.098-212.9298-155.87 0-36.7842 12.8263-55.2702 34.3211-65.8709C5.18981 71.5395 42.9314 91.7409 83.0175 91.7409c105.4155 0 201.1685-104.412 201.1685-238.3809 0-171.599-155.377-386.316-453.948-386.316-322.375 0-627.662 294.647-627.662 699.125 0 512.748 450.799 901.131 958.62 901.131 461.137 0 759.78-257.164 919.014-458.843 192.28-243.531 526.2-481.99 984.07-481.99 488.07 0 1043.87 368.616 1043.87 994.133 0 403.09-301.68 779.45-717.48 779.45-325.58 0-523.62-242.01-523.62-448.7 0-173.18 108.81-285.43 224.09-285.43 49.67 0 96.38 30.13 96.38 72.72 0 1.24-.04 2.73-.14 4.4-51.4 15.42-107.77 62.79-107.77 156.97 0 120.42 118.36 247.54 304.6 247.54 198.23 0 458.7-185.36 458.7-533.51 0-381.662-342.22-717.724-784.53-717.724-576.51 0-993.41 503.889-993.41 1046.794 0 438.18 182.73 507.25 182.73 966.19 0 613.32-481.349 1133.01-1086.504 1133.01-436.31 0-866.953-328.68-866.953-809.48 0-354.36 264.346-607.45 535.995-607.45 232.2162 0 362.281 158.62 362.281 294.65 0 72.87-47.783 146.71-109.5015 146.71-12.1685 0-25.236-7.12-30.4213-10.58 2.6364-11.49 3.7873-22.88 3.7873-34.18 0-97.96-90.777-164.39-188.0355-164.39-159.046 0-315.765 144.24-315.765 377.09 0 250.12 231.766 540.37 615.296 540.37 446.305 0 809.134-394.84 809.134-871.13 0-625.72-514.839-1016.47-990.2774-1076.99-435.4026-63.49-806.0376-343.572-968.9146-730.328-67.561-160.418-83.981-327.686-83.981-436.805ZM-2928.55-1117.17c0-354.38 264.34-607.45 535.99-607.45 232.22 0 362.28 158.62 362.28 294.66 0 72.82-47.78 146.7-109.5 146.7-12.16 0-25.25-7.21-30.39-10.73 2.6-11.34 3.76-22.73 3.76-34.03 0-97.96-90.84-164.39-188.05-164.39-159.05 0-315.76 144.25-315.76 377.1 0 255.885 237.04 540.358 615.29 540.358 444.26 0 809.14-392.628 809.14-871.118 0-664.94-585.02-1085.8-1135.53-1085.8-156.34 0-299.72 27.51-412.83 63.19 892.89-1009.85 2072.314-1254.85 2635.638-1254.85 52.507 0 103.6786 3.47 151.84952 10.55C417.807-3650.62 885.347-3300.72 885.347-2729.41c0 403.1-301.669 779.46-717.468 779.46-325.574 0-523.629-242-523.629-448.7 0-173.18 108.817-285.43 224.098-285.43 49.6158 0 96.3688 30.09 96.3688 72.73 0 1.23-.0323 2.73-.1392 4.39-52.2509 16.43-107.7626 62.79-107.7626 156.97 0 120.42 118.1628 247.54 304.596 247.54 198.024 0 458.702-185.18 458.702-533.5 0-381.66-342.226-717.73-784.529-717.73-574.062 0-993.414 501.18-993.414 1046.81 0 192.23 40.7 345.59 90.69 471.24 58.49 147.02 92.048 327.53 92.048 494.93 0 296.61-124.618 557.705-240.308 710.127-135.02 177.902-420.84 422.881-846.2 422.881-436.33 0-866.95-328.686-866.95-809.478Zm856.11-1652.46c275.9 61.75 491.37 187.66 650.21 331.07 53.05-353.79 64.94-543.15 306.39-835.7-533.04 181.74-849.37 430.06-956.6 504.63Z"/>
    <path fill="#ef4" d="M-1066.16-2406.87c0-465.63 351.677-955.15 901.744-955.15 392.314 0 692.862 295.16 692.862 626.07 0 298.22-220.221 441.83-367.035 441.83-129.3279 0-212.9298-81.1-212.9298-155.87 0-36.76 12.822-55.26 34.3211-65.88 22.3802 20.74 60.1291 40.95 100.2152 40.95 106.5355 0 201.1685-105.67 201.1685-238.39 0-171.6-155.376-386.31-453.948-386.31-322.378 0-627.662 294.64-627.662 699.12 0 512.75 450.802 901.14 958.62 901.14 455.396 0 759.857-257.41 907.024-443.37 188.98-248.47 530.18-497.47 996.06-497.47 586.02 0 1043.87 460.99 1043.87 994.13 0 403.09-301.68 779.451-717.48 779.451-325.76 0-523.62-242.212-523.62-448.691 0-172.92 108.59-285.43 224.09-285.43 49.44 0 96.38 29.94 96.38 72.72 0 1.23-.04 2.73-.14 4.4-52.21 16.28-107.77 62.79-107.77 156.97 0 120.66 118.55 247.528 304.6 247.528 198.23 0 458.7-185.358 458.7-533.498 0-380.13-340.54-717.73-784.53-717.73-576.51 0-993.41 503.89-993.41 1046.79 0 192.229 40.69 345.612 90.68 471.259 58.5 147.022 92.05 327.537 92.05 494.933 0 296.482-124.49 557.407-240.08 709.835-135.014 178.038-420.922 423.17-846.424 423.17-436.323 0-866.953-328.68-866.953-809.468 0-354.375 264.36-607.459 535.995-607.459 234.4031 0 362.281 160.598 362.281 294.65C192.519-73.2041 144.269.0741997 83.0175.0741997 70.849.0741997 57.7803-7.04481 52.5962-10.5086c2.6364-11.489 3.7873-22.8759 3.7873-34.1787 0-97.5887-90.3271-164.3887-188.0355-164.3887-159.046 0-315.765 144.2453-315.765 377.092 0 251.562 233.243 540.365 615.296 540.365 446.304 0 809.134-394.841 809.134-871.127 0-625.716-514.842-1016.474-990.2774-1076.994-435.3996-63.49-806.0276-343.54-968.9146-730.28-42.141-100.06-83.981-258-83.981-436.85Zm-2222.8 3849.98c0-465.608 351.66-955.127 901.74-955.127 392.33 0 692.87 295.158 692.87 626.057 0 298.22-220.22 441.84-367.04 441.84-129.82 0-212.93-81.51-212.93-155.87 0-38.69 14.34-56.02 34.32-65.88 22.56 20.67 60.13 40.95 100.22 40.95 106.25 0 201.17-105.28 201.17-238.38 0-172.488-156.28-386.323-453.95-386.323-322.38 0-627.66 294.653-627.66 699.123 0 512.75 450.8 901.14 958.62 901.14 461.4 0 761.08-258.64 918.81-458.58 192.221-243.66 526.288-482.26 984.278-482.26 538.723 0 1043.859 415.7 1043.859 994.12 0 403.1-301.664 779.46-717.468 779.46-325.569 0-523.629-242.01-523.629-448.7 0-173.18 108.816-285.42 224.098-285.42 49.4696 0 96.3688 29.98 96.3688 72.72 0 1.24-.0323 2.73-.1392 4.4-51.2718 15.54-107.7626 62.78-107.7626 156.96 0 121.25 119.033 247.54 304.596 247.54 196.982 0 458.702-184.11 458.702-533.5 0-379.82-340.263-717.73-784.529-717.73-574.062 0-993.414 501.18-993.414 1046.81 0 461.8 237.629 763.7 417.859 928.54C-1767.69 3448.08-2588.9 2833.41-3095.93 2078.1c-47.65-70.23-87.69-143.77-116.28-215.83-40.48-102.05-76.75-251.5-76.75-419.16Zm1011.32 1160.38c459.22 401.74 908.98 571.1 915.3 576.11-39.59-126.43-68.19-264.79-68.19-441.32 0-114.9 11.75-203 29.77-287.24-383.19 150.1-434.22 171.41-642.97 171.41-83.62 0-160.16-6.53-233.91-18.96Z"/>
    <path fill="#DDD" d="M-1066.16 2726.46c0-465.62 351.661-955.14 901.744-955.14 392.311 0 692.862 295.15 692.862 626.06 0 298.22-220.221 441.83-367.035 441.83-129.5765 0-212.9298-81.27-212.9298-155.87 0-36.78 12.8237-55.25 34.3211-65.87 26.67836 24.91 65.4438 40.94 100.2152 40.94 112.1205 0 201.1685-112.82 201.1685-238.38 0-172.66-156.434-386.32-453.948-386.32-322.376 0-627.662 294.64-627.662 699.12 0 512.75 450.802 901.14 958.62 901.14 700.287 0 1178.174-607.16 1178.174-1224.67 0-478.94-182.73-548.95-182.73-966.19 0-465.608 351.66-955.127 901.74-955.127 392.33 0 692.86 295.158 692.86 626.057 0 298.22-220.22 441.84-367.03 441.84-129.83 0-212.93-81.53-212.93-155.87 0-36.77 12.82-55.26 34.32-65.88 22.56 20.67 60.13 40.95 100.21 40.95 106.26 0 201.18-105.28 201.18-238.38 0-172.49-156.29-386.323-453.96-386.323-322.37 0-627.66 294.663-627.66 699.123 0 512.75 450.8 901.14 958.62 901.14 322.09 0 536.43-119.23 680.8-226.76C2391.56 3093.55 1269.94 3728.42 0 3728.42c-186.322 0-369.452-13.66-548.441-40.05-116.352-76.77-517.719-384.76-517.719-961.91Zm2482.64 429.4c521.34-234.06 835.1-534.13 847.17-540.19-335.94-36.9-534.91-167.9-651.36-256.91.28 12.77.42 25.54.42 38.27 0 225.85-48.82 493.6-196.23 758.83ZM-3459.16 0c0 219.003 20.66 436.923 62.11 652.58 199.92-272.529 413.02-379.439 548.23-435.7-246.07-135.0399-448.21-327.407-592.47-568.106-11.43 112.007-17.87 230.673-17.87 351.226Zm2753.403-2400.5c0-354.37 264.353-607.45 535.995-607.45 234.2874 0 362.281 160.31 362.281 294.64 0 73.45-48.248 146.72-109.5015 146.72-12.1543 0-25.2497-7.22-30.3858-10.74 2.6009-11.34 3.7518-22.72 3.7518-34.02 0-97.59-90.3275-164.39-188.0355-164.39-159.635 0-315.765 144.86-315.765 377.09 0 250.36 231.975 540.36 615.296 540.36 444.26 0 809.134-392.63 809.134-871.12 0-512.51-343.784-845.89-669.635-986.53C1748.86-3598.31 2958.26-2660.79 3468.49-1370.48c-29.5 506.379-433.8 1062.788-1084.5 1062.788-436.32 0-866.95-328.702-866.95-809.478 0-354.36 264.35-607.45 535.99-607.45 232.22 0 362.29 158.62 362.29 294.66 0 73.42-48.25 146.7-109.51 146.7-12.15 0-25.24-7.21-30.38-10.73 2.6-11.34 3.75-22.73 3.75-34.03 0-97.96-90.78-164.39-188.04-164.39-159.49 0-315.76 144.74-315.76 377.1 0 250.117 231.76 540.358 615.29 540.358 444.26 0 809.14-392.628 809.14-871.118 0-664.93-585.02-1085.8-1135.53-1085.8-537.98 0-896.04 306.43-1068.47 532.92-136.407 172.2-416.381 407.93-834.614 407.93-436.316 0-866.953-328.68-866.953-809.48Zm1839.127-867.72c59.96 136.34 114.9 314.17 114.9 516.69 0 62.03-4.12 118.81-11.56 175.86 206.14-125.01 471.4-223.81 788.03-229.02-254.17-175.21-507.04-330.35-891.37-463.53ZM-3728.42 0c0-876.782 302.62-1682.86 809.11-2319.49 191.52-95.68 396.94-120.71 537.99-120.71 586.02 0 1043.87 460.99 1043.87 994.13 0 403.09-301.67 779.451-717.48 779.451-325.75 0-523.62-242.212-523.62-448.691 0-172.92 108.59-285.43 224.09-285.43 49.59 0 96.38 30.06 96.38 72.72 0 1.23-.03 2.73-.14 4.4-52.18 16.26-107.77 62.79-107.77 156.97 0 122.09 119.51 247.528 304.6 247.528 198.23 0 458.7-185.358 458.7-533.498 0-380.13-340.54-717.73-784.53-717.73-576.51 0-993.41 503.89-993.41 1046.79 0 682.778 535.9 1181.9825 1151.59 1260.636 425.19 62.674 891.59 413.038 891.59 983.524 0 403.09-301.67 779.45-717.48 779.45-325.57 0-523.62-242.01-523.62-448.7 0-172.92 108.59-285.43 224.09-285.43 49.56 0 96.38 30.06 96.38 72.72 0 1.24-.03 2.73-.14 4.4-51.36 15.4-107.77 62.79-107.77 156.97 0 134.22 133.55 247.54 304.6 247.54 198.23 0 458.7-185.36 458.7-533.51 0-379.823-340.26-717.724-784.53-717.724-576.51 0-993.41 503.889-993.41 1046.794 0 52.02 3.25 102.41 8.93 150.44C-3600.46 1110.36-3728.42 570.128-3728.42 0Z"/>
  </g>
</svg>