<?xml version="1.0" standalone="no"?>
<svg xmlns="http://www.w3.org/2000/svg" width="650" height="600">
  <g stroke="#000" stroke-width="24" transform="matrix(0 -.081 -.081 0 317 300)">
    <path fill="#F00000" d="M-912.753 2639.07c40.072 171.34 140.224 359.93 262.394 486.57 111.831 115.93 279.112 217.26 434.649 259.13 141.2012 38.01 318.894 38.69 459.387-1.87 126.284-36.45 263.354-118.78 352.074-215.76 78.793-86.13 144.456-212.29 165.967-327.02 18.822-100.39 9.157-224.75-28.736-319.6-32.544-81.46-97.261-167.29-169.141-217.58-60.291-42.17-145.814-72.34-219.392-72.8-59.906-.37-131.709 19.89-179.803 55.61-37.826 28.09-73.1213 76.46-83.0791 122.51-7.6421 35.35-1.1375 82.69 20.3631 111.77 17.35 23.46 53.371 42.1 82.474 40.01-16.367-24.16-18.229-64.68-6.586-91.43 14.429-33.16 52.178-62.47 86.609-73.52 44.862-14.4 104.396-8.02 147.639 10.69 54.981 23.79 108.427 75.85 138.057 127.91 36.391 63.95 53.028 153.1 46.648 226.4-7.607 87.4-49.581 186.36-103.857 255.27-63.197 80.24-166.057 150.79-262.409 184.69-110.118 38.73-252.2062 44.95-366.192 19.77-128.348-28.34-268.187-105.88-362.897-197.02-105.367-101.39-193.629-255.61-231.31-396.9-41.506-155.64-37.39-351.18 7.09-505.99 48.592-169.12 161.835-350.15 290.187-470.52 139.237-130.59 345.0232-236.7 531.4047-277.94 216.4733-43.56 456.6863-161.59 621.0693-309.02 153.238-137.44 290.323-345.992 352.293-542.282 57.48-182.033 68.48-413.303 25.01-599.178-40.07-171.343-140.227-359.928-262.396-486.572-111.832-115.927-279.112-217.259-434.65-259.132-141.201-38.013-318.894-38.687-459.3865 1.866C-185.557-786.416-322.627-704.081-411.347-607.101c-78.793 86.129-144.456 212.288-165.967 327.021-18.822 100.392-9.158 224.7436 28.735 319.5949 32.545 81.4621 97.261 167.2931 169.141 217.5771 60.292 42.176 145.815 72.343 219.393 72.802 59.906.373 131.7088-19.885 179.8023-55.605 37.8267-28.094 73.1214-76.46 83.0797-122.514 7.642-35.344 1.137-82.6888-20.3639-111.7635C65.1238 16.551 29.1028-2.09619 0 0c16.3667 24.1558 18.228 64.6748 6.58569 91.4297C-7.84277 124.587-45.5925 153.893-80.0227 164.947c-44.8633 14.403-104.3963 8.02-147.6403-10.692-54.981-23.791-108.426-75.8448-138.056-127.9117-36.392-63.9495-53.028-153.0983-46.648-226.4003 7.607-87.391 49.581-186.354 103.857-255.269 63.197-80.242 166.057-150.787 262.4092-184.682 110.1174-38.738 252.2058-44.951 366.1918-19.779 128.348 28.343 268.187 105.882 362.897 197.022 105.367 101.393 193.629 255.617 231.31 396.9066 41.505 155.6357 37.39 351.1714-7.09 505.9834-48.593 169.124-161.836 350.152-290.187 470.526C477.783 1041.23 271.997 1147.34 85.6161 1188.59c-216.4741 43.56-456.6871 161.59-621.0701 309.02-153.238 137.44-290.323 345.99-352.297 542.28-57.472 182.03-68.472 413.3-25.002 599.18Z"/>
    <path fill="#0060E0" d="M-3051.52-1480.43c-31.57 127.59-28.8 287.47 10.82 412.79 35.2 111.303 111.62 231.248 200.23 307.244 77.53 66.496 190.05 120.302 291.14 134.911 86.82 12.547 193.51-.583 273-37.691 66.67-31.126 135.56-90.108 172.74-153.599 30.28-51.693 48.64-124.006 41.75-183.515-5.42-46.81-29.65-101.56-64.56-133.21-26.79-24.29-71.04-42.33-106.97-38.24-28.99 3.29-63.15 25.16-75.89 51.42 29.1-2.1 65.12 16.55 82.47 40.01 21.51 29.07 28.01 76.42 20.37 111.76-9.96 46.054-45.26 94.42-83.08 122.514-48.1 35.72-119.9 55.978-179.8 55.605-73.58-.459-159.11-30.626-219.4-72.802-71.88-50.283-136.59-136.115-169.14-217.577-37.89-94.85-47.56-219.2-28.73-319.59 21.51-114.74 87.17-240.9 165.96-327.03 88.72-96.98 225.79-179.31 352.08-215.76 140.49-40.56 318.18-39.88 459.38-1.87 155.54 41.87 322.82 143.21 434.65 259.13 122.17 126.65 222.33 315.23 262.4 486.58 43.47 185.87 32.47 417.14-25 599.176-70.52 209.253-88.4 476.3-42.92 692.3757 42.41 201.4253 154.48 424.4213 293.481 576.2373 128.909 140.79 323.695 265.951 506.402 321.242 168.424 50.969 381.8199 58.529 552.5811 16.049C228.755 966.843 400.152 872.639 514.184 758.876c103.521-103.277 192.951-256.827 228.077-398.774 31.573-127.591 28.805-287.4645-10.823-412.7888C696.245-163.987 619.819-283.933 531.213-359.929c-77.53-66.496-190.055-120.302-291.145-134.911-86.82-12.547-193.5104.583-272.9972 37.691-66.6714 31.126-135.5578 90.108-172.7438 153.599-30.277 51.693-48.634 124.006-41.747 183.516 5.417 46.8057 29.656 101.555 64.561 133.2056 26.788 24.2906 71.041 42.3299 106.9713 38.2466C-46.8958 48.1235-12.7358 26.252 0 0c-29.1028 2.09619-65.1238-16.551-82.4731-40.0115-21.5009-29.0747-28.0059-76.4195-20.3639-111.7635 9.9583-46.054 45.253-94.42 83.0797-122.514 48.0935-35.72 119.8963-55.978 179.8023-55.605 73.578.459 159.101 30.626 219.393 72.802 71.88 50.284 136.596 136.115 169.141 217.5771 37.893 94.8513 47.557 219.2029 28.735 319.5949-21.511 114.733-87.174 240.892-165.967 327.021-88.72 96.98-225.79 179.315-352.0745 215.767-140.4925 40.553-318.1855 39.879-459.3865 1.866-155.538-41.873-322.818-143.205-434.65-259.132C-956.933 438.958-1057.09 250.373-1097.16 79.03c-43.47-185.875-32.47-417.145 25.01-599.181 70.51-209.253 88.395-476.3 42.91-692.379-42.41-201.42-154.48-424.42-293.48-576.23-128.91-140.79-323.7-265.95-506.4-321.25-168.43-50.96-381.82-58.52-552.58-16.04-156.32 38.88-327.71 133.09-441.74 246.85-103.52 103.28-192.95 256.83-228.08 398.77Z"/>
    <path fill="#F0E500" d="M-914.298 65.8584c37.681 141.2896 125.943 295.5136 231.31 396.9066 94.71 91.14 234.549 168.679 362.897 197.022 113.986 25.172 256.0744 18.959 366.1918-19.779C142.453 606.113 245.313 535.568 308.51 455.326c54.276-68.915 96.25-167.878 103.857-255.269 6.38-73.302-10.256-162.4508-46.648-226.4003-29.63-52.0669-83.075-104.1207-138.056-127.9117-43.244-18.712-102.777-25.095-147.6403-10.692-34.4302 11.054-72.17993 40.36-86.60839 73.5173C-18.228-64.6748-16.3667-24.1558 0 0c12.7358-26.252 46.8958-48.1235 75.8877-51.4182 35.9303-4.0833 80.1833 13.956 106.9713 38.2466 34.905 31.6506 59.144 86.3999 64.561 133.2056 6.887 59.51-11.47 131.823-41.747 183.516-37.186 63.491-106.0724 122.473-172.7438 153.599-79.4868 37.108-186.1772 50.238-272.9972 37.691-101.09-14.609-213.615-68.415-291.145-134.911-88.606-75.996-165.032-195.942-200.225-307.2422-39.628-125.3243-42.396-285.1978-10.823-412.7888 35.126-141.947 124.556-295.497 228.077-398.774 114.032-113.763 285.429-207.967 441.7399-246.854 170.7612-42.48 384.1571-34.92 552.5811 16.049C662.844-934.39 857.63-809.229 986.54-668.443c145.96 165.691 368.28 314.704 578.16 383.349 195.64 63.99 444.79 78.432 645.77 33.959 186.38-41.244 392.17-147.353 531.41-277.936 128.35-120.375 241.59-301.402 290.18-470.526 44.48-154.813 48.6-350.343 7.09-505.983-37.68-141.29-125.94-295.51-231.31-396.91-94.71-91.14-234.55-168.68-362.89-197.02-113.99-25.17-256.08-18.96-366.2 19.78-96.35 33.89-199.21 104.44-262.41 184.68-54.27 68.92-96.25 167.88-103.85 255.27-6.38 73.3 10.25 162.45 46.65 226.4 29.63 52.07 83.07 104.12 138.05 127.91 43.25 18.71 102.78 25.1 147.64 10.69 34.43-11.05 72.18-40.35 86.61-73.51 11.64-26.76 9.78-67.28-6.59-91.43-12.73 26.25-46.89 48.12-75.88 51.42-35.93 4.08-80.19-13.96-106.97-38.25-34.91-31.65-59.15-86.4-64.57-133.21-6.88-59.51 11.47-131.82 41.75-183.51 37.19-63.49 106.07-122.48 172.75-153.6 79.48-37.11 186.17-50.24 272.99-37.69 101.09 14.61 213.62 68.41 291.15 134.91 88.6 76 165.03 195.94 200.22 307.24 39.63 125.33 42.4 285.2 10.83 412.79-35.13 141.947-124.56 295.496-228.08 398.774-114.03 113.763-285.43 207.966-441.74 246.851-170.76 42.48-384.16 34.922-552.58-16.046-182.71-55.292-377.5-180.453-506.41-321.238C992.357-936.97 770.031-1085.98 560.159-1154.63c-195.641-63.99-444.796-78.43-645.775-33.96-186.381 41.25-392.167 147.36-531.405 277.939-128.351 120.374-241.594 301.402-290.187 470.526-44.48 154.812-48.595 350.3477-7.09 505.9834Z"/>
    <path fill="#F0E500" d="M-3039.15 1505.58c37.68 141.29 125.94 295.51 231.31 396.91 94.71 91.14 234.55 168.68 362.89 197.02 113.99 25.17 256.08 18.96 366.2-19.78 96.35-33.9 199.21-104.44 262.41-184.68 54.27-68.92 96.25-167.88 103.85-255.27 6.38-73.3-10.25-162.45-46.65-226.4-29.63-52.07-83.07-104.12-138.05-127.91-43.25-18.71-102.78-25.1-147.64-10.69-34.43 11.05-72.18 40.35-86.61 73.51-11.64 26.76-9.78 67.28 6.59 91.43 12.73-26.25 46.89-48.12 75.88-51.42 35.93-4.08 80.19 13.96 106.97 38.25 34.91 31.65 59.15 86.4 64.57 133.21 6.88 59.51-11.47 131.82-41.75 183.51-37.19 63.49-106.07 122.47-172.75 153.6-79.48 37.11-186.17 50.24-272.99 37.69-101.09-14.61-213.62-68.41-291.15-134.91-88.6-76-165.03-195.94-200.22-307.24-39.63-125.33-42.4-285.2-10.83-412.79 35.13-141.947 124.56-295.497 228.08-398.774 114.03-113.763 285.43-207.967 441.74-246.852 170.76-42.479 384.16-34.921 552.58 16.047 182.71 55.291 377.5 180.452 506.41 321.238 145.953 165.691 368.28 314.701 578.151 383.351 195.641 63.99 444.796 78.43 645.775 33.96 186.382-41.25 392.167-147.36 531.405-277.939 128.351-120.374 241.594-301.402 290.187-470.526 44.48-154.812 48.595-350.3474 7.089-505.9836C876.617-207.149 788.354-361.372 682.988-462.765c-94.71-91.14-234.549-168.679-362.897-197.022-113.986-25.172-256.0744-18.959-366.1918 19.779C-142.453-606.113-245.313-535.567-308.51-455.325c-54.276 68.915-96.25 167.877-103.857 255.268-6.38 73.302 10.256 162.4508 46.648 226.4003 29.63 52.0673 83.076 104.1217 138.056 127.9117 43.244 18.712 102.778 25.095 147.6403 10.692 34.4304-11.054 72.17968-40.36 86.60864-73.5176C18.2285 64.6743 16.3669 24.1558 0 0c-12.7361 26.252-46.8958 48.1235-75.8875 51.4182-35.9295 4.0835-80.1835-13.956-106.9715-38.2466-34.905-31.6506-59.144-86.3996-64.561-133.2056-6.887-59.51 11.47-131.823 41.746-183.516 37.186-63.491 106.0732-122.473 172.7446-153.599 79.487-37.108 186.1774-50.238 272.9974-37.691 101.091 14.609 213.615 68.415 291.145 134.911 88.606 75.996 165.031 195.941 200.225 307.2422 39.628 125.324 42.396 285.1978 10.822 412.7898-35.125 141.946-124.555 295.495-228.076 398.773C400.153 872.639 228.756 966.842 72.4443 1005.73c-170.7614 42.48-384.1583 34.92-552.5803-16.049C-662.844 934.39-857.63 809.228-986.54 668.442c-145.96-165.691-368.28-314.704-578.16-383.348-195.64-63.99-444.79-78.433-645.77-33.959-186.38 41.243-392.17 147.352-531.41 277.936-128.35 120.374-241.59 301.402-290.18 470.525-44.48 154.814-48.6 350.344-7.09 505.984Z"/>
    <path fill="#F00000" d="M-1097.16 79.03c40.07 171.343 140.227 359.928 262.397 486.572 111.831 115.927 279.112 217.259 434.649 259.132 141.201 38.013 318.894 38.687 459.3867-1.866C185.557 786.416 322.627 704.081 411.347 607.101c78.793-86.129 144.455-212.288 165.967-327.021 18.822-100.392 9.158-224.7436-28.736-319.5951-32.544-81.4619-97.26-167.2939-169.14-217.5769-60.292-42.176-145.815-72.343-219.393-72.802-59.906-.373-131.7088 19.885-179.8026 55.605-37.8264 28.094-73.1213 76.46-83.0794 122.514-7.642 35.344-1.137 82.6891 20.3639 111.7635C-65.124-16.551-29.1028 2.09619 0 0c-16.3669-24.1558-18.2285-64.6743-6.58594-91.4294C7.84302-124.587 45.5923-153.893 80.0227-164.947c44.8623-14.403 104.3963-8.02 147.6403 10.692 54.98 23.79 108.426 75.8444 138.056 127.9117 36.392 63.9495 53.028 153.0983 46.648 226.4003-7.607 87.391-49.581 186.353-103.857 255.268-63.197 80.242-166.057 150.788-262.4092 184.683-110.1174 38.738-252.2058 44.951-366.1918 19.779-128.348-28.343-268.187-105.882-362.897-197.022-105.366-101.393-193.629-255.616-231.309-396.9064-41.506-155.6362-37.391-351.1716 7.089-505.9836 48.593-169.124 161.836-350.152 290.187-470.526 139.238-130.579 345.023-236.689 531.4049-277.939 216.4731-43.56 456.6861-161.59 621.0701-309.02 153.237-137.44 290.323-345.99 352.296-542.28 57.473-182.03 68.473-413.3 25.003-599.18-40.071-171.34-140.224-359.93-262.393-486.57-111.831-115.93-279.112-217.26-434.65-259.13-141.201-38.01-318.894-38.69-459.386 1.86-126.284 36.46-263.355 118.79-352.075 215.77-78.792 86.13-144.456 212.29-165.967 327.02-18.822 100.39-9.157 224.75 28.736 319.6 32.544 81.46 97.26 167.29 169.14 217.57 60.292 42.18 145.815 72.35 219.393 72.81 59.906.37 131.709-19.89 179.803-55.61 37.826-28.09 73.1209-76.46 83.0789-122.51 7.6421-35.35 1.1377-82.69-20.3639-111.77-17.349-23.46-53.37-42.1-82.473-40.01 16.367 24.16 18.228 64.68 6.586 91.43-14.429 33.16-52.178 62.47-86.609 73.52-44.863 14.4-104.396 8.02-147.64-10.69-54.98-23.79-108.426-75.85-138.056-127.91-36.391-63.95-53.028-153.1-46.648-226.4 7.607-87.4 49.581-186.36 103.857-255.27 63.197-80.24 166.057-150.79 262.409-184.69 110.118-38.73 252.2059-44.95 366.192-19.77 128.348 28.34 268.187 105.88 362.897 197.02 105.367 101.39 193.63 255.61 231.31 396.9 41.506 155.64 37.39 351.18-7.09 505.99-48.593 169.12-161.836 350.15-290.187 470.52-139.238 130.59-345.0235 236.7-531.4048 277.94-216.4732 43.56-456.6862 161.59-621.0692 309.02-153.238 137.44-290.323 345.992-352.293 542.282-57.48 182.033-68.48 413.303-25.01 599.178Z"/>
    <path fill="#0060F0" d="M-742.26-360.103c-31.574 127.592-28.806 287.4658 10.822 412.7898C-696.244 163.988-619.819 283.933-531.213 359.929c77.53 66.496 190.054 120.302 291.145 134.911 86.82 12.547 193.5104-.583 272.9974-37.691C99.6008 426.023 168.488 367.041 205.674 303.55c30.276-51.693 48.633-124.006 41.746-183.516-5.417-46.806-29.656-101.555-64.561-133.2056-26.788-24.2906-71.042-42.3301-106.9715-38.2466C46.8958-48.1235 12.7361-26.252 0 0c29.1028-2.09619 65.124 16.551 82.4731 40.0115C103.974 69.0859 110.479 116.431 102.837 151.775c-9.9581 46.054-45.253 94.42-83.0794 122.514-48.0938 35.72-119.8966 55.978-179.8026 55.605-73.578-.459-159.101-30.626-219.393-72.802-71.88-50.283-136.596-136.115-169.14-217.5769-37.894-94.8515-47.558-219.2031-28.736-319.5951 21.512-114.733 87.174-240.892 165.967-327.021 88.72-96.98 225.79-179.315 352.0743-215.767C81.22-863.421 258.913-862.747 400.114-824.734c155.537 41.873 322.818 143.205 434.649 259.132C956.933-438.958 1057.09-250.373 1097.16-79.03c43.47 185.875 32.47 417.145-25.01 599.181-70.51 209.252-88.395 476.3-42.91 692.379 42.41 201.42 154.48 424.42 293.48 576.23 128.91 140.79 323.7 265.95 506.4 321.25 168.43 50.96 381.82 58.52 552.58 16.04 156.31-38.88 327.71-133.09 441.74-246.85 103.52-103.28 192.95-256.83 228.08-398.77 31.57-127.59 28.8-287.47-10.82-412.79-35.2-111.303-111.62-231.248-200.23-307.244-77.53-66.496-190.05-120.303-291.14-134.912-86.82-12.546-193.51.584-273 37.692-66.67 31.126-135.56 90.108-172.74 153.599-30.28 51.693-48.64 124.006-41.75 183.515 5.42 46.81 29.65 101.56 64.56 133.21 26.79 24.29 71.04 42.33 106.97 38.24 28.99-3.29 63.15-25.16 75.89-51.42-29.1 2.1-65.12-16.55-82.47-40.01-21.51-29.07-28.01-76.42-20.37-111.76 9.96-46.054 45.26-94.42 83.08-122.514 48.1-35.72 119.9-55.978 179.8-55.605 73.58.459 159.11 30.625 219.4 72.802 71.88 50.283 136.59 136.115 169.14 217.577 37.89 94.85 47.56 219.2 28.73 319.59-21.51 114.74-87.17 240.9-165.96 327.03-88.72 96.98-225.79 179.31-352.08 215.76-140.49 40.56-318.18 39.88-459.38 1.87-155.54-41.87-322.82-143.21-434.65-259.13-122.17-126.65-222.33-315.23-262.4-486.58-43.47-185.87-32.47-417.14 25-599.176 70.52-209.253 88.4-476.3 42.92-692.3759-42.41-201.4261-154.48-424.4211-293.481-576.2371C857.63-809.228 662.844-934.39 480.136-989.681c-168.422-50.969-381.8189-58.529-552.5803-16.049C-228.756-966.842-400.153-872.639-514.184-758.876-617.705-655.598-707.135-502.049-742.26-360.103Z"/>
    <path fill="#F0E500" d="M-557.857 2199.93c-31.574 127.6-28.805 287.47 10.823 412.79 35.193 111.3 111.619 231.25 200.225 307.25 77.53 66.49 190.054 120.3 291.1447 134.91 86.8201 12.54 193.5103-.59 272.9973-37.69 66.672-31.13 135.558-90.11 172.744-153.6 30.277-51.7 48.634-124.01 41.747-183.52-5.417-46.8-29.656-101.55-64.561-133.21-26.788-24.29-71.042-42.32-106.972-38.24-28.992 3.29-63.151 25.16-75.887 51.42 29.103-2.1 65.124 16.55 82.473 40.01 21.501 29.07 28.006 76.42 20.364 111.76-9.958 46.06-45.253 94.42-83.08 122.52-48.093 35.72-119.8964 55.97-179.8026 55.6-73.5776-.46-159.1004-30.62-219.3924-72.8-71.88-50.28-136.596-136.12-169.141-217.58-37.893-94.85-47.557-219.2-28.735-319.59 21.511-114.74 87.174-240.89 165.967-327.02 88.72-96.98 225.78992-179.32 352.074-215.77 140.493-40.55 318.185-39.88 459.386-1.87 155.538 41.88 322.819 143.21 434.653 259.14 162.98 190.62 412.87 363.5 649.91 445.46 222.85 77.05 507.8 98.38 738.97 51.87 216.47-43.55 456.68-161.59 621.07-309.02 153.23-137.44 290.32-345.99 352.29-542.28 57.48-182.03 68.48-413.3 25.01-599.18-40.08-171.338-140.23-359.924-262.4-486.568-111.83-115.927-279.11-217.259-434.65-259.131-141.2-38.013-318.89-38.687-459.38 1.866-126.29 36.452-263.36 118.787-352.08 215.767-78.79 86.129-144.45 212.288-165.96 327.021-18.83 100.391-9.16 224.745 28.73 319.595 32.55 81.46 97.26 167.29 169.14 217.58 60.29 42.17 145.82 72.34 219.39 72.8 59.91.37 131.71-19.89 179.81-55.61 37.82-28.09 73.12-76.46 83.08-122.51 7.64-35.34 1.13-82.69-20.37-111.76-17.35-23.46-53.37-42.11-82.47-40.02 16.37 24.16 18.23 64.68 6.59 91.43-14.43 33.16-52.18 62.47-86.61 73.52-44.87 14.4-104.4 8.02-147.64-10.69-54.98-23.79-108.43-75.84-138.06-127.91-36.39-63.95-53.03-153.1-46.65-226.402 7.61-87.392 49.58-186.353 103.86-255.268 63.2-80.243 166.06-150.788 262.41-184.684 110.12-38.737 252.2-44.95 366.19-19.779 128.35 28.344 268.19 105.883 362.9 197.022 105.36 101.394 193.63 255.617 231.31 396.911 41.5 155.63 37.39 351.17-7.09 505.98-48.6 169.12-161.84 350.15-290.19 470.53-139.24 130.58-345.02 236.69-531.4 277.93-200.98 44.48-450.14 30.03-645.78-33.96-209.87-68.64-432.2-217.65-578.16-383.35-128.91-140.79-323.693-265.95-506.4-321.24-168.423-50.97-381.819-58.53-552.581-16.05-156.3108 38.88-327.708 133.09-441.739 246.85-103.521 103.28-192.951 256.83-228.077 398.77Z"/>
    <path fill="#0060E0" d="M-2702.17 1159.64c-18.82 100.39-9.16 224.75 28.74 319.6 32.54 81.46 97.26 167.29 169.14 217.57 60.29 42.18 145.81 72.35 219.39 72.81 59.91.37 131.71-19.89 179.8-55.61 37.83-28.09 73.12-76.46 83.08-122.51 7.64-35.35 1.14-82.69-20.36-111.77-17.35-23.46-53.37-42.1-82.47-40.01 16.36 24.16 18.22 64.68 6.58 91.43-14.43 33.16-52.18 62.46-86.61 73.52-44.86 14.4-104.39 8.02-147.64-10.69-54.98-23.79-108.42-75.85-138.05-127.92-36.4-63.94-53.03-153.09-46.65-226.4 7.61-87.39 49.58-186.35 103.86-255.264 63.19-80.242 166.05-150.787 262.4-184.683 110.12-38.737 252.21-44.951 366.2-19.779 128.34 28.344 268.18 105.883 362.89 197.022 105.37 101.394 193.63 255.614 231.31 396.904 41.51 155.64 37.39 351.17-7.09 505.98-83.59 236.46-108.36 539.32-60.82 785.57 44.7 231.53 168.7 488.96 324.56 665.9 145.957 165.7 368.284 314.71 578.155 383.35 195.641 63.99 444.7963 78.44 645.775 33.96 186.381-41.24 392.167-147.35 531.405-277.93 128.351-120.38 241.595-301.4 290.185-470.53 44.48-154.81 48.6-350.35 7.09-505.98-37.68-141.29-125.942-295.52-231.308-396.91-94.711-91.14-234.55-168.68-362.897-197.02-113.986-25.17-256.075-18.96-366.192 19.78-96.3526 33.89-199.2127 104.44-262.41 184.68-54.276 68.92-96.249 167.88-103.856 255.27-6.381 73.3 10.256 162.45 46.648 226.4 29.63 52.07 83.0753 104.12 138.0565 127.91 43.2433633 18.71 102.7768 25.1 147.6395 10.69 34.431-11.05 72.18-40.36 86.609-73.51 11.642-26.76 9.781-67.28-6.586-91.43-12.736 26.25-46.896 48.12-75.887 51.42-35.9303 4.08-80.1845-13.96-106.97257-38.25-34.90503-31.65-59.14383-86.4-64.56083-133.21-6.8874-59.51 11.47-131.82 41.7466-183.51C15.9163 2193 84.803 2134.01 151.475 2102.89c79.486-37.11 186.177-50.24 272.997-37.69 101.09 14.61 213.614 68.41 291.145 134.91 88.606 75.99 165.031 195.94 200.225 307.24 39.627 125.32 42.396 285.2 10.823 412.79-35.126 141.95-124.556 295.5-228.077 398.77-114.032 113.77-285.429 207.97-441.74 246.85-170.7616 42.48-384.158 34.93-552.58-16.04-182.708-55.29-377.494-180.45-506.403-321.24-139.004-151.82-251.075-374.82-293.475-576.24-45.49-216.08-27.6-483.12 42.91-692.37 57.472-182.03 68.472-413.3 25-599.18-40.07-171.34-140.22-359.93-262.39-486.571-111.83-115.926-279.11-217.259-434.65-259.131-141.2-38.013-318.89-38.687-459.39 1.866-126.28 36.452-263.35 118.787-352.07 215.767-78.79 86.129-144.46 212.289-165.97 327.019Z"/>
    <path fill="#F00000" d="M-3404.87 1531.92c42.4 201.43 154.47 424.42 293.48 576.24 128.91 140.79 323.69 265.95 506.4 321.24 168.42 50.97 381.82 58.53 552.58 16.05 156.31-38.89 327.71-133.09 441.74-246.85 103.52-103.28 192.95-256.83 228.08-398.78 31.57-127.59 28.8-287.46-10.83-412.79-35.19-111.3-111.62-231.24-200.22-307.24-77.53-66.49-190.06-120.3-291.15-134.909-86.82-12.547-193.51.584-272.99 37.692-66.68 31.127-135.56 90.107-172.75 153.597-30.27 51.69-48.63 124.01-41.74 183.52 5.41 46.8 29.65 101.55 64.56 133.2 26.78 24.29 71.04 42.33 106.97 38.25 28.99-3.29 63.15-25.17 75.89-51.42-29.11 2.1-65.13-16.55-82.48-40.01-21.5-29.07-28-76.42-20.36-111.76 9.96-46.06 45.25-94.42 83.08-122.52 48.09-35.72 119.89-55.98 179.8-55.6 73.58.46 159.1 30.62 219.39 72.8 71.88 50.28 136.6 136.11 169.14 217.58 37.9 94.85 47.56 219.2 28.74 319.59-21.51 114.73-87.18 240.89-165.97 327.02-88.72 96.98-225.79 179.32-352.07 215.77-140.49 40.55-318.19 39.88-459.39 1.87-155.54-41.88-322.82-143.21-434.65-259.14-122.17-126.64-222.32-315.23-262.39-486.57-43.47-185.87-32.47-417.14 25-599.176 61.97-196.29 199.06-404.843 352.3-542.278 164.38-147.432 404.59-265.466 621.07-309.027 186.38-41.2507 392.16-147.3596 531.4-277.943 128.35-120.374 241.6-301.402 290.19-470.526 44.48-154.812 48.59-350.35 7.09-505.98-37.68-141.29-125.94-295.52-231.31-396.91-94.71-91.14-234.55-168.68-362.9-197.02-113.98-25.17-256.07-18.96-366.19 19.78-96.35 33.89-199.21 104.44-262.41 184.68-54.28 68.91-96.25 167.88-103.86 255.27-6.38 73.3 10.26 162.45 46.65 226.4 29.63 52.07 83.08 104.12 138.06 127.91 43.24 18.712 102.78 25.095 147.64 10.692 34.43-11.054 72.18-40.36 86.61-73.522 11.64-26.75 9.78-67.27-6.59-91.42-12.74 26.25-46.9 48.12-75.89 51.41-35.93 4.09-80.18-13.95-106.97-38.24-34.9-31.65-59.14-86.4-64.56-133.21-6.89-59.51 11.47-131.82 41.75-183.52 37.18-63.49 106.07-122.47 172.74-153.59 79.49-37.11 186.18-50.24 273-37.7 101.09 14.61 213.61 68.42 291.14 134.92 88.61 75.99 165.04 195.94 200.23 307.24 39.63 125.32 42.4 285.196 10.82 412.788-35.12 141.946-124.55 295.495-228.08 398.773-114.03 113.763-285.42 207.966-441.73 246.858-246.58 45.841-521.25 175.8119-710.74 340.112-178.16 154.471-339.1 390.577-414.41 614.03-70.51 209.249-88.4 476.299-42.91 692.369Z"/>
    <path fill="#F0E500" d="M-3406.42-1041.29c40.08 171.338 140.23 359.924 262.4 486.567 111.83 115.927 279.11 217.259 434.65 259.132 141.2 38.013 318.89 38.687 459.38-1.866 126.29-36.452 263.36-118.787 352.08-215.767 78.79-86.129 144.45-212.288 165.96-327.021 18.83-100.392 9.16-224.745-28.73-319.595-32.55-81.46-97.26-167.29-169.14-217.58-60.29-42.17-145.82-72.34-219.39-72.8-59.91-.37-131.71 19.89-179.81 55.61-37.82 28.09-73.12 76.46-83.08 122.51-7.64 35.34-1.13 82.69 20.37 111.76 17.35 23.46 53.37 42.11 82.47 40.02-16.37-24.16-18.23-64.68-6.59-91.43 14.43-33.16 52.18-62.47 86.61-73.52 44.87-14.4 104.4-8.02 147.64 10.69 54.98 23.79 108.43 75.84 138.06 127.91 36.39 63.95 53.03 153.1 46.65 226.402-7.61 87.392-49.58 186.353-103.86 255.268-63.2 80.242-166.06 150.788-262.41 184.683-110.12 38.738-252.2 44.951-366.19 19.779-128.35-28.343-268.19-105.882-362.9-197.022-105.36-101.393-193.63-255.616-231.31-396.91-41.5-155.63-37.39-351.17 7.09-505.98 48.6-169.12 161.84-350.15 290.19-470.53 139.24-130.58 345.02-236.69 531.4-277.93 200.98-44.48 450.14-30.03 645.78 33.96 209.87 68.64 432.2 217.65 578.16 383.35 128.91 140.79 323.692 265.95 506.399 321.24 168.424 50.97 381.82 58.53 552.581 16.05 156.3116-38.88 327.708-133.09 441.74-246.85 103.521-103.28 192.951-256.83 228.077-398.77 31.574-127.6 28.805-287.47-10.823-412.79-35.193-111.3-111.618-231.25-200.225-307.25-77.53-66.49-190.054-120.3-291.1444-134.91-86.8204-12.54-193.5106.59-272.9976 37.69-66.671 31.13-135.558 90.11-172.744 153.6-30.277 51.7-48.634 124.01-41.747 183.52 5.417 46.8 29.656 101.55 64.561 133.2 26.788 24.3 71.042 42.33 106.971 38.25 28.992-3.29 63.152-25.17 75.888-51.42-29.103 2.1-65.124-16.55-82.473-40.01-21.501-29.07-28.006-76.42-20.363-111.76 9.958-46.06 45.252-94.42 83.079-122.52 48.093-35.72 119.8964-55.97 179.8026-55.6 73.5779.46 159.1014 30.62 219.3924 72.8 71.88 50.28 136.597 136.12 169.141 217.58 37.893 94.85 47.557 219.2 28.735 319.59-21.511 114.74-87.174 240.89-165.967 327.02-88.72 96.98-225.79017 179.32-352.074 215.77-140.493 40.55-318.186 39.88-459.387 1.87-155.537-41.88-322.818-143.21-434.652-259.14-162.98-190.62-412.87-363.5-649.91-445.46-222.85-77.05-507.8-98.38-738.97-51.87-216.47 43.55-456.68 161.59-621.07 309.02-153.23 137.43-290.32 345.99-352.29 542.28-57.48 182.03-68.48 413.3-25.01 599.18Z"/>
    <path fill="#0060E0" d="M-1098.7-2494.18c37.68 141.29 125.941 295.51 231.308 396.91 94.71 91.14 234.549 168.68 362.897 197.02 113.986 25.17 256.075 18.96 366.192-19.78 96.3523-33.89 199.2122-104.44 262.409-184.68 54.276-68.92 96.25-167.88 103.857-255.27 6.381-73.3-10.256-162.45-46.648-226.4-29.629-52.07-83.0753-104.12-138.056-127.91-43.2436191-18.71-102.7771-25.1-147.64-10.69-34.43 11.05-72.18 40.36-86.609 73.51-11.642 26.76-9.781 67.28 6.586 91.43 12.736-26.25 46.896-48.12 75.888-51.42 35.9298-4.08 80.1835 13.96 106.97157 38.25 34.90503 31.65 59.14353 86.4 64.56083 133.21 6.8872 59.51-11.4703 131.82-41.7469 183.51-37.1862 63.49-106.0727 122.48-172.7445 153.6-79.486 37.11-186.177 50.24-272.997 37.69-101.09-14.61-213.615-68.41-291.145-134.91-88.606-75.99-165.031-195.94-200.225-307.24-39.627-125.32-42.396-285.2-10.823-412.79 35.127-141.95 124.557-295.5 228.078-398.77 114.031-113.77 285.428-207.97 441.739-246.85 170.7613-42.48 384.158-34.93 552.581 16.04 182.707 55.29 377.493 180.45 506.402 321.24 139.005 151.82 251.075 374.82 293.475 576.24 45.49 216.08 27.6 483.12-42.91 692.37-57.472 182.03-68.472 413.3-25 599.18 40.07 171.34 140.22 359.93 262.39 486.57 111.83 115.927 279.11 217.259 434.65 259.132 141.2 38.013 318.89 38.687 459.39-1.866 126.28-36.452 263.35-118.787 352.07-215.768 78.79-86.128 144.46-212.288 165.97-327.018 18.82-100.39 9.16-224.75-28.74-319.6-32.54-81.46-97.26-167.29-169.14-217.57-60.29-42.18-145.81-72.35-219.39-72.81-59.91-.37-131.71 19.89-179.8 55.61-37.83 28.09-73.12 76.46-83.08 122.51-7.64 35.35-1.14 82.69 20.36 111.77 17.35 23.46 53.37 42.1 82.47 40.01-16.36-24.16-18.22-64.68-6.58-91.43 14.43-33.16 52.18-62.46 86.61-73.52 44.86-14.4 104.39-8.02 147.64 10.69 54.98 23.79 108.42 75.85 138.05 127.91 36.4 63.95 53.03 153.1 46.65 226.4-7.61 87.4-49.58 186.36-103.86 255.274-63.19 80.242-166.05 150.787-262.4 184.682-110.12 38.737-252.21 44.951-366.2 19.779-128.34-28.344-268.18-105.882-362.89-197.022-105.37-101.393-193.63-255.613-231.31-396.903-41.51-155.64-37.39-351.18 7.09-505.98 83.59-236.46 108.36-539.32 60.82-785.57-44.7-231.53-168.7-488.96-324.56-665.9-145.956-165.7-368.283-314.71-578.155-383.35-195.641-63.99-444.796-78.44-645.775-33.96-186.381 41.24-392.167 147.35-531.404 277.93-128.352 120.38-241.596 301.4-290.186 470.53-44.48 154.81-48.6 350.35-7.09 505.98Z"/>
    <path fill="#F00000" d="M1382.59-1799.82c-31.57 127.59-28.8 287.46 10.83 412.78 35.19 111.31 111.62 231.25 200.22 307.25 77.53 66.49 190.06 120.299 291.15 134.908 86.82 12.547 193.51-.583 272.99-37.691 66.68-31.127 135.56-90.107 172.75-153.597 30.27-51.7 48.63-124.01 41.74-183.52-5.41-46.8-29.65-101.55-64.56-133.2-26.78-24.29-71.04-42.33-106.97-38.25-28.99 3.29-63.15 25.17-75.89 51.42 29.11-2.1 65.13 16.55 82.48 40.01 21.5 29.07 28 76.42 20.36 111.76-9.96 46.06-45.25 94.42-83.08 122.52-48.09 35.72-119.89 55.97-179.8 55.6-73.58-.46-159.1-30.62-219.39-72.8-71.88-50.28-136.6-136.12-169.14-217.58-37.9-94.85-47.56-219.2-28.74-319.59 21.51-114.74 87.18-240.89 165.97-327.02 88.72-96.98 225.79-179.32 352.07-215.77 140.49-40.55 318.19-39.88 459.39-1.87 155.54 41.88 322.82 143.21 434.65 259.14 122.17 126.64 222.32 315.23 262.39 486.57 43.47 185.87 32.47 417.14-25 599.176-61.97 196.29-199.06 404.842-352.3 542.278-164.38 147.432-404.59 265.466-621.07 309.0272-186.38 41.2502-392.16 147.3591-531.4 277.9428-128.35 120.374-241.6 301.402-290.19 470.526-44.48 154.812-48.59 350.35-7.09 505.98 37.68 141.29 125.94 295.52 231.31 396.91 94.71 91.14 234.55 168.68 362.9 197.02 113.98 25.17 256.07 18.96 366.19-19.78 96.35-33.89 199.21-104.44 262.41-184.68 54.28-68.92 96.25-167.88 103.86-255.27 6.38-73.3-10.26-162.45-46.65-226.4-29.63-52.07-83.08-104.12-138.06-127.911-43.24-18.711-102.78-25.094-147.64-10.691-34.43 11.054-72.18 40.359-86.61 73.522-11.64 26.75-9.78 67.27 6.59 91.42 12.74-26.25 46.89-48.12 75.89-51.41 35.93-4.09 80.18 13.95 106.97 38.24 34.9 31.65 59.14 86.4 64.56 133.21 6.89 59.51-11.47 131.82-41.75 183.51-37.18 63.5-106.07 122.48-172.74 153.6-79.49 37.11-186.18 50.24-273 37.7-101.09-14.61-213.61-68.42-291.14-134.92-88.61-75.99-165.04-195.94-200.23-307.24-39.63-125.32-42.4-285.196-10.82-412.788 35.12-141.946 124.55-295.496 228.08-398.773 114.03-113.763 285.42-207.967 441.73-246.859 246.58-45.84 521.25-175.8109 710.74-340.111 178.16-154.472 339.1-390.578 414.41-614.031 70.51-209.248 88.4-476.298 42.91-692.368-42.4-201.43-154.47-424.43-293.48-576.24-128.91-140.79-323.69-265.95-506.4-321.24-168.42-50.97-381.82-58.53-552.58-16.05-156.31 38.89-327.71 133.09-441.74 246.85-103.52 103.28-192.95 256.83-228.08 398.78Z"/>
    <path fill="#F80" d="M-2867.12 1079.62c-31.57 127.59-28.8 287.46 10.83 412.79 35.19 111.3 111.62 231.24 200.22 307.24 77.53 66.5 190.06 120.3 291.15 134.91 86.82 12.55 193.51-.58 272.99-37.69 66.68-31.13 135.56-90.11 172.75-153.6 30.28-51.69 48.63-124 41.75-183.51-5.42-46.81-29.66-101.56-64.57-133.21-26.78-24.29-71.04-42.33-106.97-38.25-28.99 3.3-63.15 25.17-75.88 51.42 29.1-2.09 65.12 16.55 82.47 40.01 21.5 29.08 28 76.42 20.36 111.77-9.96 46.05-45.25 94.42-83.08 122.51-48.09 35.72-119.89 55.98-179.8 55.61-73.58-.46-159.1-30.63-219.39-72.81-71.88-50.28-136.6-136.11-169.14-217.57-37.9-94.85-47.56-219.21-28.74-319.6 21.51-114.73 87.18-240.89 165.97-327.019 88.72-96.98 225.79-179.315 352.07-215.767 140.5-40.553 318.19-39.879 459.39-1.866 155.54 41.872 322.82 143.205 434.65 259.132 122.17 126.64 222.32 315.23 262.39 486.57 43.472 185.88 32.472 417.15-25 599.18-70.51 209.25-88.4 476.29-42.91 692.37 42.4 201.42 154.471 424.42 293.475 576.24 128.909 140.79 323.695 265.95 506.403 321.24 168.422 50.97 381.8184 58.52 552.58 16.04 156.311-38.88 327.708-133.08 441.74-246.85 103.521-103.27 192.951-256.82 228.077-398.77 31.573-127.59 28.804-287.47-10.823-412.79-35.194-111.3-111.619-231.25-200.225-307.24-77.531-66.5-190.055-120.3-291.145-134.91-86.82-12.55-193.511.58-272.997 37.69-66.672 31.12-135.5587 90.11-172.7448 153.6-30.2766 51.69-48.634 124-41.7466 183.51 5.417 46.81 29.6558 101.56 64.56083 133.21 26.78807 24.29 71.04227 42.33 106.97257 38.25 28.991-3.3 63.151-25.17 75.887-51.42-29.103 2.09-65.124-16.55-82.474-40.01-21.5006-29.08-28.0052-76.42-20.3631-111.77 9.9578-46.05 45.2531-94.42 83.0791-122.51 48.094-35.72 119.897-55.98 179.803-55.61 73.578.46 159.101 30.63 219.392 72.8 71.88 50.29 136.597 136.12 169.141 217.58 37.893 94.85 47.558 219.21 28.736 319.6-21.511 114.73-87.174 240.89-165.967 327.02-88.72 96.98-225.79 179.31-352.074 215.76-140.493 40.56-318.1858 39.88-459.387 1.87-155.537-41.87-322.818-143.2-434.649-259.13-122.17-126.64-222.322-315.23-262.394-486.57-43.47-185.88-32.47-417.15 25.001-599.18 70.516-209.25 88.402-476.29 42.914-692.37-42.404-201.43-154.473-424.421-293.482-576.237-128.9-140.79-323.69-265.951-506.4-321.242-168.42-50.969-381.82-58.526-552.58-16.047-156.31 38.885-327.71 133.089-441.74 246.852-103.52 103.277-192.95 256.826-228.08 398.774Zm-356.44-2134.09c37.68 141.294 125.95 295.517 231.31 396.91 94.71 91.14 234.55 168.679 362.9 197.022 113.99 25.172 256.07 18.959 366.19-19.779 96.35-33.895 199.21-104.441 262.41-184.683 54.28-68.915 96.25-167.876 103.86-255.268 6.38-73.302-10.26-162.452-46.65-226.402-29.63-52.07-83.08-104.12-138.06-127.91-43.24-18.71-102.77-25.09-147.64-10.69-34.43 11.05-72.18 40.36-86.61 73.52-11.64 26.75-9.78 67.27 6.59 91.43 12.74-26.26 46.9-48.13 75.89-51.42 35.93-4.09 80.18 13.95 106.97 38.24 34.91 31.65 59.14 86.4 64.56 133.21 6.89 59.509-11.47 131.822-41.75 183.515-37.18 63.491-106.07 122.473-172.74 153.599-79.49 37.108-186.18 50.238-273 37.691-101.09-14.609-213.61-68.415-291.14-134.911-88.61-75.996-165.03-195.941-200.23-307.244-39.62-125.32-42.39-285.2-10.82-412.79 35.13-141.94 124.56-295.49 228.08-398.77 114.03-113.76 285.42-207.97 441.74-246.85 170.76-42.48 384.15-34.92 552.58 16.04 182.7 55.3 377.49 180.46 506.4 321.25 145.96 165.69 368.286 314.71 578.157 383.35 195.642 63.99 444.797 78.43 645.7752 33.96C87.5938-1412.69 293.38-1518.8 432.617-1649.39c128.352-120.37 241.595-301.4 290.187-470.52 44.48-154.81 48.596-350.35 7.09-505.99-37.681-141.29-125.943-295.51-231.31-396.9-94.71-91.14-234.549-168.68-362.897-197.02-113.9858-25.18-256.074-18.96-366.192 19.77-96.352 33.9-199.212 104.45-262.409 184.69-54.276 68.91-96.25 167.87-103.857 255.27-6.38 73.3 10.257 162.45 46.648 226.4 29.63 52.06 83.076 104.12 138.057 127.91 43.243 18.71 102.777 25.09 147.639 10.69 34.431-11.05 72.18-40.36 86.609-73.52 11.643-26.75 9.781-67.27-6.586-91.43-12.736 26.25-46.895 48.13-75.887 51.42-35.93 4.08-80.184-13.95-106.972-38.25-34.905-31.65-59.144-86.4-64.561-133.2-6.887-59.51 11.47-131.82 41.747-183.52 37.186-63.49 106.072-122.47 172.744-153.6 79.487-37.1 186.1772-50.23 272.9973-37.69 101.0907 14.61 213.6147 68.42 291.1447 134.91 88.606 76 165.032 195.95 200.225 307.25 39.628 125.32 42.397 285.19 10.823 412.79-35.126 141.94-124.556 295.49-228.077 398.77-114.031 113.76-285.4282 207.97-441.739 246.85-170.762 42.48-384.158 34.92-552.581-16.05-182.707-55.29-377.49-180.45-506.4-321.24-145.96-165.7-368.29-314.71-578.16-383.35-195.64-63.99-444.8-78.44-645.78-33.96-186.38 41.24-392.16 147.35-531.4 277.93-128.35 120.38-241.59 301.41-290.19 470.53-44.48 154.81-48.59 350.35-7.09 505.98ZM1212.1 1199.35c40.07 171.35 140.23 359.93 262.4 486.58 111.83 115.92 279.11 217.26 434.65 259.13 141.2 38.01 318.89 38.69 459.38-1.87 126.29-36.45 263.36-118.78 352.08-215.76 78.79-86.13 144.45-212.29 165.96-327.03 18.83-100.39 9.16-224.74-28.73-319.59-32.55-81.462-97.26-167.294-169.14-217.577-60.29-42.177-145.82-72.343-219.4-72.802-59.9-.373-131.7 19.885-179.8 55.605-37.82 28.094-73.12 76.46-83.08 122.514-7.64 35.34-1.14 82.69 20.37 111.76 17.35 23.46 53.37 42.11 82.47 40.01-16.37-24.15-18.23-64.67-6.59-91.42 14.43-33.163 52.18-62.468 86.61-73.522 44.86-14.403 104.4-8.02 147.64 10.692 54.98 23.79 108.43 75.84 138.06 127.91 36.39 63.95 53.03 153.1 46.65 226.4-7.61 87.39-49.58 186.36-103.86 255.27-63.2 80.24-166.06 150.79-262.41 184.68-110.12 38.74-252.21 44.95-366.19 19.78-128.35-28.34-268.19-105.88-362.9-197.02-105.37-101.39-193.63-255.62-231.31-396.91-41.5-155.63-37.39-351.169 7.09-505.981 48.59-169.123 161.84-350.151 290.19-470.525 139.24-130.5837 345.02-236.6926 531.4-277.9429 216.48-43.5611 456.69-161.5951 621.07-309.0271 153.24-137.436 290.33-345.988 352.3-542.278 57.47-182.036 68.47-413.306 25-599.176-40.07-171.34-140.22-359.93-262.39-486.57-111.83-115.93-279.11-217.26-434.65-259.14-141.2-38.01-318.9-38.68-459.39 1.87-126.28 36.45-263.35 118.79-352.07 215.77-78.79 86.13-144.46 212.28-165.97 327.02-18.82 100.39-9.16 224.74 28.74 319.59 32.54 81.46 97.26 167.3 169.14 217.58 60.29 42.18 145.81 72.34 219.39 72.8 59.91.37 131.71-19.88 179.8-55.6 37.83-28.1 73.12-76.46 83.08-122.52 7.64-35.34 1.14-82.69-20.36-111.76-17.35-23.46-53.37-42.11-82.48-40.01 16.37 24.15 18.23 64.67 6.59 91.43-14.43 33.16-52.18 62.46-86.61 73.51-44.86 14.41-104.39 8.02-147.64-10.69-54.98-23.79-108.42-75.84-138.05-127.91-36.4-63.95-53.03-153.1-46.65-226.4 7.6-87.39 49.58-186.35 103.85-255.27 63.2-80.24 166.06-150.79 262.41-184.68 110.12-38.74 252.21-44.95 366.2-19.78 128.34 28.34 268.18 105.88 362.89 197.02 105.37 101.4 193.63 255.62 231.31 396.91 41.51 155.64 37.39 351.17-7.09 505.983-48.59 169.124-161.83 350.151-290.18 470.526-139.24 130.583-345.03 236.692-531.41 277.943C1994-207.567 1753.78-89.533 1589.4 57.8987 1436.16 195.334 1299.08 403.887 1237.1 600.177c-57.47 182.033-68.47 413.303-25 599.173Z"/>
    <path fill="#A0F" d="M-926.665-2920.14c-31.573 127.59-28.804 287.47 10.823 412.79 35.194 111.3 111.619 231.25 200.225 307.24 77.531 66.5 190.055 120.3 291.145 134.91 86.82 12.55 193.511-.58 272.997-37.69 66.672-31.12 135.5587-90.11 172.7448-153.6 30.2766-51.69 48.634-124 41.7466-183.51-5.417-46.81-29.6558-101.56-64.56083-133.21-26.78807-24.29-71.04227-42.33-106.97257-38.25-28.991 3.3-63.151 25.17-75.887 51.42 29.103-2.09 65.124 16.55 82.474 40.01 21.5006 29.08 28.0052 76.42 20.3631 111.77-9.9578 46.05-45.2531 94.42-83.0791 122.51-48.094 35.72-119.897 55.98-179.803 55.61-73.578-.46-159.101-30.63-219.392-72.81-71.88-50.28-136.597-136.11-169.141-217.57-37.893-94.85-47.558-219.21-28.736-319.6 21.511-114.73 87.174-240.89 165.967-327.02 88.72-96.98 225.79-179.31 352.074-215.76 140.493-40.56 318.1858-39.88 459.387-1.87 155.537 41.87 322.818 143.2 434.649 259.13 122.17 126.64 222.322 315.23 262.394 486.57 43.47 185.88 32.47 417.15-25.001 599.18-70.516 209.25-88.402 476.29-42.914 692.37 42.404 201.43 154.473 424.421 293.482 576.237 128.9 140.789 323.69 265.95 506.4 321.242 168.42 50.968 381.82 58.526 552.58 16.046 156.31-38.885 327.71-133.088 441.74-246.851 103.52-103.278 192.95-256.827 228.08-398.774 31.57-127.59 28.8-287.46-10.83-412.79-35.19-111.3-111.62-231.24-200.22-307.24-77.53-66.5-190.06-120.3-291.15-134.91-86.82-12.55-193.51.58-272.99 37.69-66.68 31.12-135.56 90.11-172.75 153.6-30.28 51.69-48.63 124-41.75 183.51 5.42 46.81 29.66 101.56 64.57 133.21 26.78 24.29 71.04 42.33 106.97 38.25 28.99-3.3 63.15-25.17 75.88-51.42-29.1 2.09-65.12-16.55-82.47-40.01-21.5-29.08-28-76.42-20.36-111.77 9.96-46.05 45.25-94.42 83.08-122.51 48.09-35.72 119.89-55.98 179.8-55.61 73.58.46 159.1 30.63 219.39 72.81 71.88 50.28 136.6 136.11 169.14 217.57 37.9 94.85 47.56 219.21 28.74 319.6-21.51 114.73-87.18 240.89-165.97 327.018-88.72 96.981-225.79 179.316-352.07 215.768-140.5 40.553-318.19 39.879-459.39 1.866-155.54-41.873-322.82-143.205-434.65-259.132-122.17-126.64-222.32-315.23-262.39-486.57-43.472-185.88-32.472-417.15 25-599.18 70.51-209.25 88.4-476.29 42.91-692.37-42.4-201.42-154.471-424.42-293.475-576.24-128.909-140.79-323.695-265.95-506.403-321.24-168.422-50.97-381.8184-58.52-552.58-16.04-156.311 38.88-327.708 133.08-441.74 246.85-103.521 103.27-192.951 256.82-228.077 398.77Zm196.771 5546.04c37.681 141.29 125.943 295.51 231.31 396.9 94.71 91.14 234.549 168.68 362.897 197.02 113.9858 25.18 256.074 18.96 366.192-19.77 96.352-33.9 199.212-104.45 262.409-184.69 54.276-68.91 96.25-167.87 103.857-255.27 6.38-73.3-10.257-162.45-46.648-226.4-29.63-52.06-83.076-104.12-138.057-127.91-43.243-18.71-102.777-25.09-147.639-10.69-34.431 11.05-72.18 40.36-86.609 73.52-11.643 26.75-9.781 67.27 6.586 91.43 12.736-26.26 46.895-48.13 75.887-51.42 35.93-4.08 80.184 13.95 106.972 38.24 34.905 31.66 59.144 86.41 64.561 133.21 6.887 59.51-11.47 131.82-41.747 183.52-37.186 63.49-106.072 122.47-172.744 153.6-79.487 37.1-186.1772 50.23-272.9973 37.69-101.0907-14.61-213.6147-68.42-291.1447-134.91-88.606-76-165.032-195.95-200.225-307.25-39.628-125.32-42.397-285.19-10.823-412.79 35.126-141.94 124.556-295.49 228.077-398.77 114.031-113.76 285.4282-207.97 441.739-246.85 170.762-42.48 384.158-34.92 552.581 16.05 182.707 55.29 377.49 180.45 506.4 321.24 145.96 165.69 368.29 314.71 578.16 383.35 195.64 63.99 444.8 78.44 645.78 33.96 186.38-41.24 392.16-147.35 531.4-277.93 128.35-120.38 241.59-301.41 290.19-470.53 44.48-154.81 48.59-350.35 7.09-505.98-37.68-141.294-125.95-295.517-231.31-396.911-94.71-91.139-234.55-168.678-362.9-197.022-113.99-25.172-256.07-18.958-366.19 19.779-96.35 33.896-199.21 104.441-262.41 184.683-54.28 68.915-96.25 167.877-103.86 255.269-6.38 73.302 10.26 162.452 46.65 226.402 29.63 52.07 83.08 104.12 138.06 127.91 43.24 18.71 102.77 25.09 147.64 10.69 34.43-11.05 72.18-40.36 86.61-73.52 11.64-26.75 9.78-67.27-6.59-91.43-12.74 26.26-46.9 48.13-75.89 51.42-35.93 4.09-80.18-13.95-106.97-38.24-34.91-31.65-59.14-86.4-64.56-133.21-6.89-59.509 11.47-131.822 41.75-183.516 37.18-63.49 106.07-122.472 172.74-153.598 79.49-37.108 186.18-50.238 273-37.692 101.09 14.61 213.61 68.416 291.14 134.912 88.61 75.996 165.03 195.941 200.23 307.244 39.62 125.32 42.39 285.2 10.82 412.79-35.13 141.94-124.56 295.49-228.08 398.77-114.03 113.76-285.42 207.97-441.74 246.85-170.76 42.48-384.15 34.92-552.58-16.04-182.7-55.3-377.49-180.46-506.4-321.25-145.96-165.69-368.286-314.71-578.157-383.35-195.642-63.99-444.797-78.43-645.7752-33.96-186.3816 41.24-392.1678 147.35-531.4048 277.94-128.352 120.37-241.595 301.4-290.187 470.52-44.48 154.81-48.596 350.35-7.09 505.99ZM-3222.01 1518.75c40.07 171.34 140.22 359.93 262.39 486.57 111.83 115.93 279.11 217.26 434.65 259.14 141.2 38.01 318.9 38.68 459.39-1.87 126.28-36.45 263.35-118.79 352.07-215.77 78.79-86.13 144.46-212.29 165.97-327.02 18.82-100.39 9.16-224.74-28.74-319.59-32.54-81.47-97.26-167.3-169.14-217.58-60.29-42.18-145.81-72.34-219.39-72.8-59.91-.38-131.71 19.88-179.8 55.6-37.83 28.1-73.12 76.46-83.08 122.52-7.64 35.34-1.14 82.69 20.36 111.76 17.35 23.46 53.37 42.11 82.48 40.01-16.37-24.15-18.23-64.67-6.59-91.43 14.43-33.16 52.18-62.46 86.61-73.51 44.86-14.41 104.39-8.02 147.64 10.69 54.98 23.79 108.42 75.84 138.05 127.91 36.4 63.95 53.03 153.1 46.65 226.4-7.6 87.39-49.58 186.35-103.85 255.27-63.2 80.24-166.06 150.78-262.41 184.68-110.12 38.74-252.21 44.95-366.2 19.78-128.34-28.34-268.18-105.88-362.89-197.02-105.37-101.4-193.63-255.62-231.31-396.91-41.51-155.64-37.39-351.17 7.09-505.983 48.59-169.124 161.83-350.152 290.18-470.526 139.24-130.584 345.03-236.693 531.41-277.943C-1994 207.567-1753.78 89.5327-1589.4-57.8989c153.24-137.4351 290.32-345.9881 352.3-542.2781 57.47-182.033 68.47-413.303 25-599.173-40.07-171.35-140.23-359.93-262.4-486.58-111.83-115.92-279.11-217.26-434.65-259.13-141.2-38.01-318.89-38.69-459.38 1.87-126.29 36.45-263.36 118.78-352.08 215.76-78.79 86.13-144.45 212.29-165.96 327.03-18.83 100.39-9.16 224.74 28.73 319.59 32.55 81.462 97.26 167.294 169.14 217.577 60.29 42.176 145.82 72.343 219.4 72.802 59.9.373 131.7-19.885 179.8-55.605 37.82-28.094 73.12-76.46 83.08-122.514 7.64-35.34 1.14-82.69-20.37-111.76-17.35-23.46-53.37-42.11-82.47-40.01 16.37 24.15 18.23 64.67 6.59 91.42-14.43 33.162-52.18 62.468-86.61 73.522-44.86 14.403-104.4 8.02-147.64-10.692-54.98-23.79-108.43-75.84-138.06-127.91-36.39-63.95-53.03-153.1-46.65-226.4 7.61-87.39 49.58-186.36 103.86-255.27 63.2-80.24 166.06-150.79 262.41-184.68 110.12-38.74 252.21-44.95 366.19-19.78 128.35 28.34 268.19 105.88 362.9 197.02 105.37 101.39 193.63 255.62 231.31 396.91 41.5 155.63 37.39 351.168-7.09 505.98-48.59 169.124-161.84 350.152-290.19 470.526-139.24 130.5834-345.02 236.6923-531.4 277.9426-216.48 43.5614-456.69 161.5954-621.07 309.0274-153.24 137.435-290.33 345.988-352.3 542.278-57.47 182.036-68.47 413.306-25 599.176Z"/>
    <path fill="#0A0" d="M-1281.56-2481.01c40.07 171.35 140.22 359.93 262.39 486.58 111.834 115.92 279.115 217.25 434.653 259.13 141.201 38.01 318.893 38.68 459.386-1.87 126.28408-36.45 263.354-118.79 352.074-215.77 78.793-86.13 144.456-212.28 165.967-327.02 18.822-100.39 9.158-224.74-28.735-319.59-32.545-81.46-97.261-167.3-169.141-217.58-60.292-42.18-145.8148-72.34-219.3924-72.8-59.9062-.37-131.7096 19.88-179.8026 55.6-37.827 28.1-73.122 76.46-83.08 122.52-7.642 35.34-1.137 82.69 20.364 111.76 17.349 23.46 53.37 42.11 82.473 40.01-16.367-24.15-18.228-64.67-6.586-91.43 14.429-33.15 52.178-62.46 86.609-73.51 44.8627-14.41 104.3961367-8.02 147.6395 10.69 54.9812 23.79 108.4265 75.84 138.0565 127.91 36.392 63.95 53.029 153.1 46.648 226.4-7.607 87.39-49.58 186.35-103.856 255.27-63.1973 80.24-166.0574 150.79-262.41 184.68-110.117 38.74-252.206 44.95-366.192 19.78-128.347-28.34-268.186-105.88-362.897-197.02-105.366-101.4-193.628-255.62-231.308-396.91-41.51-155.63-37.39-351.17 7.09-505.98 48.59-169.13 161.834-350.15 290.185-470.53 139.238-130.58 345.024-236.69 531.405-277.93 200.9787-44.48 450.134-30.03 645.775 33.95 209.871 68.65 432.198 217.66 578.155 383.36 155.86 176.94 279.86 434.37 324.56 665.9 47.54 246.25 22.77 549.11-60.82 785.57-44.48 154.8-48.6 350.34-7.09 505.98 37.68 141.29 125.94 295.51 231.31 396.903 94.71 91.14 234.55 168.678 362.89 197.022 113.99 25.172 256.08 18.958 366.2-19.779 96.35-33.895 199.21-104.44 262.4-184.682 54.28-68.914 96.25-167.874 103.86-255.274 6.38-73.3-10.25-162.45-46.65-226.4-29.63-52.06-83.07-104.12-138.05-127.91-43.25-18.71-102.78-25.09-147.64-10.69-34.43 11.06-72.18 40.36-86.61 73.52-11.64 26.75-9.78 67.27 6.58 91.43 12.74-26.25 46.9-48.13 75.89-51.42 35.93-4.08 80.19 13.96 106.97 38.25 34.91 31.65 59.15 86.4 64.56 133.2 6.89 59.51-11.47 131.82-41.74 183.52-37.19 63.49-106.07 122.47-172.75 153.597-79.48 37.108-186.17 50.238-272.99 37.691-101.09-14.609-213.62-68.418-291.15-134.908-88.6-76-165.03-195.94-200.22-307.25-39.63-125.32-42.4-285.19-10.83-412.78 96.7-263.67 128.36-602.34 78.74-878.76-46.96-261.64-182.91-553.53-355.65-755.57-162.978-190.63-412.868-363.51-649.902-445.46-222.855-77.06-507.8019-98.38-738.969-51.87-216.474 43.55-456.687 161.59-621.07 309.02-153.239 137.43-290.319 345.99-352.299 542.28-57.47 182.03-68.47 413.3-25 599.17Zm888.65 4760.97c-18.822 100.39-9.158 224.74 28.735 319.59 32.545 81.46 97.261 167.3 169.141 217.58 60.292 42.18 145.8148 72.34 219.3924 72.8 59.9062.37 131.7096-19.88 179.8026-55.6 37.827-28.1 73.122-76.46 83.08-122.52 7.642-35.34 1.137-82.69-20.364-111.76-17.349-23.46-53.37-42.11-82.473-40.01 16.367 24.15 18.228 64.67 6.586 91.43-14.429 33.15-52.178 62.46-86.609 73.51-44.8627 14.41-104.3961367 8.02-147.6395-10.69-54.9812-23.79-108.4265-75.84-138.0565-127.91-36.392-63.95-53.029-153.1-46.648-226.4 7.607-87.39 49.58-186.35 103.856-255.27 63.1973-80.24 166.0574-150.79 262.41-184.68 110.117-38.74 252.206-44.95 366.192-19.78 128.347 28.34 268.186 105.88 362.898 197.02 179.997 215.58 457.467 412.34 721.657 507.58 250.07 90.14 570.83 118.36 832.17 69.78 246.58-45.83 521.24-175.8 710.73-340.1 178.16-154.48 339.11-390.58 414.41-614.03 70.52-209.25 88.4-476.3 42.92-692.38-42.41-201.423-154.48-424.419-293.48-576.235-128.91-140.789-323.7-265.95-506.4-321.241-168.43-50.9685-381.82-58.5263-552.59-16.047-156.31 38.885-327.7 133.089-441.73 246.852-103.53 103.277-192.96 256.827-228.08 398.773-31.58 127.592-28.81 287.468 10.82 412.788 35.19 111.3 111.62 231.25 200.23 307.24 77.53 66.5 190.05 120.31 291.14 134.92 86.82 12.54 193.51-.59 273-37.7 66.67-31.12 135.56-90.1 172.74-153.59 30.28-51.7 48.64-124.01 41.75-183.52-5.42-46.81-29.66-101.56-64.56-133.21-26.79-24.29-71.04-42.33-106.97-38.24-28.99 3.29-63.15 25.16-75.89 51.41 29.1-2.09 65.12 16.56 82.47 40.02 21.5 29.07 28.01 76.42 20.37 111.76-9.96 46.05-45.26 94.42-83.08 122.51-48.1 35.72-119.9 55.98-179.81 55.61-73.57-.46-159.1-30.63-219.39-72.8-71.88-50.29-136.59-136.12-169.14-217.58-37.89-94.85-47.56-219.204-28.73-319.595 21.51-114.733 87.17-240.892 165.96-327.021 88.72-96.98 225.79-179.315 352.08-215.767 140.49-40.553 318.18-39.879 459.38-1.866 155.54 41.872 322.82 143.205 434.65 259.131 122.17 126.644 222.32 315.23 262.4 486.568 43.47 185.88 32.47 417.15-25.01 599.18-61.97 196.29-199.06 404.85-352.29 542.28-164.39 147.43-404.6 265.47-621.07 309.02-231.17 46.51-516.12 25.18-738.97-51.87-237.04-81.96-486.93-254.84-649.91-445.46-111.834-115.93-279.115-217.26-434.653-259.14-141.201-38.01-318.893-38.68-459.386 1.87-126.28408 36.45-263.354 118.79-352.074 215.77-78.793 86.13-144.456 212.28-165.967 327.02Zm-3194.82-734.86c44.7 231.52 168.7 488.96 324.56 665.9 145.96 165.69 368.28 314.71 578.16 383.35 195.64 63.99 444.79 78.43 645.77 33.96 186.38-41.24 392.17-147.35 531.41-277.94 128.35-120.37 241.59-301.4 290.18-470.52 44.48-154.82 48.6-350.35 7.09-505.99-37.68-141.29-125.94-295.51-231.31-396.904-94.71-91.139-234.55-168.678-362.89-197.021-113.99-25.173-256.08-18.959-366.2 19.778-96.35 33.895-199.21 104.441-262.4 184.683-54.28 68.914-96.25 167.874-103.86 255.264-6.38 73.31 10.25 162.46 46.65 226.4 29.63 52.07 83.07 104.13 138.05 127.92 43.25 18.71 102.78 25.09 147.64 10.69 34.43-11.06 72.18-40.36 86.61-73.52 11.64-26.75 9.78-67.27-6.58-91.43-12.74 26.25-46.9 48.13-75.89 51.42-35.93 4.08-80.19-13.96-106.97-38.25-34.91-31.65-59.15-86.4-64.56-133.2-6.89-59.51 11.47-131.83 41.74-183.52 37.19-63.49 106.07-122.47 172.75-153.597 79.48-37.108 186.17-50.239 272.99-37.692 101.09 14.61 213.62 68.419 291.15 134.909 88.6 76 165.03 195.94 200.22 307.24 39.63 125.33 42.4 285.2 10.83 412.79-35.13 141.95-124.56 295.5-228.08 398.78-114.03 113.76-285.43 207.96-441.74 246.85-170.76 42.48-384.16 34.92-552.58-16.05-182.71-55.29-377.49-180.45-506.4-321.24-139.01-151.82-251.08-374.81-293.48-576.24-45.49-216.07-27.6-483.12 42.91-692.369 75.31-223.452 236.25-459.559 414.41-614.03 189.49-164.3005 464.16-294.2715 710.74-340.112 156.31-38.892 327.7-133.095 441.73-246.858 103.53-103.278 192.96-256.827 228.08-398.773 31.58-127.592 28.81-287.468-10.82-412.788-35.19-111.3-111.62-231.25-200.23-307.24-77.53-66.5-190.05-120.31-291.14-134.92-86.82-12.54-193.51.59-273 37.7-66.67 31.12-135.56 90.1-172.74 153.59-30.28 51.7-48.64 124.01-41.75 183.52 5.42 46.81 29.66 101.56 64.56 133.21 26.79 24.29 71.04 42.33 106.97 38.24 28.99-3.29 63.15-25.16 75.89-51.41-29.1 2.09-65.12-16.56-82.47-40.02-21.5-29.07-28.01-76.42-20.37-111.76 9.96-46.05 45.26-94.42 83.08-122.51 48.1-35.72 119.9-55.98 179.81-55.61 73.57.46 159.1 30.63 219.39 72.8 71.88 50.29 136.59 136.12 169.14 217.58 37.89 94.85 47.56 219.203 28.73 319.595-21.51 114.733-87.17 240.892-165.96 327.021-88.72 96.98-225.79 179.315-352.08 215.773-276.69 48.098-585.82 190.014-800.4 371.1961C-3253.48 245.235-3438.3 508.913-3526.9 759.528c-83.6 236.461-108.37 539.312-60.83 785.572Z"/>
  </g>
</svg>