<?xml version="1.0" standalone="no"?>
<svg width="586" height="586" viewBox="0 0 586 586" xmlns="http://www.w3.org/2000/svg">
<title>Cross graph 10b</title>
<g stroke-width="1" stroke="#000000" fill="none">
<path d="M559.296,379.525L573,293
M519.525,457.58L573,293
M457.58,519.525L573,293
M379.525,559.296L573,293
M293,573L573,293
M206.475,559.296L573,293
M128.42,519.525L573,293
M66.4753,457.58L573,293
M26.7043,379.525L573,293
M293,293H573
M519.525,457.58L559.296,379.525
M457.58,519.525L559.296,379.525
M379.525,559.296L559.296,379.525
M293,573L559.296,379.525
M206.475,559.296L559.296,379.525
M128.42,519.525L559.296,379.525
M66.4753,457.58L559.296,379.525
M26.7043,379.525H559.296
M13,293L559.296,379.525
M293,293L559.296,379.525
M457.58,519.524L519.525,457.58
M379.525,559.295L519.525,457.58
M293,573L519.525,457.58
M206.475,559.296L519.525,457.58
M128.42,519.525L519.525,457.58
M66.4756,457.58H519.525
M26.7046,379.525L519.525,457.58
M13,293L519.525,457.58
M26.7043,206.475L519.525,457.58
M293,293L519.525,457.58
M379.525,559.296L457.58,519.525
M293,573L457.58,519.525
M206.475,559.295L457.58,519.525
M128.42,519.524L457.58,519.525
M66.4753,457.58L457.58,519.525
M26.7043,379.525L457.58,519.525
M13,293L457.58,519.525
M26.7046,206.475L457.58,519.525
M66.4756,128.42L457.58,519.525
M293,293L457.58,519.525
M293,573L379.525,559.296
M206.475,559.296H379.525
M128.42,519.524L379.525,559.296
M66.4753,457.58L379.525,559.296
M26.7043,379.525L379.525,559.296
M13,293L379.525,559.296
M26.7043,206.475L379.525,559.296
M66.4756,128.42L379.525,559.296
M128.42,66.4753L379.525,559.296
M293,293L379.525,559.296
M206.475,559.296L293,573
M128.42,519.525L293,573
M66.4753,457.58L293,573
M26.7043,379.525L293,573
M13,293L293,573
M26.7043,206.475L293,573
M66.4753,128.42L293,573
M128.42,66.4753L293,573
M206.475,26.7043L293,573
M293,293V573
M128.42,519.525L206.475,559.296
M66.4753,457.58L206.475,559.296
M26.7043,379.525L206.475,559.296
M13,293L206.475,559.296
M26.7043,206.475L206.475,559.296
M66.4753,128.42L206.475,559.296
M128.42,66.4753L206.475,559.296
M206.475,26.7043V559.296
M293,13L206.475,559.296
M293,293L206.475,559.296
M66.4756,457.58L128.42,519.525
M26.7046,379.525L128.42,519.525
M13,293L128.42,519.525
M26.7043,206.475L128.42,519.525
M66.4753,128.42L128.42,519.525
M128.42,66.4756V519.525
M206.475,26.7046L128.42,519.525
M293,13L128.42,519.525
M379.525,26.7043L128.42,519.525
M293,293L128.42,519.525
M26.7043,379.525L66.4753,457.58
M13,293L66.4753,457.58
M26.7046,206.475L66.4753,457.58
M66.4756,128.42L66.4753,457.58
M128.42,66.4753L66.4753,457.58
M206.475,26.7043L66.4753,457.58
M293,13L66.4753,457.58
M379.525,26.7046L66.4753,457.58
M457.58,66.4756L66.4753,457.58
M293,293L66.4753,457.58
M13,293L26.7043,379.525
M26.7043,206.475V379.525
M66.4756,128.42L26.7043,379.525
M128.42,66.4753L26.7043,379.525
M206.475,26.7043L26.7043,379.525
M293,13L26.7043,379.525
M379.525,26.7043L26.7043,379.525
M457.58,66.4756L26.7043,379.525
M519.525,128.42L26.7043,379.525
M293,293L26.7043,379.525
M26.7043,206.475L13,293
M66.4753,128.42L13,293
M128.42,66.4753L13,293
M206.475,26.7043L13,293
M293,13L13,293
M379.525,26.7043L13,293
M457.58,66.4753L13,293
M519.525,128.42L13,293
M559.296,206.475L13,293
M293,293H13
M66.4753,128.42L26.7043,206.475
M128.42,66.4753L26.7043,206.475
M206.475,26.7043L26.7043,206.475
M293,13L26.7043,206.475
M379.525,26.7043L26.7043,206.475
M457.58,66.4753L26.7043,206.475
M519.525,128.42L26.7043,206.475
M559.296,206.475H26.7043
M573,293L26.7043,206.475
M293,293L26.7043,206.475
M128.42,66.4756L66.4753,128.42
M206.475,26.7046L66.4753,128.42
M293,13L66.4753,128.42
M379.525,26.7043L66.4753,128.42
M457.58,66.4753L66.4753,128.42
M519.524,128.42H66.4753
M559.295,206.475L66.4753,128.42
M573,293L66.4753,128.42
M559.296,379.525L66.4753,128.42
M293,293L66.4753,128.42
M206.475,26.7043L128.42,66.4753
M293,13L128.42,66.4753
M379.525,26.7046L128.42,66.4753
M457.58,66.4756L128.42,66.4753
M519.525,128.42L128.42,66.4753
M559.296,206.475L128.42,66.4753
M573,293L128.42,66.4753
M559.295,379.525L128.42,66.4753
M519.524,457.58L128.42,66.4753
M293,293L128.42,66.4753
M293,13L206.475,26.7043
M379.525,26.7043H206.475
M457.58,66.4756L206.475,26.7043
M519.525,128.42L206.475,26.7043
M559.296,206.475L206.475,26.7043
M573,293L206.475,26.7043
M559.296,379.525L206.475,26.7043
M519.524,457.58L206.475,26.7043
M457.58,519.525L206.475,26.7043
M293,293L206.475,26.7043
M379.525,26.7043L293,13
M457.58,66.4753L293,13
M519.525,128.42L293,13
M559.296,206.475L293,13
M573,293L293,13
M559.296,379.525L293,13
M519.525,457.58L293,13
M457.58,519.525L293,13
M379.525,559.296L293,13
M293,293V13
M457.58,66.4753L379.525,26.7043
M519.525,128.42L379.525,26.7043
M559.296,206.475L379.525,26.7043
M573,293L379.525,26.7043
M559.296,379.525L379.525,26.7043
M519.525,457.58L379.525,26.7043
M457.58,519.525L379.525,26.7043
M379.525,559.296V26.7043
M293,573L379.525,26.7043
M293,293L379.525,26.7043
M519.524,128.42L457.58,66.4753
M559.295,206.475L457.58,66.4753
M573,293L457.58,66.4753
M559.296,379.525L457.58,66.4753
M519.525,457.58L457.58,66.4753
M457.58,519.524V66.4753
M379.525,559.295L457.58,66.4753
M293,573L457.58,66.4753
M206.475,559.296L457.58,66.4753
M293,293L457.58,66.4753
M559.296,206.475L519.525,128.42
M573,293L519.525,128.42
M559.295,379.525L519.525,128.42
M519.524,457.58L519.525,128.42
M457.58,519.525L519.525,128.42
M379.525,559.296L519.525,128.42
M293,573L519.525,128.42
M206.475,559.295L519.525,128.42
M128.42,519.524L519.525,128.42
M293,293L519.525,128.42
M573,293L559.296,206.475
M559.296,379.525V206.475
M519.524,457.58L559.296,206.475
M457.58,519.525L559.296,206.475
M379.525,559.296L559.296,206.475
M293,573L559.296,206.475
M206.475,559.296L559.296,206.475
M128.42,519.524L559.296,206.475
M66.4753,457.58L559.296,206.475
M293,293L559.296,206.475"/>
<g fill="rgb(255,0,0)">
<path d="M580,293
C580,296.866,576.866,300,573,300
C569.134,300,566,296.866,566,293
C566,289.134,569.134,286,573,286
C576.866,286,580,289.134,580,293Z"/>
<path d="M566.296,379.525
C566.296,383.391,563.162,386.525,559.296,386.525
C555.43,386.525,552.296,383.391,552.296,379.525
C552.296,375.659,555.43,372.525,559.296,372.525
C563.162,372.525,566.296,375.659,566.296,379.525Z"/>
<path d="M526.525,457.58
C526.525,461.446,523.391,464.58,519.525,464.58
C515.659,464.58,512.525,461.446,512.525,457.58
C512.525,453.714,515.659,450.58,519.525,450.58
C523.391,450.58,526.525,453.714,526.525,457.58Z"/>
<path d="M464.58,519.525
C464.58,523.391,461.446,526.525,457.58,526.525
C453.714,526.525,450.58,523.391,450.58,519.525
C450.58,515.659,453.714,512.525,457.58,512.525
C461.446,512.525,464.58,515.659,464.58,519.525Z"/>
<path d="M386.525,559.296
C386.525,563.162,383.391,566.296,379.525,566.296
C375.659,566.296,372.525,563.162,372.525,559.296
C372.525,555.43,375.659,552.296,379.525,552.296
C383.391,552.296,386.525,555.43,386.525,559.296Z"/>
<path d="M300,573
C300,576.866,296.866,580,293,580
C289.134,580,286,576.866,286,573
C286,569.134,289.134,566,293,566
C296.866,566,300,569.134,300,573Z"/>
<path d="M213.475,559.296
C213.475,563.162,210.341,566.296,206.475,566.296
C202.609,566.296,199.475,563.162,199.475,559.296
C199.475,555.43,202.609,552.296,206.475,552.296
C210.341,552.296,213.475,555.43,213.475,559.296Z"/>
<path d="M135.42,519.525
C135.42,523.391,132.286,526.525,128.42,526.525
C124.554,526.525,121.42,523.391,121.42,519.525
C121.42,515.659,124.554,512.525,128.42,512.525
C132.286,512.525,135.42,515.659,135.42,519.525Z"/>
<path d="M73.4753,457.58
C73.4753,461.446,70.3413,464.58,66.4753,464.58
C62.6094,464.58,59.4753,461.446,59.4753,457.58
C59.4753,453.714,62.6094,450.58,66.4753,450.58
C70.3413,450.58,73.4753,453.714,73.4753,457.58Z"/>
<path d="M33.7043,379.525
C33.7043,383.391,30.5703,386.525,26.7043,386.525
C22.8384,386.525,19.7043,383.391,19.7043,379.525
C19.7043,375.659,22.8384,372.525,26.7043,372.525
C30.5703,372.525,33.7043,375.659,33.7043,379.525Z"/>
<path d="M20,293
C20,296.866,16.866,300,13,300
C9.13403,300,6,296.866,6,293
C6,289.134,9.13403,286,13,286
C16.866,286,20,289.134,20,293Z"/>
<path d="M33.7043,206.475
C33.7043,210.341,30.5703,213.475,26.7043,213.475
C22.8384,213.475,19.7043,210.341,19.7043,206.475
C19.7043,202.609,22.8384,199.475,26.7043,199.475
C30.5703,199.475,33.7043,202.609,33.7043,206.475Z"/>
<path d="M73.4753,128.42
C73.4753,132.286,70.3413,135.42,66.4753,135.42
C62.6094,135.42,59.4753,132.286,59.4753,128.42
C59.4753,124.554,62.6094,121.42,66.4753,121.42
C70.3413,121.42,73.4753,124.554,73.4753,128.42Z"/>
<path d="M135.42,66.4753
C135.42,70.3413,132.286,73.4753,128.42,73.4753
C124.554,73.4753,121.42,70.3413,121.42,66.4753
C121.42,62.6094,124.554,59.4753,128.42,59.4753
C132.286,59.4753,135.42,62.6094,135.42,66.4753Z"/>
<path d="M213.475,26.7043
C213.475,30.5703,210.341,33.7043,206.475,33.7043
C202.609,33.7043,199.475,30.5703,199.475,26.7043
C199.475,22.8384,202.609,19.7043,206.475,19.7043
C210.341,19.7043,213.475,22.8384,213.475,26.7043Z"/>
<path d="M300,13
C300,16.866,296.866,20,293,20
C289.134,20,286,16.866,286,13
C286,9.13403,289.134,6,293,6
C296.866,6,300,9.13403,300,13Z"/>
<path d="M386.525,26.7043
C386.525,30.5703,383.391,33.7043,379.525,33.7043
C375.659,33.7043,372.525,30.5703,372.525,26.7043
C372.525,22.8384,375.659,19.7043,379.525,19.7043
C383.391,19.7043,386.525,22.8384,386.525,26.7043Z"/>
<path d="M464.58,66.4753
C464.58,70.3413,461.446,73.4753,457.58,73.4753
C453.714,73.4753,450.58,70.3413,450.58,66.4753
C450.58,62.6094,453.714,59.4753,457.58,59.4753
C461.446,59.4753,464.58,62.6094,464.58,66.4753Z"/>
<path d="M526.525,128.42
C526.525,132.286,523.391,135.42,519.525,135.42
C515.659,135.42,512.525,132.286,512.525,128.42
C512.525,124.554,515.659,121.42,519.525,121.42
C523.391,121.42,526.525,124.554,526.525,128.42Z"/>
<path d="M566.296,206.475
C566.296,210.341,563.162,213.475,559.296,213.475
C555.43,213.475,552.296,210.341,552.296,206.475
C552.296,202.609,555.43,199.475,559.296,199.475
C563.162,199.475,566.296,202.609,566.296,206.475Z"/>
</g>
<path fill="rgb(255,127,0)" d="M300,293
C300,296.866,296.866,300,293,300
C289.134,300,286,296.866,286,293
C286,289.134,289.134,286,293,286
C296.866,286,300,289.134,300,293Z"/>
</g>
</svg>
